<?xml version="1.0" encoding="UTF-8" standalone="no"?><svg xmlns="http://www.w3.org/2000/svg" xmlns:xlink="http://www.w3.org/1999/xlink" contentStyleType="text/css" height="200px" preserveAspectRatio="none" style="width:232px;height:200px;background:#FFFFFF;" version="1.1" viewBox="0 0 232 200" width="232px" zoomAndPan="magnify"><defs/><g><line style="stroke:#333333;stroke-width:0.5;" x1="10" x2="10" y1="10" y2="170"/><line style="stroke:#333333;stroke-width:0.5;" x1="220" x2="220" y1="10" y2="170"/><line style="stroke:#333333;stroke-width:0.5;stroke-dasharray:3.0,5.0;" x1="65" x2="65" y1="10" y2="170"/><line style="stroke:#333333;stroke-width:0.5;stroke-dasharray:3.0,5.0;" x1="115" x2="115" y1="10" y2="170"/><line style="stroke:#333333;stroke-width:0.5;stroke-dasharray:3.0,5.0;" x1="165" x2="165" y1="10" y2="170"/><line style="stroke:#333333;stroke-width:0.5;stroke-dasharray:3.0,5.0;" x1="215" x2="215" y1="10" y2="170"/><line style="stroke:#333333;stroke-width:0.5;" x1="10" x2="220" y1="10" y2="10"/><text fill="#333333" font-family="sans-serif" font-size="14" font-weight="bold" lengthAdjust="spacing" textLength="14" x="15" y="30.7285">IN</text><line style="stroke:#006400;stroke-width:2.0;" x1="65" x2="65" y1="32" y2="32"/><line style="stroke:#006400;stroke-width:2.0;" x1="65" x2="115" y1="32" y2="32"/><line style="stroke:#006400;stroke-width:2.0;" x1="115" x2="115" y1="18" y2="32"/><line style="stroke:#006400;stroke-width:2.0;" x1="115" x2="165" y1="18" y2="18"/><line style="stroke:#006400;stroke-width:2.0;" x1="165" x2="215" y1="18" y2="18"/><line style="stroke:#333333;stroke-width:0.5;" x1="10" x2="220" y1="40" y2="40"/><text fill="#333333" font-family="sans-serif" font-size="14" font-weight="bold" lengthAdjust="spacing" textLength="11" x="15" y="60.7285">Q</text><line style="stroke:#006400;stroke-width:2.0;" x1="65" x2="65" y1="62" y2="62"/><line style="stroke:#006400;stroke-width:2.0;" x1="65" x2="115" y1="62" y2="62"/><line style="stroke:#006400;stroke-width:2.0;" x1="115" x2="165" y1="62" y2="62"/><line style="stroke:#006400;stroke-width:2.0;" x1="165" x2="165" y1="48" y2="62"/><line style="stroke:#006400;stroke-width:2.0;" x1="165" x2="215" y1="48" y2="48"/><line style="stroke:#333333;stroke-width:0.5;" x1="10" x2="220" y1="70" y2="70"/><text fill="#333333" font-family="sans-serif" font-size="14" font-weight="bold" lengthAdjust="spacing" textLength="17" x="15" y="125.7285">ET</text><text fill="#333333" font-family="sans-serif" font-size="14" font-weight="bold" lengthAdjust="spacing" textLength="20" x="43" y="167.7285">0.0</text><text fill="#333333" font-family="sans-serif" font-size="14" font-weight="bold" lengthAdjust="spacing" textLength="28" x="35" y="83.7285">10.0</text><line style="stroke:#333333;stroke-width:0.5;" x1="65" x2="65" y1="162" y2="162"/><line style="stroke:#333333;stroke-width:0.5;" x1="65" x2="115" y1="162" y2="162"/><line style="stroke:#333333;stroke-width:0.5;" x1="115" x2="165" y1="162" y2="78"/><line style="stroke:#333333;stroke-width:0.5;" x1="165" x2="215" y1="78" y2="78"/><line style="stroke:#333333;stroke-width:2.0;" x1="65" x2="65" y1="170" y2="175"/><line style="stroke:#333333;stroke-width:2.0;" x1="115" x2="115" y1="170" y2="175"/><line style="stroke:#333333;stroke-width:2.0;" x1="165" x2="165" y1="170" y2="175"/><line style="stroke:#333333;stroke-width:2.0;" x1="215" x2="215" y1="170" y2="175"/><line style="stroke:#333333;stroke-width:2.0;" x1="65" x2="215" y1="170" y2="170"/><text fill="#333333" font-family="sans-serif" font-size="11" lengthAdjust="spacing" textLength="6" x="62" y="187.4189">0</text><text fill="#333333" font-family="sans-serif" font-size="11" lengthAdjust="spacing" textLength="12" x="109" y="187.4189">10</text><text fill="#333333" font-family="sans-serif" font-size="11" lengthAdjust="spacing" textLength="12" x="159" y="187.4189">20</text><!--MD5=[86cd2e72a0c9149d97e31cb3248534f5]
@startuml
binary  "IN" as B
binary  "Q"  as C
analog "ET" as D

@0
B is low
C is low
D is 0

@10
B is high
C is low
D is 0

@20
B is high
C is high
D is 10

@enduml

PlantUML version 1.2022.7(Mon Aug 22 19:01:30 CEST 2022)
(GPL source distribution)
Java Runtime: Java(TM) SE Runtime Environment
JVM: Java HotSpot(TM) 64-Bit Server VM
Default Encoding: Cp1252
Language: en
Country: US
--></g></svg>