<?xml version="1.0" encoding="UTF-8" standalone="no"?><svg xmlns="http://www.w3.org/2000/svg" xmlns:xlink="http://www.w3.org/1999/xlink" contentStyleType="text/css" height="100px" preserveAspectRatio="none" style="width:701px;height:100px;background:#FFFFFF;" version="1.1" viewBox="0 0 701 100" width="701px" zoomAndPan="magnify"><defs/><g><line style="stroke:#333333;stroke-width:0.5;" x1="10" x2="10" y1="10" y2="70"/><line style="stroke:#333333;stroke-width:0.5;" x1="689" x2="689" y1="10" y2="70"/><line style="stroke:#333333;stroke-width:0.5;stroke-dasharray:3.0,5.0;" x1="34" x2="34" y1="10" y2="70"/><line style="stroke:#333333;stroke-width:0.5;stroke-dasharray:3.0,5.0;" x1="84" x2="84" y1="10" y2="70"/><line style="stroke:#333333;stroke-width:0.5;stroke-dasharray:3.0,5.0;" x1="134" x2="134" y1="10" y2="70"/><line style="stroke:#333333;stroke-width:0.5;stroke-dasharray:3.0,5.0;" x1="184" x2="184" y1="10" y2="70"/><line style="stroke:#333333;stroke-width:0.5;stroke-dasharray:3.0,5.0;" x1="234" x2="234" y1="10" y2="70"/><line style="stroke:#333333;stroke-width:0.5;stroke-dasharray:3.0,5.0;" x1="284" x2="284" y1="10" y2="70"/><line style="stroke:#333333;stroke-width:0.5;stroke-dasharray:3.0,5.0;" x1="334" x2="334" y1="10" y2="70"/><line style="stroke:#333333;stroke-width:0.5;stroke-dasharray:3.0,5.0;" x1="384" x2="384" y1="10" y2="70"/><line style="stroke:#333333;stroke-width:0.5;stroke-dasharray:3.0,5.0;" x1="434" x2="434" y1="10" y2="70"/><line style="stroke:#333333;stroke-width:0.5;stroke-dasharray:3.0,5.0;" x1="484" x2="484" y1="10" y2="70"/><line style="stroke:#333333;stroke-width:0.5;stroke-dasharray:3.0,5.0;" x1="534" x2="534" y1="10" y2="70"/><line style="stroke:#333333;stroke-width:0.5;stroke-dasharray:3.0,5.0;" x1="584" x2="584" y1="10" y2="70"/><line style="stroke:#333333;stroke-width:0.5;stroke-dasharray:3.0,5.0;" x1="634" x2="634" y1="10" y2="70"/><line style="stroke:#333333;stroke-width:0.5;stroke-dasharray:3.0,5.0;" x1="684" x2="684" y1="10" y2="70"/><line style="stroke:#333333;stroke-width:0.5;" x1="10" x2="689" y1="10" y2="10"/><text fill="#333333" font-family="sans-serif" font-size="14" font-weight="bold" lengthAdjust="spacing" textLength="14" x="15" y="30.7285">IN</text><line style="stroke:#006400;stroke-width:2.0;" x1="34" x2="34" y1="32" y2="32"/><line style="stroke:#006400;stroke-width:2.0;" x1="34" x2="134" y1="32" y2="32"/><line style="stroke:#006400;stroke-width:2.0;" x1="134" x2="134" y1="18" y2="32"/><line style="stroke:#006400;stroke-width:2.0;" x1="134" x2="234" y1="18" y2="18"/><line style="stroke:#006400;stroke-width:2.0;" x1="234" x2="334" y1="18" y2="18"/><line style="stroke:#006400;stroke-width:2.0;" x1="334" x2="334" y1="18" y2="32"/><line style="stroke:#006400;stroke-width:2.0;" x1="334" x2="534" y1="32" y2="32"/><line style="stroke:#006400;stroke-width:2.0;" x1="534" x2="534" y1="18" y2="32"/><line style="stroke:#006400;stroke-width:2.0;" x1="534" x2="584" y1="18" y2="18"/><line style="stroke:#006400;stroke-width:2.0;" x1="584" x2="584" y1="18" y2="32"/><line style="stroke:#006400;stroke-width:2.0;" x1="584" x2="634" y1="32" y2="32"/><line style="stroke:#006400;stroke-width:2.0;" x1="634" x2="684" y1="32" y2="32"/><line style="stroke:#333333;stroke-width:0.5;" x1="10" x2="689" y1="40" y2="40"/><text fill="#333333" font-family="sans-serif" font-size="14" font-weight="bold" lengthAdjust="spacing" textLength="11" x="15" y="60.7285">Q</text><line style="stroke:#006400;stroke-width:2.0;" x1="34" x2="34" y1="62" y2="62"/><line style="stroke:#006400;stroke-width:2.0;" x1="34" x2="134" y1="62" y2="62"/><line style="stroke:#006400;stroke-width:2.0;" x1="134" x2="134" y1="48" y2="62"/><line style="stroke:#006400;stroke-width:2.0;" x1="134" x2="234" y1="48" y2="48"/><line style="stroke:#006400;stroke-width:2.0;" x1="234" x2="234" y1="48" y2="62"/><line style="stroke:#006400;stroke-width:2.0;" x1="234" x2="334" y1="62" y2="62"/><line style="stroke:#006400;stroke-width:2.0;" x1="334" x2="534" y1="62" y2="62"/><line style="stroke:#006400;stroke-width:2.0;" x1="534" x2="534" y1="48" y2="62"/><line style="stroke:#006400;stroke-width:2.0;" x1="534" x2="584" y1="48" y2="48"/><line style="stroke:#006400;stroke-width:2.0;" x1="584" x2="634" y1="48" y2="48"/><line style="stroke:#006400;stroke-width:2.0;" x1="634" x2="634" y1="48" y2="62"/><line style="stroke:#006400;stroke-width:2.0;" x1="634" x2="684" y1="62" y2="62"/><line style="stroke:#333333;stroke-width:2.0;" x1="34" x2="34" y1="70" y2="75"/><line style="stroke:#333333;stroke-width:2.0;" x1="84" x2="84" y1="70" y2="75"/><line style="stroke:#333333;stroke-width:2.0;" x1="134" x2="134" y1="70" y2="75"/><line style="stroke:#333333;stroke-width:2.0;" x1="184" x2="184" y1="70" y2="75"/><line style="stroke:#333333;stroke-width:2.0;" x1="234" x2="234" y1="70" y2="75"/><line style="stroke:#333333;stroke-width:2.0;" x1="284" x2="284" y1="70" y2="75"/><line style="stroke:#333333;stroke-width:2.0;" x1="334" x2="334" y1="70" y2="75"/><line style="stroke:#333333;stroke-width:2.0;" x1="384" x2="384" y1="70" y2="75"/><line style="stroke:#333333;stroke-width:2.0;" x1="434" x2="434" y1="70" y2="75"/><line style="stroke:#333333;stroke-width:2.0;" x1="484" x2="484" y1="70" y2="75"/><line style="stroke:#333333;stroke-width:2.0;" x1="534" x2="534" y1="70" y2="75"/><line style="stroke:#333333;stroke-width:2.0;" x1="584" x2="584" y1="70" y2="75"/><line style="stroke:#333333;stroke-width:2.0;" x1="634" x2="634" y1="70" y2="75"/><line style="stroke:#333333;stroke-width:2.0;" x1="684" x2="684" y1="70" y2="75"/><line style="stroke:#333333;stroke-width:2.0;" x1="34" x2="684" y1="70" y2="70"/><text fill="#333333" font-family="sans-serif" font-size="11" lengthAdjust="spacing" textLength="6" x="31" y="87.4189">0</text><text fill="#333333" font-family="sans-serif" font-size="11" lengthAdjust="spacing" textLength="12" x="128" y="87.4189">10</text><text fill="#333333" font-family="sans-serif" font-size="11" lengthAdjust="spacing" textLength="12" x="228" y="87.4189">20</text><text fill="#333333" font-family="sans-serif" font-size="11" lengthAdjust="spacing" textLength="12" x="328" y="87.4189">30</text><text fill="#333333" font-family="sans-serif" font-size="11" lengthAdjust="spacing" textLength="12" x="528" y="87.4189">50</text><text fill="#333333" font-family="sans-serif" font-size="11" lengthAdjust="spacing" textLength="12" x="578" y="87.4189">55</text><text fill="#333333" font-family="sans-serif" font-size="11" lengthAdjust="spacing" textLength="12" x="628" y="87.4189">60</text><!--MD5=[c9d6be0dbf9846685f741e94dcc3d60a]
@startuml
binary  "IN" as B
binary  "Q"  as C

@0
B is low
C is low

@10
B is high
C is high

@20
B is high
C is low

@30
B is low
C is low

@50
B is high
C is high

@55
B is low
C is high

@60
B is low
C is low

@enduml

PlantUML version 1.2022.7(Mon Aug 22 19:01:30 CEST 2022)
(GPL source distribution)
Java Runtime: Java(TM) SE Runtime Environment
JVM: Java HotSpot(TM) 64-Bit Server VM
Default Encoding: Cp1252
Language: en
Country: US
--></g></svg>