<?xml version="1.0" encoding="UTF-8" standalone="no"?><svg xmlns="http://www.w3.org/2000/svg" xmlns:xlink="http://www.w3.org/1999/xlink" contentStyleType="text/css" height="246px" preserveAspectRatio="none" style="width:1182px;height:246px;background:#FFFFFF;" version="1.1" viewBox="0 0 1182 246" width="1182px" zoomAndPan="magnify"><defs/><g><g id="elem_PRG_Unit_Filler"><rect fill="#F1F1F1" height="37.6094" style="stroke:#181818;stroke-width:0.5;" width="115" x="634" y="7"/><text fill="#000000" font-family="sans-serif" font-size="14" lengthAdjust="spacing" textLength="101" x="641" y="23.5332">PRG_Unit_Filler</text><line style="stroke:#181818;stroke-width:0.5;" x1="635" x2="748" y1="28.6094" y2="28.6094"/></g><g id="elem_EM_WeigthScale"><rect fill="#F1F1F1" height="37.6094" style="stroke:#181818;stroke-width:0.5;" width="121" x="199" y="105"/><text fill="#000000" font-family="sans-serif" font-size="14" lengthAdjust="spacing" textLength="107" x="206" y="121.5332">EM_WeigthScale</text><line style="stroke:#181818;stroke-width:0.5;" x1="200" x2="319" y1="126.6094" y2="126.6094"/></g><g id="elem_EM_BagForming"><rect fill="#F1F1F1" height="37.6094" style="stroke:#181818;stroke-width:0.5;" width="119" x="552" y="105"/><text fill="#000000" font-family="sans-serif" font-size="14" lengthAdjust="spacing" textLength="105" x="559" y="121.5332">EM_BagForming</text><line style="stroke:#181818;stroke-width:0.5;" x1="553" x2="670" y1="126.6094" y2="126.6094"/></g><g id="elem_EM_FeedRoller"><rect fill="#F1F1F1" height="37.6094" style="stroke:#181818;stroke-width:0.5;" width="112" x="715.5" y="105"/><text fill="#000000" font-family="sans-serif" font-size="14" lengthAdjust="spacing" textLength="98" x="722.5" y="121.5332">EM_FeedRoller</text><line style="stroke:#181818;stroke-width:0.5;" x1="716.5" x2="826.5" y1="126.6094" y2="126.6094"/></g><g id="elem_EM_Sealer"><rect fill="#F1F1F1" height="37.6094" style="stroke:#181818;stroke-width:0.5;" width="83" x="969" y="105"/><text fill="#000000" font-family="sans-serif" font-size="14" lengthAdjust="spacing" textLength="69" x="976" y="121.5332">EM_Sealer</text><line style="stroke:#181818;stroke-width:0.5;" x1="970" x2="1051" y1="126.6094" y2="126.6094"/></g><g id="elem_CM_InfeedGate"><rect fill="#F1F1F1" height="37.6094" style="stroke:#181818;stroke-width:0.5;" width="113" x="7" y="203"/><text fill="#000000" font-family="sans-serif" font-size="14" lengthAdjust="spacing" textLength="99" x="14" y="219.5332">CM_InfeedGate</text><line style="stroke:#181818;stroke-width:0.5;" x1="8" x2="119" y1="224.6094" y2="224.6094"/></g><g id="elem_CM_Scale"><rect fill="#F1F1F1" height="37.6094" style="stroke:#181818;stroke-width:0.5;" width="78" x="155.5" y="203"/><text fill="#000000" font-family="sans-serif" font-size="14" lengthAdjust="spacing" textLength="64" x="162.5" y="219.5332">CM_Scale</text><line style="stroke:#181818;stroke-width:0.5;" x1="156.5" x2="232.5" y1="224.6094" y2="224.6094"/></g><g id="elem_CM_DumpGate"><rect fill="#F1F1F1" height="37.6094" style="stroke:#181818;stroke-width:0.5;" width="111" x="269" y="203"/><text fill="#000000" font-family="sans-serif" font-size="14" lengthAdjust="spacing" textLength="97" x="276" y="219.5332">CM_DumpGate</text><line style="stroke:#181818;stroke-width:0.5;" x1="270" x2="379" y1="224.6094" y2="224.6094"/></g><g id="elem_CM_LeftServo"><rect fill="#F1F1F1" height="37.6094" style="stroke:#181818;stroke-width:0.5;" width="104" x="415.5" y="203"/><text fill="#000000" font-family="sans-serif" font-size="14" lengthAdjust="spacing" textLength="90" x="422.5" y="219.5332">CM_LeftServo</text><line style="stroke:#181818;stroke-width:0.5;" x1="416.5" x2="518.5" y1="224.6094" y2="224.6094"/></g><g id="elem_CM_RightServo"><rect fill="#F1F1F1" height="37.6094" style="stroke:#181818;stroke-width:0.5;" width="113" x="555" y="203"/><text fill="#000000" font-family="sans-serif" font-size="14" lengthAdjust="spacing" textLength="99" x="562" y="219.5332">CM_RightServo</text><line style="stroke:#181818;stroke-width:0.5;" x1="556" x2="667" y1="224.6094" y2="224.6094"/></g><g id="elem_CM_LeftServoFeed"><rect fill="#F1F1F1" height="37.6094" style="stroke:#181818;stroke-width:0.5;" width="137" x="703" y="203"/><text fill="#000000" font-family="sans-serif" font-size="14" lengthAdjust="spacing" textLength="123" x="710" y="219.5332">CM_LeftServoFeed</text><line style="stroke:#181818;stroke-width:0.5;" x1="704" x2="839" y1="224.6094" y2="224.6094"/></g><g id="elem_CM_RightServoFeed"><rect fill="#F1F1F1" height="37.6094" style="stroke:#181818;stroke-width:0.5;" width="146" x="875.5" y="203"/><text fill="#000000" font-family="sans-serif" font-size="14" lengthAdjust="spacing" textLength="132" x="882.5" y="219.5332">CM_RightServoFeed</text><line style="stroke:#181818;stroke-width:0.5;" x1="876.5" x2="1020.5" y1="224.6094" y2="224.6094"/></g><g id="elem_CM_ServoCutter"><rect fill="#F1F1F1" height="37.6094" style="stroke:#181818;stroke-width:0.5;" width="119" x="1057" y="203"/><text fill="#000000" font-family="sans-serif" font-size="14" lengthAdjust="spacing" textLength="105" x="1064" y="219.5332">CM_ServoCutter</text><line style="stroke:#181818;stroke-width:0.5;" x1="1058" x2="1175" y1="224.6094" y2="224.6094"/></g><!--MD5=[0ca292d234e5e26d2117cdbd5e649612]
reverse link PRG_Unit_Filler to EM_WeigthScale--><g id="link_PRG_Unit_Filler_EM_WeigthScale"><path codeLine="15" d="M620.99,42.67 C537.31,61.26 399.18,91.96 320.1,109.53 " fill="none" id="PRG_Unit_Filler-backto-EM_WeigthScale" style="stroke:#181818;stroke-width:1.0;"/><polygon fill="#181818" points="633.69,39.85,626.9661,37.2444,621.9748,42.449,628.6987,45.0545,633.69,39.85" style="stroke:#181818;stroke-width:1.0;"/></g><!--MD5=[ebfd7e516b56beb9b567ed8c3c57a096]
reverse link PRG_Unit_Filler to EM_BagForming--><g id="link_PRG_Unit_Filler_EM_BagForming"><path codeLine="16" d="M667.81,55.43 C654.53,71.36 638.35,90.78 626.75,104.7 " fill="none" id="PRG_Unit_Filler-backto-EM_BagForming" style="stroke:#181818;stroke-width:1.0;"/><polygon fill="#181818" points="676.45,45.06,669.5366,47.1105,668.7704,54.2808,675.6838,52.2303,676.45,45.06" style="stroke:#181818;stroke-width:1.0;"/></g><!--MD5=[f46ec8a27fb230f1e71652381e4550e6]
reverse link PRG_Unit_Filler to EM_FeedRoller--><g id="link_PRG_Unit_Filler_EM_FeedRoller"><path codeLine="17" d="M715.19,55.43 C728.47,71.36 744.65,90.78 756.25,104.7 " fill="none" id="PRG_Unit_Filler-backto-EM_FeedRoller" style="stroke:#181818;stroke-width:1.0;"/><polygon fill="#181818" points="706.55,45.06,707.3162,52.2303,714.2296,54.2808,713.4634,47.1105,706.55,45.06" style="stroke:#181818;stroke-width:1.0;"/></g><!--MD5=[6453f501e10a1115dc435d9951d51d7e]
reverse link PRG_Unit_Filler to EM_Sealer--><g id="link_PRG_Unit_Filler_EM_Sealer"><path codeLine="18" d="M761.96,48.2 C825.38,67.29 916.42,94.69 968.91,110.48 " fill="none" id="PRG_Unit_Filler-backto-EM_Sealer" style="stroke:#181818;stroke-width:1.0;"/><polygon fill="#181818" points="749.27,44.38,753.8652,49.9373,760.7625,47.833,756.1672,42.2757,749.27,44.38" style="stroke:#181818;stroke-width:1.0;"/></g><!--MD5=[f6ff25e79546e07810e11d4bad63b879]
reverse link EM_WeigthScale to CM_InfeedGate--><g id="link_EM_WeigthScale_CM_InfeedGate"><path codeLine="20" d="M210.6,148.95 C176.49,165.66 131.69,187.6 100.53,202.86 " fill="none" id="EM_WeigthScale-backto-CM_InfeedGate" style="stroke:#181818;stroke-width:1.0;"/><polygon fill="#181818" points="222.63,143.06,215.4823,142.1058,211.8524,148.3367,219.0001,149.2909,222.63,143.06" style="stroke:#181818;stroke-width:1.0;"/></g><!--MD5=[9d217f5f79d2fcbd52e3ddb433ba25b2]
reverse link EM_WeigthScale to CM_Scale--><g id="link_EM_WeigthScale_CM_Scale"><path codeLine="21" d="M239.94,153.89 C229.21,169.74 216.23,188.91 206.89,202.7 " fill="none" id="EM_WeigthScale-backto-CM_Scale" style="stroke:#181818;stroke-width:1.0;"/><polygon fill="#181818" points="247.27,143.06,240.5935,145.7847,240.5407,152.9956,247.2172,150.2709,247.27,143.06" style="stroke:#181818;stroke-width:1.0;"/></g><!--MD5=[cb637afc06cd16119cb1871cad6fdb50]
reverse link EM_WeigthScale to CM_DumpGate--><g id="link_EM_WeigthScale_CM_DumpGate"><path codeLine="22" d="M279.06,153.89 C289.79,169.74 302.77,188.91 312.11,202.7 " fill="none" id="EM_WeigthScale-backto-CM_DumpGate" style="stroke:#181818;stroke-width:1.0;"/><polygon fill="#181818" points="271.73,143.06,271.7828,150.2709,278.4593,152.9956,278.4065,145.7847,271.73,143.06" style="stroke:#181818;stroke-width:1.0;"/></g><!--MD5=[d3fe140beece8cd83d700b60277a4b09]
reverse link EM_BagForming to CM_LeftServo--><g id="link_EM_BagForming_CM_LeftServo"><path codeLine="24" d="M573.28,150.48 C548.63,166.92 517.14,187.91 494.95,202.7 " fill="none" id="EM_BagForming-backto-CM_LeftServo" style="stroke:#181818;stroke-width:1.0;"/><polygon fill="#181818" points="584.41,143.06,577.1989,143.0622,574.4274,149.7194,581.6385,149.7172,584.41,143.06" style="stroke:#181818;stroke-width:1.0;"/></g><!--MD5=[6392e0961553af50f92199be0e4f5bce]
reverse link EM_BagForming to CM_RightServo--><g id="link_EM_BagForming_CM_RightServo"><path codeLine="25" d="M611.5,156.22 C611.5,171.59 611.5,189.58 611.5,202.7 " fill="none" id="EM_BagForming-backto-CM_RightServo" style="stroke:#181818;stroke-width:1.0;"/><polygon fill="#181818" points="611.5,143.06,607.5,149.06,611.5,155.06,615.5,149.06,611.5,143.06" style="stroke:#181818;stroke-width:1.0;"/></g><!--MD5=[2965bb91a89b40fa78202ab3ad8fdeea]
reverse link EM_FeedRoller to CM_LeftServoFeed--><g id="link_EM_FeedRoller_CM_LeftServoFeed"><path codeLine="27" d="M771.5,156.22 C771.5,171.59 771.5,189.58 771.5,202.7 " fill="none" id="EM_FeedRoller-backto-CM_LeftServoFeed" style="stroke:#181818;stroke-width:1.0;"/><polygon fill="#181818" points="771.5,143.06,767.5,149.06,771.5,155.06,775.5,149.06,771.5,143.06" style="stroke:#181818;stroke-width:1.0;"/></g><!--MD5=[59175ebee627d0a486153148805a53aa]
reverse link EM_FeedRoller to CM_RightServoFeed--><g id="link_EM_FeedRoller_CM_RightServoFeed"><path codeLine="28" d="M816.47,149.39 C847.17,166.04 887.16,187.73 915.06,202.86 " fill="none" id="EM_FeedRoller-backto-CM_RightServoFeed" style="stroke:#181818;stroke-width:1.0;"/><polygon fill="#181818" points="804.79,143.06,808.1532,149.4388,815.3348,148.7877,811.9717,142.4089,804.79,143.06" style="stroke:#181818;stroke-width:1.0;"/></g><!--MD5=[e472734d76211b0e15be3c9261ab6327]
reverse link EM_Sealer to CM_ServoCutter--><g id="link_EM_Sealer_CM_ServoCutter"><path codeLine="30" d="M1040.12,151.83 C1058.04,168.05 1080.4,188.31 1096.29,202.7 " fill="none" id="EM_Sealer-backto-CM_ServoCutter" style="stroke:#181818;stroke-width:1.0;"/><polygon fill="#181818" points="1030.44,143.06,1032.2039,150.052,1039.3366,151.113,1037.5726,144.121,1030.44,143.06" style="stroke:#181818;stroke-width:1.0;"/></g><!--MD5=[3a960115edb6f370efd7ee6c3ec77d1f]
@startuml
object PRG_Unit_Filler
object EM_WeigthScale
object EM_BagForming
object EM_FeedRoller
object EM_Sealer
object CM_InfeedGate
object CM_Scale
object CM_DumpGate
object CM_LeftServo
object CM_RightServo
object CM_LeftServoFeed
object CM_RightServoFeed
object CM_ServoCutter

PRG_Unit_Filler *- - EM_WeigthScale
PRG_Unit_Filler *- - EM_BagForming
PRG_Unit_Filler *- - EM_FeedRoller
PRG_Unit_Filler *- - EM_Sealer

EM_WeigthScale *- - CM_InfeedGate
EM_WeigthScale *- - CM_Scale
EM_WeigthScale *- - CM_DumpGate

EM_BagForming *- - CM_LeftServo
EM_BagForming *- - CM_RightServo

EM_FeedRoller *- - CM_LeftServoFeed
EM_FeedRoller *- - CM_RightServoFeed

EM_Sealer *- - CM_ServoCutter

@enduml

PlantUML version 1.2022.7(Mon Aug 22 19:01:30 CEST 2022)
(GPL source distribution)
Java Runtime: Java(TM) SE Runtime Environment
JVM: Java HotSpot(TM) 64-Bit Server VM
Default Encoding: Cp1252
Language: en
Country: US
--></g></svg>