<?xml version="1.0" encoding="UTF-8" standalone="no"?><svg xmlns="http://www.w3.org/2000/svg" xmlns:xlink="http://www.w3.org/1999/xlink" contentStyleType="text/css" height="511px" preserveAspectRatio="none" style="width:784px;height:511px;background:#FFFFFF;" version="1.1" viewBox="0 0 784 511" width="784px" zoomAndPan="magnify"><defs/><g><!--MD5=[3f1446c6fb35754dedc83cf784bfc7c9]
cluster Not_Idle--><g id="cluster_Not_Idle"><path d="M19.5,7 L335.5,7 A12.5,12.5 0 0 1 348,19.5 L348,33.4883 L7,33.4883 L7,19.5 A12.5,12.5 0 0 1 19.5,7 " fill="#F1F1F1" style="stroke:#F1F1F1;stroke-width:1.0;"/><rect fill="none" height="498" rx="12.5" ry="12.5" style="stroke:#181818;stroke-width:0.5;" width="341" x="7" y="7"/><line style="stroke:#181818;stroke-width:0.5;" x1="7" x2="348" y1="33.4883" y2="33.4883"/><text fill="#000000" font-family="sans-serif" font-size="14" lengthAdjust="spacing" textLength="56" x="149.5" y="24.5352">Not_Idle</text></g><g id="Not_Idle.Red"><rect fill="#F1F1F1" height="50" rx="12.5" ry="12.5" style="stroke:#181818;stroke-width:0.5;" width="50" x="196" y="50"/><line style="stroke:#181818;stroke-width:0.5;" x1="196" x2="246" y1="76.4883" y2="76.4883"/><text fill="#000000" font-family="sans-serif" font-size="14" lengthAdjust="spacing" textLength="26" x="208" y="68.5352">Red</text></g><g id="Not_Idle.Red_Orange"><rect fill="#F1F1F1" height="50" rx="12.5" ry="12.5" style="stroke:#181818;stroke-width:0.5;" width="104" x="31" y="177"/><line style="stroke:#181818;stroke-width:0.5;" x1="31" x2="135" y1="203.4883" y2="203.4883"/><text fill="#000000" font-family="sans-serif" font-size="14" lengthAdjust="spacing" textLength="84" x="41" y="195.5352">Red_Orange</text></g><g id="Not_Idle.Green"><rect fill="#F1F1F1" height="50" rx="12.5" ry="12.5" style="stroke:#181818;stroke-width:0.5;" width="61" x="43.5" y="304"/><line style="stroke:#181818;stroke-width:0.5;" x1="43.5" x2="104.5" y1="330.4883" y2="330.4883"/><text fill="#000000" font-family="sans-serif" font-size="14" lengthAdjust="spacing" textLength="41" x="53.5" y="322.5352">Green</text></g><g id="Not_Idle.Orange"><rect fill="#F1F1F1" height="50" rx="12.5" ry="12.5" style="stroke:#181818;stroke-width:0.5;" width="71" x="107.5" y="431"/><line style="stroke:#181818;stroke-width:0.5;" x1="107.5" x2="178.5" y1="457.4883" y2="457.4883"/><text fill="#000000" font-family="sans-serif" font-size="14" lengthAdjust="spacing" textLength="51" x="117.5" y="449.5352">Orange</text></g><ellipse cx="768" cy="75" fill="#222222" rx="10" ry="10" style="stroke:none;stroke-width:1.0;"/><g id="Idle"><rect fill="#F1F1F1" height="50" rx="12.5" ry="12.5" style="stroke:#181818;stroke-width:0.5;" width="50" x="482" y="177"/><line style="stroke:#181818;stroke-width:0.5;" x1="482" x2="532" y1="203.4883" y2="203.4883"/><text fill="#000000" font-family="sans-serif" font-size="14" lengthAdjust="spacing" textLength="25" x="494.5" y="195.5352">Idle</text></g><g id="Warning"><rect fill="#F1F1F1" height="50" rx="12.5" ry="12.5" style="stroke:#181818;stroke-width:0.5;" width="77" x="488.5" y="50"/><line style="stroke:#181818;stroke-width:0.5;" x1="488.5" x2="565.5" y1="76.4883" y2="76.4883"/><text fill="#000000" font-family="sans-serif" font-size="14" lengthAdjust="spacing" textLength="57" x="498.5" y="68.5352">Warning</text></g><!--MD5=[38f1f8b7f214ff6bc6d4b705f682283d]
link *start to Idle--><g id="link_*start_Idle"><path d="M764.2,84.48 C757.03,99.49 740.03,130.71 716,147 C661.12,184.2 582.28,195.78 538.8,199.38 " fill="none" id="*start-to-Idle" style="stroke:#181818;stroke-width:1.0;"/><polygon fill="#181818" points="533.9,199.75,543.1817,203.0439,538.8851,199.3643,542.5647,195.0677,533.9,199.75" style="stroke:#181818;stroke-width:1.0;"/></g><!--MD5=[a7f0bc972e330f3e5d04cae512e71f1c]
link Idle to Red--><g id="link_Idle_Red"><path d="M481.63,197.64 C427.69,190.13 303.71,170.73 269,147 C254.14,136.84 242.61,120.44 234.58,105.95 " fill="none" id="Idle-to-Red" style="stroke:#181818;stroke-width:1.0;"/><polygon fill="#181818" points="232.28,101.64,232.9661,111.4649,234.624,106.0565,240.0325,107.7145,232.28,101.64" style="stroke:#181818;stroke-width:1.0;"/><text fill="#000000" font-family="sans-serif" font-size="13" lengthAdjust="spacing" textLength="111" x="270" y="143.5684">bConditionEnable</text></g><!--MD5=[27358ad56c1b907bed92a64eed7acea0]
link Not_Idle to Idle--><g id="link_Not_Idle_Idle"><path d="M348.1254,86.3138 C348.1901,86.3935 348.2551,86.4735 348.3205,86.5539 C348.8437,87.1972 349.3885,87.8638 349.9541,88.5521 C351.0852,89.9287 352.2993,91.3919 353.5895,92.9278 C356.1697,95.9998 359.0538,99.3628 362.185,102.9062 C374.71,117.08 391.19,134.14 408,147 C429.09,163.13 455.61,177.33 475.9,187.11 " fill="none" id="Not_Idle-to-Idle" style="stroke:#181818;stroke-width:1.0;"/><polygon fill="#181818" points="480.35,189.23,473.9348,181.757,475.8331,187.0859,470.5042,188.9841,480.35,189.23" style="stroke:#181818;stroke-width:1.0;"/><text fill="#000000" font-family="sans-serif" font-size="13" lengthAdjust="spacing" textLength="143" x="409" y="143.5684">NOT bConditionEnable</text></g><!--MD5=[9bf971a99e028c0aad2578e9210763ad]
link Not_Idle to Warning--><g id="link_Not_Idle_Warning"><path d="M348.2614,75 C348.3653,75 348.4701,75 348.5757,75 C348.9984,75 349.4349,75 349.8851,75 C350.7854,75 351.74,75 352.7458,75 C354.7575,75 356.9743,75 359.372,75 C368.9628,75 381.4481,75 395.2813,75 C422.9475,75 456.005,75 482.08,75 " fill="none" id="Not_Idle-to-Warning" style="stroke:#181818;stroke-width:1.0;"/><polygon fill="#181818" points="486.78,75,477.78,71,481.78,75,477.78,79,486.78,75" style="stroke:#181818;stroke-width:1.0;"/><text fill="#000000" font-family="sans-serif" font-size="13" lengthAdjust="spacing" textLength="38" x="395.43" y="68.5684">bError</text></g><!--MD5=[efca5c12b2b09a65d55e7c19a2384ccf]
link Warning to Idle--><g id="link_Warning_Idle"><path d="M549.73,100.35 C559.58,113.92 567.54,131.22 561,147 C555.9,159.32 546.47,170.29 536.91,179.07 " fill="none" id="Warning-to-Idle" style="stroke:#181818;stroke-width:1.0;"/><polygon fill="#181818" points="533.36,182.2,542.7554,179.2459,537.1096,178.8924,537.4632,173.2466,533.36,182.2" style="stroke:#181818;stroke-width:1.0;"/><text fill="#000000" font-family="sans-serif" font-size="13" lengthAdjust="spacing" textLength="143" x="564" y="143.5684">NOT bConditionEnable</text></g><!--MD5=[96023adb00c566295a75dc77d61aee5c]
link Red to Red_Orange--><g id="link_Red_Red_Orange"><path d="M195.76,76.82 C161.17,79.46 100.12,89.9 72,130 C63.8,141.69 65.14,157.12 69.11,170.61 " fill="none" id="Red-to-Red_Orange" style="stroke:#181818;stroke-width:1.0;"/><polygon fill="#181818" points="70.63,175.21,71.6318,165.4122,69.0746,170.4581,64.0287,167.9009,70.63,175.21" style="stroke:#181818;stroke-width:1.0;"/><text fill="#000000" font-family="sans-serif" font-size="13" lengthAdjust="spacing" textLength="138" x="73" y="143.5684">bConditionRedOrange</text></g><!--MD5=[5ec0c675c82efd6699afb3df43f00f91]
link Red_Orange to Green--><g id="link_Red_Orange_Green"><path d="M71.84,227.49 C68.27,236.56 64.78,247.06 63,257 C60.64,270.17 62.19,284.78 64.79,297.3 " fill="none" id="Red_Orange-to-Green" style="stroke:#181818;stroke-width:1.0;"/><polygon fill="#181818" points="65.89,302.16,67.8094,292.5,64.7887,297.2828,60.0059,294.2621,65.89,302.16" style="stroke:#181818;stroke-width:1.0;"/><text fill="#000000" font-family="sans-serif" font-size="13" lengthAdjust="spacing" textLength="113" x="64" y="270.5684">bConditionGreeen</text></g><!--MD5=[b63fb22d2da254250bf9875ba424ca74]
link Green to Orange--><g id="link_Green_Orange"><path d="M78.43,354.38 C81.68,368.59 86.95,386.5 95,401 C99.89,409.81 106.44,418.4 113.12,426.06 " fill="none" id="Green-to-Orange" style="stroke:#181818;stroke-width:1.0;"/><polygon fill="#181818" points="116.28,429.57,113.2504,420.1987,112.9423,425.8472,107.2938,425.5391,116.28,429.57" style="stroke:#181818;stroke-width:1.0;"/><text fill="#000000" font-family="sans-serif" font-size="13" lengthAdjust="spacing" textLength="115" x="96" y="397.5684">bConditionOrange</text></g><!--MD5=[ab5540a5f9db0eec30a41b250d3ade33]
link Orange to Red--><g id="link_Orange_Red"><path d="M178.65,437.87 C192.95,429 207.93,416.7 216,401 C266.14,303.42 243.01,166.61 228.98,106.43 " fill="none" id="Orange-to-Red" style="stroke:#181818;stroke-width:1.0;"/><polygon fill="#181818" points="227.83,101.64,226.0246,111.322,228.9887,106.5039,233.8068,109.468,227.83,101.64" style="stroke:#181818;stroke-width:1.0;"/><text fill="#000000" font-family="sans-serif" font-size="13" lengthAdjust="spacing" textLength="93" x="248" y="270.5684">bConditionRed</text></g><!--MD5=[70e44c6db1683eac73364bf627007550]
@startuml

[*] - -> Idle

state Not_Idle{
    state Red
    state Red_Orange
    state Green
    state Orange
}
    
state Warning

Idle - -> Red : bConditionEnable
Not_Idle - -> Idle : NOT bConditionEnable
Not_Idle - -> Warning : bError
Warning - -> Idle : NOT bConditionEnable

Red - -> Red_Orange : bConditionRedOrange
Red_Orange - -> Green : bConditionGreeen
Green - -> Orange : bConditionOrange
Orange - ->  Red : bConditionRed

@enduml

PlantUML version 1.2022.7(Mon Aug 22 19:01:30 CEST 2022)
(GPL source distribution)
Java Runtime: OpenJDK Runtime Environment
JVM: OpenJDK 64-Bit Server VM
Default Encoding: UTF-8
Language: fr
Country: CH
--></g></svg>