<?xml version="1.0" encoding="UTF-8" standalone="no"?><svg xmlns="http://www.w3.org/2000/svg" xmlns:xlink="http://www.w3.org/1999/xlink" contentStyleType="text/css" height="975px" preserveAspectRatio="none" style="width:845px;height:975px;background:#FFFFFF;" version="1.1" viewBox="0 0 845 975" width="845px" zoomAndPan="magnify"><defs/><g><ellipse cx="638" cy="16" fill="#222222" rx="10" ry="10" style="stroke:none;stroke-width:1.0;"/><g id="Idle"><rect fill="#F1F1F1" height="50" rx="12.5" ry="12.5" style="stroke:#181818;stroke-width:0.5;" width="50" x="613" y="91.5"/><line style="stroke:#181818;stroke-width:0.5;" x1="613" x2="663" y1="119.1094" y2="119.1094"/><text fill="#000000" font-family="sans-serif" font-size="14" lengthAdjust="spacing" textLength="22" x="627" y="111.0332">Idle</text></g><g id="Init"><rect fill="#F1F1F1" height="50" rx="12.5" ry="12.5" style="stroke:#181818;stroke-width:0.5;" width="50" x="241" y="228.5"/><line style="stroke:#181818;stroke-width:0.5;" x1="241" x2="291" y1="256.1094" y2="256.1094"/><text fill="#000000" font-family="sans-serif" font-size="14" lengthAdjust="spacing" textLength="18" x="257" y="248.0332">Init</text></g><g id="elem_GMN7"><path d="M428.5,87 L428.5,146.0547 A0,0 0 0 0 428.5,146.0547 L577.5,146.0547 A0,0 0 0 0 577.5,146.0547 L577.5,120.5 L613,116.5 L577.5,112.5 L577.5,97 L567.5,87 L428.5,87 A0,0 0 0 0 428.5,87 " fill="#FEFFDD" style="stroke:#181818;stroke-width:0.5;"/><path d="M567.5,87 L567.5,97 L577.5,97 L567.5,87 " fill="#FEFFDD" style="stroke:#181818;stroke-width:0.5;"/><text fill="#000000" font-family="sans-serif" font-size="13" lengthAdjust="spacing" textLength="128" x="434.5" y="105.4951">InOperation := FALSE</text><text fill="#000000" font-family="sans-serif" font-size="13" lengthAdjust="spacing" textLength="97" x="434.5" y="121.8467">Active := FALSE</text><text fill="#000000" font-family="sans-serif" font-size="13" lengthAdjust="spacing" textLength="90" x="434.5" y="138.1982">Error := FALSE</text></g><g id="Error"><rect fill="#F1F1F1" height="50" rx="12.5" ry="12.5" style="stroke:#181818;stroke-width:0.5;" width="52" x="516" y="913.5"/><line style="stroke:#181818;stroke-width:0.5;" x1="516" x2="568" y1="941.1094" y2="941.1094"/><text fill="#000000" font-family="sans-serif" font-size="14" lengthAdjust="spacing" textLength="32" x="526" y="933.0332">Error</text></g><g id="InOp_Zero"><rect fill="#F1F1F1" height="50" rx="12.5" ry="12.5" style="stroke:#181818;stroke-width:0.5;" width="87" x="280.5" y="365.5"/><line style="stroke:#181818;stroke-width:0.5;" x1="280.5" x2="367.5" y1="393.1094" y2="393.1094"/><text fill="#000000" font-family="sans-serif" font-size="14" lengthAdjust="spacing" textLength="67" x="290.5" y="385.0332">InOp_Zero</text></g><g id="elem_GMN14"><path d="M326.5,224 L326.5,249.5 L291.05,253.5 L326.5,257.5 L326.5,283.0547 A0,0 0 0 0 326.5,283.0547 L475.5,283.0547 A0,0 0 0 0 475.5,283.0547 L475.5,234 L465.5,224 L326.5,224 A0,0 0 0 0 326.5,224 " fill="#FEFFDD" style="stroke:#181818;stroke-width:0.5;"/><path d="M465.5,224 L465.5,234 L475.5,234 L465.5,224 " fill="#FEFFDD" style="stroke:#181818;stroke-width:0.5;"/><text fill="#000000" font-family="sans-serif" font-size="13" lengthAdjust="spacing" textLength="128" x="332.5" y="242.4951">InOperation := FALSE</text><text fill="#000000" font-family="sans-serif" font-size="13" lengthAdjust="spacing" textLength="89" x="332.5" y="258.8467">Active := TRUE</text><text fill="#000000" font-family="sans-serif" font-size="13" lengthAdjust="spacing" textLength="90" x="332.5" y="275.1982">Error := FALSE</text></g><g id="InOp_One"><rect fill="#F1F1F1" height="50" rx="12.5" ry="12.5" style="stroke:#181818;stroke-width:0.5;" width="85" x="199.5" y="502.5"/><line style="stroke:#181818;stroke-width:0.5;" x1="199.5" x2="284.5" y1="530.1094" y2="530.1094"/><text fill="#000000" font-family="sans-serif" font-size="14" lengthAdjust="spacing" textLength="65" x="209.5" y="522.0332">InOp_One</text></g><g id="elem_GMN21"><path d="M402.5,361 L402.5,386.5 L367.65,390.5 L402.5,394.5 L402.5,420.0547 A0,0 0 0 0 402.5,420.0547 L543.5,420.0547 A0,0 0 0 0 543.5,420.0547 L543.5,371 L533.5,361 L402.5,361 A0,0 0 0 0 402.5,361 " fill="#FEFFDD" style="stroke:#181818;stroke-width:0.5;"/><path d="M533.5,361 L533.5,371 L543.5,371 L533.5,361 " fill="#FEFFDD" style="stroke:#181818;stroke-width:0.5;"/><text fill="#000000" font-family="sans-serif" font-size="13" lengthAdjust="spacing" textLength="120" x="408.5" y="379.4951">InOperation := TRUE</text><text fill="#000000" font-family="sans-serif" font-size="13" lengthAdjust="spacing" textLength="89" x="408.5" y="395.8467">Active := TRUE</text><text fill="#000000" font-family="sans-serif" font-size="13" lengthAdjust="spacing" textLength="90" x="408.5" y="412.1982">Error := FALSE</text></g><g id="InOp_Two"><rect fill="#F1F1F1" height="50" rx="12.5" ry="12.5" style="stroke:#181818;stroke-width:0.5;" width="84" x="113" y="639.5"/><line style="stroke:#181818;stroke-width:0.5;" x1="113" x2="197" y1="667.1094" y2="667.1094"/><text fill="#000000" font-family="sans-serif" font-size="14" lengthAdjust="spacing" textLength="64" x="123" y="659.0332">InOp_Two</text></g><g id="elem_GMN28"><path d="M391.5,498 L391.5,523.5 L284.54,527.5 L391.5,531.5 L391.5,557.0547 A0,0 0 0 0 391.5,557.0547 L532.5,557.0547 A0,0 0 0 0 532.5,557.0547 L532.5,508 L522.5,498 L391.5,498 A0,0 0 0 0 391.5,498 " fill="#FEFFDD" style="stroke:#181818;stroke-width:0.5;"/><path d="M522.5,498 L522.5,508 L532.5,508 L522.5,498 " fill="#FEFFDD" style="stroke:#181818;stroke-width:0.5;"/><text fill="#000000" font-family="sans-serif" font-size="13" lengthAdjust="spacing" textLength="120" x="397.5" y="516.4951">InOperation := TRUE</text><text fill="#000000" font-family="sans-serif" font-size="13" lengthAdjust="spacing" textLength="89" x="397.5" y="532.8467">Active := TRUE</text><text fill="#000000" font-family="sans-serif" font-size="13" lengthAdjust="spacing" textLength="90" x="397.5" y="549.1982">Error := FALSE</text></g><g id="InOp_Three"><rect fill="#F1F1F1" height="50" rx="12.5" ry="12.5" style="stroke:#181818;stroke-width:0.5;" width="96" x="7" y="776.5"/><line style="stroke:#181818;stroke-width:0.5;" x1="7" x2="103" y1="804.1094" y2="804.1094"/><text fill="#000000" font-family="sans-serif" font-size="14" lengthAdjust="spacing" textLength="76" x="17" y="796.0332">InOp_Three</text></g><g id="elem_GMN35"><path d="M303.5,635 L303.5,660.5 L197.35,664.5 L303.5,668.5 L303.5,694.0547 A0,0 0 0 0 303.5,694.0547 L444.5,694.0547 A0,0 0 0 0 444.5,694.0547 L444.5,645 L434.5,635 L303.5,635 A0,0 0 0 0 303.5,635 " fill="#FEFFDD" style="stroke:#181818;stroke-width:0.5;"/><path d="M434.5,635 L434.5,645 L444.5,645 L434.5,635 " fill="#FEFFDD" style="stroke:#181818;stroke-width:0.5;"/><text fill="#000000" font-family="sans-serif" font-size="13" lengthAdjust="spacing" textLength="120" x="309.5" y="653.4951">InOperation := TRUE</text><text fill="#000000" font-family="sans-serif" font-size="13" lengthAdjust="spacing" textLength="89" x="309.5" y="669.8467">Active := TRUE</text><text fill="#000000" font-family="sans-serif" font-size="13" lengthAdjust="spacing" textLength="90" x="309.5" y="686.1982">Error := FALSE</text></g><g id="elem_GMN41"><path d="M138.5,772 L138.5,797.5 L103.12,801.5 L138.5,805.5 L138.5,831.0547 A0,0 0 0 0 138.5,831.0547 L279.5,831.0547 A0,0 0 0 0 279.5,831.0547 L279.5,782 L269.5,772 L138.5,772 A0,0 0 0 0 138.5,772 " fill="#FEFFDD" style="stroke:#181818;stroke-width:0.5;"/><path d="M269.5,772 L269.5,782 L279.5,782 L269.5,772 " fill="#FEFFDD" style="stroke:#181818;stroke-width:0.5;"/><text fill="#000000" font-family="sans-serif" font-size="13" lengthAdjust="spacing" textLength="120" x="144.5" y="790.4951">InOperation := TRUE</text><text fill="#000000" font-family="sans-serif" font-size="13" lengthAdjust="spacing" textLength="89" x="144.5" y="806.8467">Active := TRUE</text><text fill="#000000" font-family="sans-serif" font-size="13" lengthAdjust="spacing" textLength="90" x="144.5" y="823.1982">Error := FALSE</text></g><g id="elem_GMN45"><path d="M331.5,909 L331.5,968.0547 A0,0 0 0 0 331.5,968.0547 L480.5,968.0547 A0,0 0 0 0 480.5,968.0547 L480.5,942.5 L515.63,938.5 L480.5,934.5 L480.5,919 L470.5,909 L331.5,909 A0,0 0 0 0 331.5,909 " fill="#FEFFDD" style="stroke:#181818;stroke-width:0.5;"/><path d="M470.5,909 L470.5,919 L480.5,919 L470.5,909 " fill="#FEFFDD" style="stroke:#181818;stroke-width:0.5;"/><text fill="#000000" font-family="sans-serif" font-size="13" lengthAdjust="spacing" textLength="128" x="337.5" y="927.4951">InOperation := FALSE</text><text fill="#000000" font-family="sans-serif" font-size="13" lengthAdjust="spacing" textLength="89" x="337.5" y="943.8467">Active := TRUE</text><text fill="#000000" font-family="sans-serif" font-size="13" lengthAdjust="spacing" textLength="82" x="337.5" y="960.1982">Error := TRUE</text></g><!--MD5=[38f1f8b7f214ff6bc6d4b705f682283d]
link *start to Idle--><g id="link_*start_Idle"><path d="M638,26.09 C638,39.61 638,65.63 638,86.13 " fill="none" id="*start-to-Idle" style="stroke:#181818;stroke-width:1.0;"/><polygon fill="#181818" points="638,91.21,642,82.21,638,86.21,634,82.21,638,91.21" style="stroke:#181818;stroke-width:1.0;"/></g><!--MD5=[c483c4ae74fec926d59f0822b1f495e5]
link Idle to Init--><g id="link_Idle_Init"><path d="M612.85,136.08 C607.18,139.73 601.04,143.26 595,146 C475.01,200.42 428.99,169.58 309,224 C304.47,226.05 299.89,228.56 295.48,231.22 " fill="none" id="Idle-to-Init" style="stroke:#181818;stroke-width:1.0;"/><polygon fill="#181818" points="291.15,233.92,300.9007,232.5332,295.3876,231.2662,296.6546,225.753,291.15,233.92" style="stroke:#181818;stroke-width:1.0;"/><text fill="#000000" font-family="sans-serif" font-size="13" lengthAdjust="spacing" textLength="56" x="504" y="190.4951">Execute↑</text></g><!--MD5=[9b2089483e046c7da07ed58cc10578b5]
link Init to Error--><g id="link_Init_Error"><path d="M291.16,273.05 C296.84,276.7 302.97,280.24 309,283 C468.48,356 689,214.1 689,389.5 C689,389.5 689,389.5 689,802.5 C689,865.02 615.98,906.47 572.87,925.5 " fill="none" id="Init-to-Error" style="stroke:#181818;stroke-width:1.0;"/><polygon fill="#181818" points="568.28,927.49,578.1284,927.5843,572.8683,925.5032,574.9495,920.2431,568.28,927.49" style="stroke:#181818;stroke-width:1.0;"/><text fill="#000000" font-family="sans-serif" font-size="13" lengthAdjust="spacing" textLength="48" x="690" y="601.4951">SetError</text></g><!--MD5=[ac6df2f7f44f3637157e70ac6f0aae2c]
link Init to InOp_Zero--><g id="link_Init_InOp_Zero"><path d="M271.13,278.52 C274.84,293.89 280.52,314.06 288,331 C292.47,341.12 298.43,351.6 304.21,360.84 " fill="none" id="Init-to-InOp_Zero" style="stroke:#181818;stroke-width:1.0;"/><polygon fill="#181818" points="307.03,365.26,305.6048,355.5148,304.3595,361.0329,298.8414,359.7876,307.03,365.26" style="stroke:#181818;stroke-width:1.0;"/></g><!--MD5=[b20cc21927d68f6d29244bcb58421b6e]
link InOp_Zero to Init--><g id="link_InOp_Zero_Init"><path d="M313.52,365.12 C303.65,342.14 288.86,307.7 278.4,283.36 " fill="none" id="InOp_Zero-to-Init" style="stroke:#181818;stroke-width:1.0;"/><polygon fill="#181818" points="276.37,278.64,276.2498,288.4881,278.3448,283.2335,283.5994,285.3285,276.37,278.64" style="stroke:#181818;stroke-width:1.0;"/><text fill="#000000" font-family="sans-serif" font-size="13" lengthAdjust="spacing" textLength="17" x="300" y="327.4951">Init</text></g><!--MD5=[3f3aff0182b1e6243e55f9f789f96603]
link InOp_Zero to InOp_One--><g id="link_InOp_Zero_InOp_One"><path d="M290.15,415.73 C279.05,425.25 267.62,437.02 260,450 C251.56,464.38 247.08,482.46 244.7,497.43 " fill="none" id="InOp_Zero-to-InOp_One" style="stroke:#181818;stroke-width:1.0;"/><polygon fill="#181818" points="243.97,502.38,249.2397,494.0595,244.6991,497.4334,241.3252,492.8929,243.97,502.38" style="stroke:#181818;stroke-width:1.0;"/><text fill="#000000" font-family="sans-serif" font-size="13" lengthAdjust="spacing" textLength="56" x="261" y="464.4951">Execute↑</text></g><!--MD5=[c4ea744261bc53b45ba550fab7c48903]
link InOp_Zero to Error--><g id="link_InOp_Zero_Error"><path d="M367.62,411.9 C432.11,442.09 545.78,495.39 550,498 C567.34,508.75 586,506.09 586,526.5 C586,526.5 586,526.5 586,802.5 C586,840.56 570,881.81 557.29,908.57 " fill="none" id="InOp_Zero-to-Error" style="stroke:#181818;stroke-width:1.0;"/><polygon fill="#181818" points="554.96,913.39,562.4738,907.0227,557.1329,908.8869,555.2688,903.546,554.96,913.39" style="stroke:#181818;stroke-width:1.0;"/><text fill="#000000" font-family="sans-serif" font-size="13" lengthAdjust="spacing" textLength="48" x="587" y="669.9951">SetError</text></g><!--MD5=[4361f44b30d4ac05a8f12f1fb91676c4]
link InOp_One to Init--><g id="link_InOp_One_Init"><path d="M240.85,502.29 C239.64,469.97 238.58,410.99 244,361 C246.86,334.59 253.22,305.03 258.37,283.77 " fill="none" id="InOp_One-to-Init" style="stroke:#181818;stroke-width:1.0;"/><polygon fill="#181818" points="259.59,278.82,253.5481,286.5979,258.3908,283.6741,261.3146,288.5167,259.59,278.82" style="stroke:#181818;stroke-width:1.0;"/><text fill="#000000" font-family="sans-serif" font-size="13" lengthAdjust="spacing" textLength="17" x="245" y="395.9951">Init</text></g><!--MD5=[63d5afd0354eeb1a702816c9ad919628]
link InOp_One to InOp_Two--><g id="link_InOp_One_InOp_Two"><path d="M221.54,552.56 C213.19,562.86 203.71,575.21 196,587 C186.07,602.18 176.41,620 168.97,634.62 " fill="none" id="InOp_One-to-InOp_Two" style="stroke:#181818;stroke-width:1.0;"/><polygon fill="#181818" points="166.53,639.45,174.1565,633.2181,168.7832,634.9865,167.0149,629.6131,166.53,639.45" style="stroke:#181818;stroke-width:1.0;"/><text fill="#000000" font-family="sans-serif" font-size="13" lengthAdjust="spacing" textLength="56" x="197" y="601.4951">Execute↑</text></g><!--MD5=[ff86770d959e760eca4d03cdb147f79f]
link InOp_One to Error--><g id="link_InOp_One_Error"><path d="M254.69,552.74 C265.06,570.07 281.37,592.48 302,605 C363.85,642.54 409,585.75 462,635 C502.24,672.39 528.83,839.48 538.22,908.02 " fill="none" id="InOp_One-to-Error" style="stroke:#181818;stroke-width:1.0;"/><polygon fill="#181818" points="538.92,913.17,541.6758,903.7146,538.2489,908.2152,533.7482,904.7883,538.92,913.17" style="stroke:#181818;stroke-width:1.0;"/><text fill="#000000" font-family="sans-serif" font-size="13" lengthAdjust="spacing" textLength="48" x="508" y="738.4951">SetError</text></g><!--MD5=[1d1423255814567190b6ca4c30f95a3b]
link InOp_Two to Init--><g id="link_InOp_Two_Init"><path d="M157.8,639.44 C161.82,607.03 170.09,547.69 182,498 C202.11,414.07 210.9,393.88 241,313 C244.61,303.3 248.92,292.87 252.94,283.54 " fill="none" id="InOp_Two-to-Init" style="stroke:#181818;stroke-width:1.0;"/><polygon fill="#181818" points="255.02,278.77,247.7731,285.4395,253.0332,283.3583,255.1143,288.6184,255.02,278.77" style="stroke:#181818;stroke-width:1.0;"/><text fill="#000000" font-family="sans-serif" font-size="13" lengthAdjust="spacing" textLength="17" x="195" y="464.4951">Init</text></g><!--MD5=[dd62fb2a7ce0a1f25906378339cfba71]
link InOp_Two to InOp_Three--><g id="link_InOp_Two_InOp_Three"><path d="M137.12,689.64 C120.02,712.72 94.23,747.54 76.12,771.98 " fill="none" id="InOp_Two-to-InOp_Three" style="stroke:#181818;stroke-width:1.0;"/><polygon fill="#181818" points="73.06,776.12,81.6296,771.266,76.0348,772.1012,75.1995,766.5063,73.06,776.12" style="stroke:#181818;stroke-width:1.0;"/><text fill="#000000" font-family="sans-serif" font-size="13" lengthAdjust="spacing" textLength="56" x="112" y="738.4951">Execute↑</text></g><!--MD5=[85189c1201fdfad22fdb629b930625d4]
link InOp_Two to Error--><g id="link_InOp_Two_Error"><path d="M189.34,689.64 C264.07,742.16 440.4,866.09 511.5,916.06 " fill="none" id="InOp_Two-to-Error" style="stroke:#181818;stroke-width:1.0;"/><polygon fill="#181818" points="515.62,918.96,510.5566,910.5124,511.5292,916.085,505.9566,917.0576,515.62,918.96" style="stroke:#181818;stroke-width:1.0;"/><text fill="#000000" font-family="sans-serif" font-size="13" lengthAdjust="spacing" textLength="48" x="388" y="806.9951">SetError</text></g><!--MD5=[aa37c93deb56fec00692a7ea91648c63]
link InOp_Three to Init--><g id="link_InOp_Three_Init"><path d="M55,776.11 C55,749.08 55,704.17 55,665.5 C55,389.5 55,389.5 55,389.5 C55,304.65 177.57,270.72 235.87,259.38 " fill="none" id="InOp_Three-to-Init" style="stroke:#181818;stroke-width:1.0;"/><polygon fill="#181818" points="240.97,258.41,231.3838,256.1506,236.0569,259.3383,232.8692,264.0115,240.97,258.41" style="stroke:#181818;stroke-width:1.0;"/><text fill="#000000" font-family="sans-serif" font-size="13" lengthAdjust="spacing" textLength="17" x="56" y="532.9951">Init</text></g><!--MD5=[9a5d6b86a86f80139d848d93b48136e9]
link InOp_Three to InOp_Zero--><g id="link_InOp_Three_InOp_Zero"><path d="M103.18,778.69 C134.47,764.31 170.59,747.19 177,742 C254.12,679.56 263.72,648.55 302,557 C320.79,512.07 324.39,454.83 324.65,420.79 " fill="none" id="InOp_Three-to-InOp_Zero" style="stroke:#181818;stroke-width:1.0;"/><polygon fill="#181818" points="324.66,415.53,320.6343,424.5185,324.6457,420.53,328.6343,424.5414,324.66,415.53" style="stroke:#181818;stroke-width:1.0;"/><text fill="#000000" font-family="sans-serif" font-size="13" lengthAdjust="spacing" textLength="56" x="290" y="601.4951">Execute↑</text></g><!--MD5=[06162770167a3902f1df0af3c1ff5389]
link InOp_Three to Error--><g id="link_InOp_Three_Error"><path d="M103.07,823.94 C109.07,826.41 115.15,828.83 121,831 C187.8,855.83 204.43,863.55 274,879 C372.05,900.78 403.78,874.18 498,909 C502.39,910.62 506.79,912.74 511.02,915.09 " fill="none" id="InOp_Three-to-Error" style="stroke:#181818;stroke-width:1.0;"/><polygon fill="#181818" points="515.53,917.72,509.7879,909.7182,511.2163,915.1918,505.7427,916.6201,515.53,917.72" style="stroke:#181818;stroke-width:1.0;"/><text fill="#000000" font-family="sans-serif" font-size="13" lengthAdjust="spacing" textLength="48" x="275" y="875.4951">SetError</text></g><!--MD5=[7d364e43dace9a2f8df92504d800134c]
link Error to Idle--><g id="link_Error_Idle"><path d="M568.05,934.82 C629.23,926.94 777,898.01 777,802.5 C777,252.5 777,252.5 777,252.5 C777,192.21 708.88,150.17 668.01,130.38 " fill="none" id="Error-to-Idle" style="stroke:#181818;stroke-width:1.0;"/><polygon fill="#181818" points="663.17,128.08,669.5852,135.553,667.6869,130.2241,673.0158,128.3259,663.17,128.08" style="stroke:#181818;stroke-width:1.0;"/><text fill="#000000" font-family="sans-serif" font-size="13" lengthAdjust="spacing" textLength="59" x="778" y="532.9951">Execute⓪</text></g><!--MD5=[a9bcb8fe63e7614509686379efd211e2]
@startuml

[*] - -> Idle
Idle - -> Init : Execute↑
note left of Idle
    InOperation := FALSE
    Active := FALSE
    Error := FALSE
end note

Init - -> Error : SetError
Init - -> InOp_Zero
note right of Init
    InOperation := FALSE
    Active := TRUE
    Error := FALSE
end note

InOp_Zero - -> Init : Init
InOp_Zero - -> InOp_One : Execute↑
InOp_Zero - -> Error : SetError
note right of InOp_Zero
    InOperation := TRUE
    Active := TRUE
    Error := FALSE
end note

InOp_One - -> Init : Init
InOp_One - -> InOp_Two : Execute↑
InOp_One - -> Error : SetError
note right of InOp_One
    InOperation := TRUE
    Active := TRUE
    Error := FALSE
end note

InOp_Two - -> Init : Init
InOp_Two - -> InOp_Three : Execute↑
InOp_Two - -> Error : SetError
note right of InOp_Two
    InOperation := TRUE
    Active := TRUE
    Error := FALSE
end note

InOp_Three - -> Init : Init
InOp_Three - -> InOp_Zero : Execute↑
InOp_Three - -> Error : SetError
note right of InOp_Three
    InOperation := TRUE
    Active := TRUE
    Error := FALSE
end note


Error - -> Idle : Execute⓪
note left of Error
    InOperation := FALSE
    Active := TRUE
    Error := TRUE
end note


@enduml

PlantUML version 1.2022.7(Mon Aug 22 19:01:30 CEST 2022)
(GPL source distribution)
Java Runtime: Java(TM) SE Runtime Environment
JVM: Java HotSpot(TM) 64-Bit Server VM
Default Encoding: Cp1252
Language: en
Country: US
--></g></svg>