<?xml version="1.0" encoding="UTF-8" standalone="no"?><svg xmlns="http://www.w3.org/2000/svg" xmlns:xlink="http://www.w3.org/1999/xlink" contentStyleType="text/css" height="415px" preserveAspectRatio="none" style="width:227px;height:415px;background:#FFFFFF;" version="1.1" viewBox="0 0 227 415" width="227px" zoomAndPan="magnify"><defs/><g><ellipse cx="100" cy="20" fill="#222222" rx="10" ry="10" style="stroke:#222222;stroke-width:1.0;"/><rect fill="#F1F1F1" height="35.0938" rx="12.5" ry="12.5" style="stroke:#181818;stroke-width:0.5;" width="104" x="48" y="50"/><text fill="#000000" font-family="sans-serif" font-size="12" lengthAdjust="spacing" textLength="81" x="61" y="72.457">diNumber  := 2</text><rect fill="#F1F1F1" height="35.0938" rx="12.5" ry="12.5" style="stroke:#181818;stroke-width:0.5;" width="107" x="46.5" y="105.0938"/><text fill="#000000" font-family="sans-serif" font-size="12" lengthAdjust="spacing" textLength="84" x="59.5" y="127.5508">diCounter := 21</text><rect fill="#F1F1F1" height="35.0938" rx="12.5" ry="12.5" style="stroke:#181818;stroke-width:0.5;" width="161" x="19.5" y="215.2813"/><text fill="#000000" font-family="sans-serif" font-size="12" lengthAdjust="spacing" textLength="141" x="29.5" y="237.7383">diCounter := diCounter - 1</text><rect fill="#F1F1F1" height="35.0938" rx="12.5" ry="12.5" style="stroke:#181818;stroke-width:0.5;" width="178" x="11" y="160.1875"/><text fill="#000000" font-family="sans-serif" font-size="12" lengthAdjust="spacing" textLength="158" x="21" y="182.6445">diNumber1 := diNumber1 * 2</text><polygon fill="#F1F1F1" points="68,270.375,132,270.375,144,282.375,132,294.375,68,294.375,56,282.375,68,270.375" style="stroke:#181818;stroke-width:0.5;"/><text fill="#000000" font-family="sans-serif" font-size="11" lengthAdjust="spacing" textLength="18" x="104" y="305.7939">yes</text><text fill="#000000" font-family="sans-serif" font-size="11" lengthAdjust="spacing" textLength="64" x="68" y="286.876">diCounter = 0</text><text fill="#000000" font-family="sans-serif" font-size="11" lengthAdjust="spacing" textLength="12" x="144" y="279.958">no</text><rect fill="#F1F1F1" height="35.0938" rx="12.5" ry="12.5" style="stroke:#181818;stroke-width:0.5;" width="140" x="30" y="327.2939"/><text fill="#000000" font-family="sans-serif" font-size="12" lengthAdjust="spacing" textLength="117" x="43" y="349.751">diResult := diNumber</text><ellipse cx="100" cy="393.3877" fill="none" rx="11" ry="11" style="stroke:#222222;stroke-width:1.0;"/><ellipse cx="100" cy="393.3877" fill="#222222" rx="6" ry="6" style="stroke:#111111;stroke-width:1.0;"/><line style="stroke:#181818;stroke-width:1.0;" x1="100" x2="100" y1="30" y2="50"/><polygon fill="#181818" points="96,40,100,50,104,40,100,44" style="stroke:#181818;stroke-width:1.0;"/><line style="stroke:#181818;stroke-width:1.0;" x1="100" x2="100" y1="85.0938" y2="105.0938"/><polygon fill="#181818" points="96,95.0938,100,105.0938,104,95.0938,100,99.0938" style="stroke:#181818;stroke-width:1.0;"/><line style="stroke:#181818;stroke-width:1.0;" x1="100" x2="100" y1="195.2813" y2="215.2813"/><polygon fill="#181818" points="96,205.2813,100,215.2813,104,205.2813,100,209.2813" style="stroke:#181818;stroke-width:1.0;"/><line style="stroke:#181818;stroke-width:1.0;" x1="144" x2="201" y1="282.375" y2="282.375"/><polygon fill="#181818" points="197,240.0547,201,230.0547,205,240.0547,201,236.0547" style="stroke:#181818;stroke-width:1.0;"/><line style="stroke:#181818;stroke-width:1.0;" x1="201" x2="201" y1="177.7344" y2="282.375"/><line style="stroke:#181818;stroke-width:1.0;" x1="201" x2="189" y1="177.7344" y2="177.7344"/><polygon fill="#181818" points="199,173.7344,189,177.7344,199,181.7344,195,177.7344" style="stroke:#181818;stroke-width:1.0;"/><line style="stroke:#181818;stroke-width:1.0;" x1="100" x2="100" y1="250.375" y2="270.375"/><polygon fill="#181818" points="96,260.375,100,270.375,104,260.375,100,264.375" style="stroke:#181818;stroke-width:1.0;"/><line style="stroke:#181818;stroke-width:1.0;" x1="100" x2="100" y1="140.1875" y2="160.1875"/><polygon fill="#181818" points="96,150.1875,100,160.1875,104,150.1875,100,154.1875" style="stroke:#181818;stroke-width:1.0;"/><line style="stroke:#181818;stroke-width:1.0;" x1="100" x2="100" y1="294.375" y2="327.2939"/><polygon fill="#181818" points="96,317.2939,100,327.2939,104,317.2939,100,321.2939" style="stroke:#181818;stroke-width:1.0;"/><line style="stroke:#181818;stroke-width:1.0;" x1="100" x2="100" y1="362.3877" y2="382.3877"/><polygon fill="#181818" points="96,372.3877,100,382.3877,104,372.3877,100,376.3877" style="stroke:#181818;stroke-width:1.0;"/><!--MD5=[8e8b516631d05c85f4778643880ab823]
@startuml

start
: diNumber  := 2;
: diCounter := 21;
repeat :diNumber1 := diNumber1 * 2;
       :diCounter := diCounter - 1;  
repeat while (diCounter = 0)  is (no) not (yes)
: diResult := diNumber;
stop

@enduml

PlantUML version 1.2022.7(Mon Aug 22 19:01:30 CEST 2022)
(GPL source distribution)
Java Runtime: Java(TM) SE Runtime Environment
JVM: Java HotSpot(TM) 64-Bit Server VM
Default Encoding: Cp1252
Language: en
Country: US
--></g></svg>