<?xml version="1.0" encoding="UTF-8" standalone="no"?><svg xmlns="http://www.w3.org/2000/svg" xmlns:xlink="http://www.w3.org/1999/xlink" contentStyleType="text/css" height="215px" preserveAspectRatio="none" style="width:405px;height:215px;background:#FFFFFF;" version="1.1" viewBox="0 0 405 215" width="405px" zoomAndPan="magnify"><defs/><g><ellipse cx="207.5" cy="20" fill="#222222" rx="10" ry="10" style="stroke:#222222;stroke-width:1.0;"/><polygon fill="#F1F1F1" points="36,50,100,50,112,62,100,74,36,74,24,62,36,50" style="stroke:#181818;stroke-width:0.5;"/><text fill="#000000" font-family="sans-serif" font-size="11" lengthAdjust="spacing" textLength="18" x="72" y="85.4189">yes</text><text fill="#000000" font-family="sans-serif" font-size="11" lengthAdjust="spacing" textLength="64" x="36" y="66.501">xMyCondition</text><rect fill="#F1F1F1" height="35.0938" rx="12.5" ry="12.5" style="stroke:#181818;stroke-width:0.5;" width="114" x="11" y="107.8359"/><text fill="#000000" font-family="sans-serif" font-size="12" lengthAdjust="spacing" textLength="94" x="21" y="130.293">diToRegister := 7</text><polygon fill="#F1F1F1" points="157,50,258,50,270,62,258,74,157,74,145,62,157,50" style="stroke:#181818;stroke-width:0.5;"/><text fill="#000000" font-family="sans-serif" font-size="11" lengthAdjust="spacing" textLength="18" x="211.5" y="85.4189">yes</text><text fill="#000000" font-family="sans-serif" font-size="11" lengthAdjust="spacing" textLength="101" x="157" y="66.501">xMySecondCondition</text><rect fill="#F1F1F1" height="35.0938" rx="12.5" ry="12.5" style="stroke:#181818;stroke-width:0.5;" width="121" x="147" y="107.8359"/><text fill="#000000" font-family="sans-serif" font-size="12" lengthAdjust="spacing" textLength="101" x="157" y="130.293">diToRegister := 14</text><rect fill="#F1F1F1" height="35.0938" rx="12.5" ry="12.5" style="stroke:#181818;stroke-width:0.5;" width="114" x="280" y="103.918"/><text fill="#000000" font-family="sans-serif" font-size="12" lengthAdjust="spacing" textLength="94" x="290" y="126.375">diToRegister := 0</text><ellipse cx="207.5" cy="193.9297" fill="none" rx="11" ry="11" style="stroke:#222222;stroke-width:1.0;"/><ellipse cx="207.5" cy="193.9297" fill="#222222" rx="6" ry="6" style="stroke:#111111;stroke-width:1.0;"/><line style="stroke:#181818;stroke-width:1.0;" x1="68" x2="68" y1="74" y2="107.8359"/><polygon fill="#181818" points="64,97.8359,68,107.8359,72,97.8359,68,101.8359" style="stroke:#181818;stroke-width:1.0;"/><line style="stroke:#181818;stroke-width:1.0;" x1="68" x2="68" y1="142.9297" y2="162.9297"/><polygon fill="#181818" points="64,152.9297,68,162.9297,72,152.9297,68,156.9297" style="stroke:#181818;stroke-width:1.0;"/><line style="stroke:#181818;stroke-width:1.0;" x1="207.5" x2="207.5" y1="74" y2="107.8359"/><polygon fill="#181818" points="203.5,97.8359,207.5,107.8359,211.5,97.8359,207.5,101.8359" style="stroke:#181818;stroke-width:1.0;"/><line style="stroke:#181818;stroke-width:1.0;" x1="207.5" x2="207.5" y1="142.9297" y2="182.9297"/><polygon fill="#181818" points="203.5,172.9297,207.5,182.9297,211.5,172.9297,207.5,176.9297" style="stroke:#181818;stroke-width:1.0;"/><line style="stroke:#181818;stroke-width:1.0;" x1="112" x2="145" y1="62" y2="62"/><polygon fill="#181818" points="135,58,145,62,135,66,139,62" style="stroke:#181818;stroke-width:1.0;"/><line style="stroke:#181818;stroke-width:1.0;" x1="207.5" x2="207.5" y1="30" y2="35"/><line style="stroke:#181818;stroke-width:1.0;" x1="207.5" x2="68" y1="35" y2="35"/><line style="stroke:#181818;stroke-width:1.0;" x1="68" x2="68" y1="35" y2="50"/><polygon fill="#181818" points="64,40,68,50,72,40,68,44" style="stroke:#181818;stroke-width:1.0;"/><line style="stroke:#181818;stroke-width:1.0;" x1="270" x2="337" y1="62" y2="62"/><line style="stroke:#181818;stroke-width:1.0;" x1="337" x2="337" y1="62" y2="103.918"/><polygon fill="#181818" points="333,93.918,337,103.918,341,93.918,337,97.918" style="stroke:#181818;stroke-width:1.0;"/><line style="stroke:#181818;stroke-width:1.0;" x1="337" x2="337" y1="139.0117" y2="162.9297"/><polygon fill="#181818" points="333,152.9297,337,162.9297,341,152.9297,337,156.9297" style="stroke:#181818;stroke-width:1.0;"/><line style="stroke:#181818;stroke-width:1.0;" x1="68" x2="337" y1="162.9297" y2="162.9297"/><!--MD5=[5559b0a78aab215981741e6897b5781f]
@startuml
start
if (xMyCondition) then (yes)
  :diToRegister := 7;
elseif (xMySecondCondition) then (yes)
  :diToRegister := 14;
else
  :diToRegister := 0;
endif
stop
@enduml

PlantUML version 1.2022.7(Mon Aug 22 19:01:30 CEST 2022)
(GPL source distribution)
Java Runtime: Java(TM) SE Runtime Environment
JVM: Java HotSpot(TM) 64-Bit Server VM
Default Encoding: Cp1252
Language: en
Country: US
--></g></svg>