<?xml version="1.0" encoding="UTF-8" standalone="no"?><svg xmlns="http://www.w3.org/2000/svg" xmlns:xlink="http://www.w3.org/1999/xlink" contentStyleType="text/css" height="159px" preserveAspectRatio="none" style="width:507px;height:159px;background:#FFFFFF;" version="1.1" viewBox="0 0 507 159" width="507px" zoomAndPan="magnify"><defs/><g><g id="elem_BaseObject"><rect fill="#F1F1F1" height="37.6094" style="stroke:#181818;stroke-width:0.5;" width="87" x="58.5" y="7"/><text fill="#000000" font-family="sans-serif" font-size="14" lengthAdjust="spacing" textLength="73" x="65.5" y="23.5332">BaseObject</text><line style="stroke:#181818;stroke-width:0.5;" x1="59.5" x2="144.5" y1="28.6094" y2="28.6094"/></g><g id="elem_Composition"><rect fill="#F1F1F1" height="37.6094" style="stroke:#181818;stroke-width:0.5;" width="92" x="262" y="7"/><text fill="#000000" font-family="sans-serif" font-size="14" lengthAdjust="spacing" textLength="78" x="269" y="23.5332">Composition</text><line style="stroke:#181818;stroke-width:0.5;" x1="263" x2="353" y1="28.6094" y2="28.6094"/></g><g id="elem_Agregation"><rect fill="#F1F1F1" height="37.6094" style="stroke:#181818;stroke-width:0.5;" width="83" x="418.5" y="109.5"/><text fill="#000000" font-family="sans-serif" font-size="14" lengthAdjust="spacing" textLength="69" x="425.5" y="126.0332">Agregation</text><line style="stroke:#181818;stroke-width:0.5;" x1="419.5" x2="500.5" y1="131.1094" y2="131.1094"/></g><g id="elem_Inheritance"><rect fill="#F1F1F1" height="47.2188" style="stroke:#181818;stroke-width:0.5;" width="190" x="7" y="105"/><text fill="#000000" font-family="sans-serif" font-size="14" lengthAdjust="spacing" textLength="70" x="67" y="121.5332">Inheritance</text><line style="stroke:#181818;stroke-width:0.5;" x1="8" x2="196" y1="126.6094" y2="126.6094"/><text fill="#000000" font-family="sans-serif" font-size="14" lengthAdjust="spacing" textLength="178" x="13" y="145.1426">encoder_2 : ST_ENCODER;</text></g><g id="elem_AddSomeInfo"><rect fill="#F1F1F1" height="47.2188" style="stroke:#181818;stroke-width:0.5;" width="151" x="232.5" y="105"/><text fill="#000000" font-family="sans-serif" font-size="14" lengthAdjust="spacing" textLength="84" x="266" y="121.5332">AddSomeInfo</text><line style="stroke:#181818;stroke-width:0.5;" x1="233.5" x2="382.5" y1="126.6094" y2="126.6094"/><text fill="#000000" font-family="sans-serif" font-size="14" lengthAdjust="spacing" textLength="139" x="238.5" y="145.1426">digitalInput_2 : BOOL;</text></g><g id="elem_IN_OUT"><rect fill="#F1F1F1" height="37.6094" style="stroke:#181818;stroke-width:0.5;" width="63" x="428.5" y="7"/><text fill="#000000" font-family="sans-serif" font-size="14" lengthAdjust="spacing" textLength="49" x="435.5" y="23.5332">IN_OUT</text><line style="stroke:#181818;stroke-width:0.5;" x1="429.5" x2="490.5" y1="28.6094" y2="28.6094"/></g><!--MD5=[96464f2ac496549bb7ee3374c966d9b8]
reverse link BaseObject to Inheritance--><g id="link_BaseObject_Inheritance"><path codeLine="10" d="M102,65.46 C102,78.8 102,93.32 102,104.96 " fill="none" id="BaseObject-backto-Inheritance" style="stroke:#181818;stroke-width:1.0;"/><polygon fill="none" points="95,65.43,102,45.43,109,65.43,95,65.43" style="stroke:#181818;stroke-width:1.0;"/></g><!--MD5=[ce612006ec51a38c049d3f59a5130ccd]
reverse link Composition to AddSomeInfo--><g id="link_Composition_AddSomeInfo"><path codeLine="11" d="M308,58.82 C308,73.82 308,91.36 308,104.96 " fill="none" id="Composition-backto-AddSomeInfo" style="stroke:#181818;stroke-width:1.0;"/><polygon fill="#181818" points="308,45.43,304,51.43,308,57.43,312,51.43,308,45.43" style="stroke:#181818;stroke-width:1.0;"/></g><!--MD5=[d9f90d5a276d120669bda89d8ecabf98]
reverse link IN_OUT to Agregation--><g id="link_IN_OUT_Agregation"><path codeLine="12" d="M460,58.48 C460,75.16 460,95.05 460,109.18 " fill="none" id="IN_OUT-backto-Agregation" style="stroke:#181818;stroke-width:1.0;"/><polygon fill="none" points="460,45.43,456,51.43,460,57.43,464,51.43,460,45.43" style="stroke:#181818;stroke-width:1.0;"/></g><!--MD5=[6d4b447821d98aa758c8a943f2a5d713]
@startuml
object BaseObject
object Composition
object Agregation
object Inheritance
Inheritance : encoder_2 : ST_ENCODER;
object AddSomeInfo
AddSomeInfo : digitalInput_2 : BOOL;
object IN_OUT

BaseObject <|- - Inheritance
Composition *- - AddSomeInfo
IN_OUT o- - Agregation
@enduml

PlantUML version 1.2022.7(Mon Aug 22 19:01:30 CEST 2022)
(GPL source distribution)
Java Runtime: Java(TM) SE Runtime Environment
JVM: Java HotSpot(TM) 64-Bit Server VM
Default Encoding: Cp1252
Language: en
Country: US
--></g></svg>