<?xml version="1.0" encoding="UTF-8" standalone="no"?><svg xmlns="http://www.w3.org/2000/svg" xmlns:xlink="http://www.w3.org/1999/xlink" contentStyleType="text/css" height="264px" preserveAspectRatio="none" style="width:1318px;height:264px;background:#FFFFFF;" version="1.1" viewBox="0 0 1318 264" width="1318px" zoomAndPan="magnify"><defs/><g><ellipse cx="109.5" cy="16" fill="#222222" rx="10" ry="10" style="stroke:none;stroke-width:1.0;"/><g id="CLOSE_DOOR"><rect fill="#F1F1F1" height="72.8281" rx="12.5" ry="12.5" style="stroke:#181818;stroke-width:0.5;" width="205" x="7" y="104"/><line style="stroke:#181818;stroke-width:0.5;" x1="7" x2="212" y1="131.6094" y2="131.6094"/><text fill="#000000" font-family="sans-serif" font-size="14" lengthAdjust="spacing" textLength="97" x="61" y="123.5332">CLOSE_DOOR</text><text fill="#000000" font-family="sans-serif" font-size="14" lengthAdjust="spacing" textLength="145" x="12" y="151.1426">xMyCondition := TRUE;</text><text fill="#000000" font-family="sans-serif" font-size="14" lengthAdjust="spacing" textLength="185" x="12" y="168.752">xMyThirdCondition := FALSE;</text></g><g id="WAIT_DOOR_CLOSED"><rect fill="#F1F1F1" height="72.8281" rx="12.5" ry="12.5" style="stroke:#181818;stroke-width:0.5;" width="220" x="291.5" y="104"/><line style="stroke:#181818;stroke-width:0.5;" x1="291.5" x2="511.5" y1="131.6094" y2="131.6094"/><text fill="#000000" font-family="sans-serif" font-size="14" lengthAdjust="spacing" textLength="149" x="327" y="123.5332">WAIT_DOOR_CLOSED</text><text fill="#000000" font-family="sans-serif" font-size="14" lengthAdjust="spacing" textLength="200" x="296.5" y="151.1426">xMySecondCondition := FALSE;</text><text fill="#000000" font-family="sans-serif" font-size="14" lengthAdjust="spacing" textLength="178" x="296.5" y="168.752">xMyThirdCondition := TRUE;</text></g><g id="DOOR_CLOSED"><rect fill="#F1F1F1" height="72.8281" rx="12.5" ry="12.5" style="stroke:#181818;stroke-width:0.5;" width="190" x="590.5" y="104"/><line style="stroke:#181818;stroke-width:0.5;" x1="590.5" x2="780.5" y1="131.6094" y2="131.6094"/><text fill="#000000" font-family="sans-serif" font-size="14" lengthAdjust="spacing" textLength="107" x="632" y="123.5332">DOOR_CLOSED</text><text fill="#000000" font-family="sans-serif" font-size="14" lengthAdjust="spacing" textLength="145" x="595.5" y="151.1426">xMyCondition := TRUE;</text><text fill="#000000" font-family="sans-serif" font-size="14" lengthAdjust="spacing" textLength="170" x="595.5" y="168.752">xMyThirdCondition= TRUE;</text></g><g id="DOOR_POSITION_UNKNOWN"><rect fill="#F1F1F1" height="72.8281" rx="12.5" ry="12.5" style="stroke:#181818;stroke-width:0.5;" width="421" x="890" y="104"/><line style="stroke:#181818;stroke-width:0.5;" x1="890" x2="1311" y1="131.6094" y2="131.6094"/><text fill="#000000" font-family="sans-serif" font-size="14" lengthAdjust="spacing" textLength="191" x="1005" y="123.5332">DOOR_POSITION_UNKNOWN</text><text fill="#000000" font-family="sans-serif" font-size="14" lengthAdjust="spacing" textLength="225" x="895" y="151.1426">xMyCondition := NOT xMyCondition;</text><text fill="#000000" font-family="sans-serif" font-size="14" lengthAdjust="spacing" textLength="401" x="895" y="168.752">xMySecondCondition := xMyCondition OR xMySecondCondition;</text></g><ellipse cx="1100.5" cy="248" fill="none" rx="10" ry="10" style="stroke:#222222;stroke-width:1.0;"/><ellipse cx="1101" cy="248.5" fill="#222222" rx="6" ry="6" style="stroke:none;stroke-width:1.0;"/><!--MD5=[c08152a2caf8dc4a7d36272dbf4dae90]
link *start to CLOSE_DOOR--><g id="link_*start_CLOSE_DOOR"><path d="M109.5,26.21 C109.5,41.49 109.5,72.99 109.5,98.9 " fill="none" id="*start-to-CLOSE_DOOR" style="stroke:#181818;stroke-width:1.0;"/><polygon fill="#181818" points="109.5,104,113.5,95,109.5,99,105.5,95,109.5,104" style="stroke:#181818;stroke-width:1.0;"/><text fill="#000000" font-family="sans-serif" font-size="13" lengthAdjust="spacing" textLength="59" x="110.5" y="70.4951">Door open</text></g><!--MD5=[171a3ad1eebc954f84ff6a96c8cddaa3]
link CLOSE_DOOR to WAIT_DOOR_CLOSED--><g id="link_CLOSE_DOOR_WAIT_DOOR_CLOSED"><path d="M212.04,140.5 C235.97,140.5 261.62,140.5 286.07,140.5 " fill="none" id="CLOSE_DOOR-to-WAIT_DOOR_CLOSED" style="stroke:#181818;stroke-width:1.0;"/><polygon fill="#181818" points="291.27,140.5,282.27,136.5,286.27,140.5,282.27,144.5,291.27,140.5" style="stroke:#181818;stroke-width:1.0;"/><text fill="#000000" font-family="sans-serif" font-size="13" lengthAdjust="spacing" textLength="43" x="230.25" y="133.9951">Closing</text></g><!--MD5=[023f02b36fc251899c65b9c57ab072c6]
link WAIT_DOOR_CLOSED to DOOR_CLOSED--><g id="link_WAIT_DOOR_CLOSED_DOOR_CLOSED"><path d="M511.71,140.5 C535.87,140.5 561.33,140.5 585.09,140.5 " fill="none" id="WAIT_DOOR_CLOSED-to-DOOR_CLOSED" style="stroke:#181818;stroke-width:1.0;"/><polygon fill="#181818" points="590.13,140.5,581.13,136.5,585.13,140.5,581.13,144.5,590.13,140.5" style="stroke:#181818;stroke-width:1.0;"/><text fill="#000000" font-family="sans-serif" font-size="13" lengthAdjust="spacing" textLength="42" x="530" y="133.9951">Locked</text></g><!--MD5=[180c5d0d17a22e2d790b64628f0ea287]
link CLOSE_DOOR to DOOR_POSITION_UNKNOWN--><g id="link_CLOSE_DOOR_DOOR_POSITION_UNKNOWN"><path d="M195.03,103.98 C232.89,89.72 278.4,75.1 321,68 C425.65,50.56 692.55,81.35 884.89,108.04 " fill="none" id="CLOSE_DOOR-to-DOOR_POSITION_UNKNOWN" style="stroke:#181818;stroke-width:1.0;"/><polygon fill="#181818" points="889.99,108.75,881.623,103.5545,885.0372,108.0649,880.5268,111.4791,889.99,108.75" style="stroke:#181818;stroke-width:1.0;"/><text fill="#000000" font-family="sans-serif" font-size="13" lengthAdjust="spacing" textLength="73" x="322" y="70.4951">Sensor Error</text></g><!--MD5=[1aa4abb1091e1b0196aa157a66ddd4f4]
link WAIT_DOOR_CLOSED to DOOR_POSITION_UNKNOWN--><g id="link_WAIT_DOOR_CLOSED_DOOR_POSITION_UNKNOWN"><path d="M507.96,103.95 C554.89,89.68 611.07,75.07 663,68 C773.06,53.03 898.02,77.96 986.13,102.57 " fill="none" id="WAIT_DOOR_CLOSED-to-DOOR_POSITION_UNKNOWN" style="stroke:#181818;stroke-width:1.0;"/><polygon fill="#181818" points="991.09,103.96,983.5129,97.6681,986.2776,102.6034,981.3423,105.368,991.09,103.96" style="stroke:#181818;stroke-width:1.0;"/><text fill="#000000" font-family="sans-serif" font-size="13" lengthAdjust="spacing" textLength="73" x="664" y="70.4951">Sensor Error</text></g><!--MD5=[6ec1907d660eb76007fa6ede0aaf2345]
link DOOR_CLOSED to DOOR_POSITION_UNKNOWN--><g id="link_DOOR_CLOSED_DOOR_POSITION_UNKNOWN"><path d="M780.71,140.5 C811.96,140.5 848.07,140.5 884.52,140.5 " fill="none" id="DOOR_CLOSED-to-DOOR_POSITION_UNKNOWN" style="stroke:#181818;stroke-width:1.0;"/><polygon fill="#181818" points="889.91,140.5,880.91,136.5,884.91,140.5,880.91,144.5,889.91,140.5" style="stroke:#181818;stroke-width:1.0;"/><text fill="#000000" font-family="sans-serif" font-size="13" lengthAdjust="spacing" textLength="73" x="798.75" y="133.9951">Sensor Error</text></g><!--MD5=[61e59bcc19cd3e6b15804c89107c293a]
link DOOR_POSITION_UNKNOWN to *end--><g id="link_DOOR_POSITION_UNKNOWN_*end"><path d="M1100.5,177.22 C1100.5,196.22 1100.5,218.52 1100.5,232.7 " fill="none" id="DOOR_POSITION_UNKNOWN-to-*end" style="stroke:#181818;stroke-width:1.0;"/><polygon fill="#181818" points="1100.5,237.89,1104.5,228.89,1100.5,232.89,1096.5,228.89,1100.5,237.89" style="stroke:#181818;stroke-width:1.0;"/></g><!--MD5=[48f48ab20708d26260dfc39f80838717]
@startuml

[*] - -> CLOSE_DOOR : Door open
CLOSE_DOOR : xMyCondition := TRUE; 
CLOSE_DOOR : xMyThirdCondition := FALSE; 
CLOSE_DOOR -> WAIT_DOOR_CLOSED : Closing 
WAIT_DOOR_CLOSED : xMySecondCondition := FALSE; 
WAIT_DOOR_CLOSED : xMyThirdCondition := TRUE; 
WAIT_DOOR_CLOSED -> DOOR_CLOSED : Locked
DOOR_CLOSED : xMyCondition := TRUE; 
DOOR_CLOSED : xMyThirdCondition= TRUE; 
CLOSE_DOOR -> DOOR_POSITION_UNKNOWN : Sensor Error
WAIT_DOOR_CLOSED -> DOOR_POSITION_UNKNOWN : Sensor Error
DOOR_CLOSED -> DOOR_POSITION_UNKNOWN : Sensor Error
DOOR_POSITION_UNKNOWN : xMyCondition := NOT xMyCondition; 
DOOR_POSITION_UNKNOWN : xMySecondCondition := xMyCondition OR xMySecondCondition; 
DOOR_POSITION_UNKNOWN - -> [*]
@enduml

PlantUML version 1.2022.7(Mon Aug 22 19:01:30 CEST 2022)
(GPL source distribution)
Java Runtime: Java(TM) SE Runtime Environment
JVM: Java HotSpot(TM) 64-Bit Server VM
Default Encoding: Cp1252
Language: en
Country: US
--></g></svg>