<?xml version="1.0" encoding="UTF-8" standalone="no"?><svg xmlns="http://www.w3.org/2000/svg" xmlns:xlink="http://www.w3.org/1999/xlink" contentStyleType="text/css" height="778px" preserveAspectRatio="none" style="width:921px;height:778px;background:#FFFFFF;" version="1.1" viewBox="0 0 921 778" width="921px" zoomAndPan="magnify"><defs/><g><ellipse cx="439.35" cy="16" fill="#222222" rx="10" ry="10" style="stroke:none;stroke-width:1.0;"/><g id="Idle"><rect fill="#F1F1F1" height="50" rx="12.5" ry="12.5" style="stroke:#181818;stroke-width:0.5;" width="50" x="414.35" y="87"/><line style="stroke:#181818;stroke-width:0.5;" x1="414.35" x2="464.35" y1="113.4883" y2="113.4883"/><text fill="#000000" font-family="sans-serif" font-size="14" lengthAdjust="spacing" textLength="25" x="426.85" y="105.5352">Idle</text></g><g id="Red"><rect fill="#F1F1F1" height="50" rx="12.5" ry="12.5" style="stroke:#181818;stroke-width:0.5;" width="50" x="180.35" y="214"/><line style="stroke:#181818;stroke-width:0.5;" x1="180.35" x2="230.35" y1="240.4883" y2="240.4883"/><text fill="#000000" font-family="sans-serif" font-size="14" lengthAdjust="spacing" textLength="26" x="192.35" y="232.5352">Red</text></g><g id="Red_Orange"><rect fill="#F1F1F1" height="50" rx="12.5" ry="12.5" style="stroke:#181818;stroke-width:0.5;" width="104" x="111.35" y="341"/><line style="stroke:#181818;stroke-width:0.5;" x1="111.35" x2="215.35" y1="367.4883" y2="367.4883"/><text fill="#000000" font-family="sans-serif" font-size="14" lengthAdjust="spacing" textLength="84" x="121.35" y="359.5352">Red_Orange</text></g><g id="Green"><rect fill="#F1F1F1" height="50" rx="12.5" ry="12.5" style="stroke:#181818;stroke-width:0.5;" width="61" x="206.85" y="468"/><line style="stroke:#181818;stroke-width:0.5;" x1="206.85" x2="267.85" y1="494.4883" y2="494.4883"/><text fill="#000000" font-family="sans-serif" font-size="14" lengthAdjust="spacing" textLength="41" x="216.85" y="486.5352">Green</text></g><g id="Orange"><rect fill="#F1F1F1" height="50" rx="12.5" ry="12.5" style="stroke:#181818;stroke-width:0.5;" width="71" x="326.85" y="595"/><line style="stroke:#181818;stroke-width:0.5;" x1="326.85" x2="397.85" y1="621.4883" y2="621.4883"/><text fill="#000000" font-family="sans-serif" font-size="14" lengthAdjust="spacing" textLength="51" x="336.85" y="613.5352">Orange</text></g><g id="Warning"><rect fill="#F1F1F1" height="50" rx="12.5" ry="12.5" style="stroke:#181818;stroke-width:0.5;" width="77" x="234.85" y="722"/><line style="stroke:#181818;stroke-width:0.5;" x1="234.85" x2="311.85" y1="748.4883" y2="748.4883"/><text fill="#000000" font-family="sans-serif" font-size="14" lengthAdjust="spacing" textLength="57" x="244.85" y="740.5352">Warning</text></g><!--MD5=[38f1f8b7f214ff6bc6d4b705f682283d]
link *start to Idle--><g id="link_*start_Idle"><path d="M439.35,26.36 C439.35,38.87 439.35,61.67 439.35,80.45 " fill="none" id="*start-to-Idle" style="stroke:#181818;stroke-width:1.0;"/><polygon fill="#181818" points="439.35,85.13,443.35,76.13,439.35,80.13,435.35,76.13,439.35,85.13" style="stroke:#181818;stroke-width:1.0;"/></g><!--MD5=[a7f0bc972e330f3e5d04cae512e71f1c]
link Idle to Red--><g id="link_Idle_Red"><path d="M414.03,112.84 C340.69,112.98 130.6,117.75 88.35,167 C83.43,172.73 84.28,177.64 88.35,184 C88.35,184 139.46,207.59 174.12,223.59 " fill="none" id="Idle-to-Red" style="stroke:#181818;stroke-width:1.0;"/><polygon fill="#181818" points="178.59,225.65,172.099,218.2428,174.0515,223.552,168.7422,225.5044,178.59,225.65" style="stroke:#181818;stroke-width:1.0;"/><text fill="#000000" font-family="sans-serif" font-size="13" lengthAdjust="spacing" textLength="111" x="89.35" y="180.5684">bConditionEnable</text></g><!--MD5=[9931ef995610784eb906457e841c5cb2]
link Red to Idle--><g id="link_Red_Idle"><path d="M212.06,213.65 C217.53,198.17 226.78,178.88 241.35,167 C289.95,127.39 365.28,116.72 407.64,113.92 " fill="none" id="Red-to-Idle" style="stroke:#181818;stroke-width:1.0;"/><polygon fill="#181818" points="412.38,113.64,403.156,110.1878,407.389,113.9403,403.6365,118.1733,412.38,113.64" style="stroke:#181818;stroke-width:1.0;"/><text fill="#000000" font-family="sans-serif" font-size="13" lengthAdjust="spacing" textLength="170" x="242.35" y="180.5684">NOT bConditionRedOrange</text></g><!--MD5=[96023adb00c566295a75dc77d61aee5c]
link Red to Red_Orange--><g id="link_Red_Red_Orange"><path d="M192.23,264.23 C187.68,273.37 182.84,283.98 179.35,294 C174.81,307.02 171.23,321.85 168.62,334.57 " fill="none" id="Red-to-Red_Orange" style="stroke:#181818;stroke-width:1.0;"/><polygon fill="#181818" points="167.72,339.14,173.3894,331.0865,168.6896,334.2349,165.5412,329.5352,167.72,339.14" style="stroke:#181818;stroke-width:1.0;"/><text fill="#000000" font-family="sans-serif" font-size="13" lengthAdjust="spacing" textLength="138" x="180.35" y="307.5684">bConditionRedOrange</text></g><!--MD5=[5ec0c675c82efd6699afb3df43f00f91]
link Red_Orange to Green--><g id="link_Red_Orange_Green"><path d="M168.87,391.43 C172.74,405.66 178.77,423.57 187.35,438 C192.59,446.82 199.47,455.42 206.44,463.08 " fill="none" id="Red_Orange-to-Green" style="stroke:#181818;stroke-width:1.0;"/><polygon fill="#181818" points="209.74,466.61,206.5039,457.308,206.3208,462.9619,200.6669,462.7787,209.74,466.61" style="stroke:#181818;stroke-width:1.0;"/><text fill="#000000" font-family="sans-serif" font-size="13" lengthAdjust="spacing" textLength="113" x="188.35" y="434.5684">bConditionGreeen</text></g><!--MD5=[b63fb22d2da254250bf9875ba424ca74]
link Green to Orange--><g id="link_Green_Orange"><path d="M241.69,518.26 C245.38,533.13 251.95,551.77 263.35,565 C278.59,582.68 301.1,595.61 320.82,604.37 " fill="none" id="Green-to-Orange" style="stroke:#181818;stroke-width:1.0;"/><polygon fill="#181818" points="325.17,606.25,318.4734,599.0281,320.5743,604.2804,315.322,606.3813,325.17,606.25" style="stroke:#181818;stroke-width:1.0;"/><text fill="#000000" font-family="sans-serif" font-size="13" lengthAdjust="spacing" textLength="115" x="264.35" y="561.5684">bConditionOrange</text></g><!--MD5=[ab5540a5f9db0eec30a41b250d3ade33]
link Orange to Red--><g id="link_Orange_Red"><path d="M374.61,594.62 C378.54,585.56 382.38,575.03 384.35,565 C385.8,557.59 385.24,555.5 384.35,548 C370.7,432.71 397.13,383.64 323.35,294 C301.48,267.43 263.69,253.34 236.77,246.3 " fill="none" id="Orange-to-Red" style="stroke:#181818;stroke-width:1.0;"/><polygon fill="#181818" points="231.99,245.11,239.7469,251.1788,236.8399,246.326,241.6926,243.419,231.99,245.11" style="stroke:#181818;stroke-width:1.0;"/><text fill="#000000" font-family="sans-serif" font-size="13" lengthAdjust="spacing" textLength="93" x="378.35" y="434.5684">bConditionRed</text></g><!--MD5=[87832ffd3326bb69b0a76ed642ffa472]
link Idle to Warning--><g id="link_Idle_Warning"><path d="M464.56,113.29 C531.28,115.51 707.35,131.47 707.35,238 C707.35,238 707.35,238 707.35,621 C707.35,701.24 429.93,733.08 318.69,742.62 " fill="none" id="Idle-to-Warning" style="stroke:#181818;stroke-width:1.0;"/><polygon fill="#181818" points="313.75,743.03,323.0503,746.271,318.7328,742.616,322.3879,738.2985,313.75,743.03" style="stroke:#181818;stroke-width:1.0;"/><text fill="#000000" font-family="sans-serif" font-size="13" lengthAdjust="spacing" textLength="38" x="708.35" y="434.5684">bError</text></g><!--MD5=[efca5c12b2b09a65d55e7c19a2384ccf]
link Warning to Idle--><g id="link_Warning_Idle"><path d="M311.98,744.88 C431.52,740.39 787.35,718.81 787.35,621 C787.35,238 787.35,238 787.35,238 C787.35,189.46 747.97,188.3 704.35,167 C626.26,128.86 522.57,117.64 471.11,114.36 " fill="none" id="Warning-to-Idle" style="stroke:#181818;stroke-width:1.0;"/><polygon fill="#181818" points="466.31,114.07,475.0535,118.6033,471.301,114.3703,475.534,110.6178,466.31,114.07" style="stroke:#181818;stroke-width:1.0;"/><text fill="#000000" font-family="sans-serif" font-size="13" lengthAdjust="spacing" textLength="125" x="788.35" y="434.5684">NOT bConditionRed</text></g><!--MD5=[f348f7ce49a8037921c5d1ee00f30174]
link Red to Warning--><g id="link_Red_Warning"><path d="M180.14,258.19 C133.7,291.81 39.35,360.65 39.35,365 C39.35,365 39.35,365 39.35,621 C39.35,705.66 160,733.19 228.03,741.98 " fill="none" id="Red-to-Warning" style="stroke:#181818;stroke-width:1.0;"/><polygon fill="#181818" points="232.94,742.59,224.5002,737.5136,227.978,741.9751,223.5164,745.4528,232.94,742.59" style="stroke:#181818;stroke-width:1.0;"/><text fill="#000000" font-family="sans-serif" font-size="13" lengthAdjust="spacing" textLength="38" x="40.35" y="498.0684">bError</text></g><!--MD5=[8964170d3b2c427d2b5fd7a54aae3c9c]
link Red_Orange to Warning--><g id="link_Red_Orange_Warning"><path d="M165.21,391.38 C166.4,405.11 168.13,422.55 170.35,438 C178.51,494.86 177.42,510.11 194.35,565 C211.37,620.2 240.21,681.14 257.93,716.36 " fill="none" id="Red_Orange-to-Warning" style="stroke:#181818;stroke-width:1.0;"/><polygon fill="#181818" points="259.99,720.43,259.4925,710.5937,257.7311,715.9694,252.3554,714.208,259.99,720.43" style="stroke:#181818;stroke-width:1.0;"/><text fill="#000000" font-family="sans-serif" font-size="13" lengthAdjust="spacing" textLength="38" x="195.35" y="561.5684">bError</text></g><!--MD5=[114f8c92cdd7570a49414b19f77e1f47]
link Green to Warning--><g id="link_Green_Warning"><path d="M239.38,518.36 C240.62,532.08 242.35,549.52 244.35,565 C251.2,618.04 261.55,679.43 267.86,715.36 " fill="none" id="Green-to-Warning" style="stroke:#181818;stroke-width:1.0;"/><polygon fill="#181818" points="268.72,720.28,271.0919,710.721,267.8494,715.3564,263.2141,712.1139,268.72,720.28" style="stroke:#181818;stroke-width:1.0;"/><text fill="#000000" font-family="sans-serif" font-size="13" lengthAdjust="spacing" textLength="38" x="256.35" y="625.0684">bError</text></g><!--MD5=[4b6b64020efb2c389a61c7788f27fe71]
link Orange to Warning--><g id="link_Orange_Warning"><path d="M344.98,645.4 C330.46,665.79 309.71,694.93 294.28,716.6 " fill="none" id="Orange-to-Warning" style="stroke:#181818;stroke-width:1.0;"/><polygon fill="#181818" points="291.55,720.43,300.0294,715.4201,294.4508,716.3575,293.5134,710.7788,291.55,720.43" style="stroke:#181818;stroke-width:1.0;"/><text fill="#000000" font-family="sans-serif" font-size="13" lengthAdjust="spacing" textLength="38" x="323.35" y="688.5684">bError</text></g><!--MD5=[973c12b1a5ade75b82287cc8b42ecba6]
link Red_Orange to Idle--><g id="link_Red_Orange_Idle"><path d="M111.13,344.51 C77.41,328.21 36.25,301.81 16.35,264 C6,244.33 6.62,233.98 16.35,214 C31.18,183.54 45.23,180.38 76.35,167 C190.94,117.73 342.56,112.24 407.56,112.38 " fill="none" id="Red_Orange-to-Idle" style="stroke:#181818;stroke-width:1.0;"/><polygon fill="#181818" points="412.43,112.4,403.453,108.3486,407.4301,112.3714,403.4073,116.3485,412.43,112.4" style="stroke:#181818;stroke-width:1.0;"/><text fill="#000000" font-family="sans-serif" font-size="13" lengthAdjust="spacing" textLength="145" x="17.35" y="244.0684">NOT bConditionGreeen</text></g><!--MD5=[903adaabd9910452256a01232f0ac41a]
link Green to Idle--><g id="link_Green_Idle"><path d="M268.02,488.42 C319.64,481.71 420.29,465.36 441.35,438 C475.8,393.24 437.63,367.47 436.35,311 C435,251.87 436.82,182.79 438.16,143.84 " fill="none" id="Green-to-Idle" style="stroke:#181818;stroke-width:1.0;"/><polygon fill="#181818" points="438.33,138.9,434.0231,147.7572,438.1582,143.897,442.0184,148.0321,438.33,138.9" style="stroke:#181818;stroke-width:1.0;"/><text fill="#000000" font-family="sans-serif" font-size="13" lengthAdjust="spacing" textLength="147" x="437.35" y="307.5684">NOT bConditionOrange</text></g><!--MD5=[149aa9379c87fc537e40fef42406fce3]
link Orange to Idle--><g id="link_Orange_Idle"><path d="M385.41,594.68 C393.6,585.63 402.69,575.09 410.35,565 C481.88,470.71 476.6,430.23 554.35,341 C567.81,325.55 580.79,329.61 589.35,311 C623.76,236.19 523.39,162.82 470.15,130.37 " fill="none" id="Orange-to-Idle" style="stroke:#181818;stroke-width:1.0;"/><polygon fill="#181818" points="466.14,127.95,471.7995,136.0104,470.4275,130.5225,475.9154,129.1505,466.14,127.95" style="stroke:#181818;stroke-width:1.0;"/><text fill="#000000" font-family="sans-serif" font-size="13" lengthAdjust="spacing" textLength="125" x="555.35" y="371.0684">NOT bConditionRed</text></g><!--MD5=[fd5e9068ba39eca50d48c999c93b7d05]
@startuml

[*] - -> Idle
Idle - -> Red : bConditionEnable
Red - -> Red_Orange : bConditionRedOrange
Red_Orange - -> Green : bConditionGreeen
Green - -> Orange : bConditionOrange
Orange - ->  Red : bConditionRed

Idle - -> Warning : bError
Red - -> Warning : bError
Red_Orange - -> Warning : bError
Green - -> Warning : bError
Orange - ->  Warning : bError

Red - -> Idle: NOT bConditionRedOrange
Red_Orange - -> Idle : NOT bConditionGreeen
Green - -> Idle : NOT bConditionOrange
Orange - ->  Idle : NOT bConditionRed
Warning - -> Idle : NOT bConditionRed

@enduml

PlantUML version 1.2022.7(Mon Aug 22 19:01:30 CEST 2022)
(GPL source distribution)
Java Runtime: OpenJDK Runtime Environment
JVM: OpenJDK 64-Bit Server VM
Default Encoding: UTF-8
Language: fr
Country: CH
--></g></svg>