<?xml version="1.0" encoding="UTF-8" standalone="no"?><svg xmlns="http://www.w3.org/2000/svg" xmlns:xlink="http://www.w3.org/1999/xlink" contentStyleType="text/css" height="552px" preserveAspectRatio="none" style="width:1551px;height:552px;background:#FFFFFF;" version="1.1" viewBox="0 0 1551 552" width="1551px" zoomAndPan="magnify"><defs/><g><ellipse cx="84" cy="16" fill="#222222" rx="10" ry="10" style="stroke:none;stroke-width:1.0;"/><g id="WAIT_RISING_EDGE"><rect fill="#F1F1F1" height="50" rx="12.5" ry="12.5" style="stroke:#181818;stroke-width:0.5;" width="154" x="7" y="86"/><line style="stroke:#181818;stroke-width:0.5;" x1="7" x2="161" y1="113.6094" y2="113.6094"/><text fill="#000000" font-family="sans-serif" font-size="14" lengthAdjust="spacing" textLength="134" x="17" y="105.5332">WAIT_RISING_EDGE</text></g><g id="GENERATE_FILENAME"><rect fill="#F1F1F1" height="50" rx="12.5" ry="12.5" style="stroke:#181818;stroke-width:0.5;" width="170" x="196" y="86"/><line style="stroke:#181818;stroke-width:0.5;" x1="196" x2="366" y1="113.6094" y2="113.6094"/><text fill="#000000" font-family="sans-serif" font-size="14" lengthAdjust="spacing" textLength="150" x="206" y="105.5332">GENERATE_FILENAME</text></g><g id="OPEN_SOURCE_FILE"><rect fill="#F1F1F1" height="50" rx="12.5" ry="12.5" style="stroke:#181818;stroke-width:0.5;" width="161" x="401.5" y="86"/><line style="stroke:#181818;stroke-width:0.5;" x1="401.5" x2="562.5" y1="113.6094" y2="113.6094"/><text fill="#000000" font-family="sans-serif" font-size="14" lengthAdjust="spacing" textLength="141" x="411.5" y="105.5332">OPEN_SOURCE_FILE</text></g><g id="WAIT_OPEN_NOT_BUSY"><rect fill="#F1F1F1" height="50" rx="12.5" ry="12.5" style="stroke:#181818;stroke-width:0.5;" width="181" x="597.5" y="86"/><line style="stroke:#181818;stroke-width:0.5;" x1="597.5" x2="778.5" y1="113.6094" y2="113.6094"/><text fill="#000000" font-family="sans-serif" font-size="14" lengthAdjust="spacing" textLength="161" x="607.5" y="105.5332">WAIT_OPEN_NOT_BUSY</text></g><g id="CONVERT_ONE_CSV_RECORD"><rect fill="#F1F1F1" height="50" rx="12.5" ry="12.5" style="stroke:#181818;stroke-width:0.5;" width="228" x="814" y="86"/><line style="stroke:#181818;stroke-width:0.5;" x1="814" x2="1042" y1="113.6094" y2="113.6094"/><text fill="#000000" font-family="sans-serif" font-size="14" lengthAdjust="spacing" textLength="208" x="824" y="105.5332">CONVERT_ONE_CSV_RECORD</text></g><g id="WRITE_RECORD_TO_FILE"><rect fill="#F1F1F1" height="50" rx="12.5" ry="12.5" style="stroke:#181818;stroke-width:0.5;" width="197" x="1077.5" y="86"/><line style="stroke:#181818;stroke-width:0.5;" x1="1077.5" x2="1274.5" y1="113.6094" y2="113.6094"/><text fill="#000000" font-family="sans-serif" font-size="14" lengthAdjust="spacing" textLength="177" x="1087.5" y="105.5332">WRITE_RECORD_TO_FILE</text></g><g id="WAIT_UNTIL_WRITE_NOT_BUSY"><rect fill="#F1F1F1" height="50" rx="12.5" ry="12.5" style="stroke:#181818;stroke-width:0.5;" width="233" x="1309.5" y="86"/><line style="stroke:#181818;stroke-width:0.5;" x1="1309.5" x2="1542.5" y1="113.6094" y2="113.6094"/><text fill="#000000" font-family="sans-serif" font-size="14" lengthAdjust="spacing" textLength="213" x="1319.5" y="105.5332">WAIT_UNTIL_WRITE_NOT_BUSY</text></g><g id="CLOSE_SOURCE_FILE"><rect fill="#F1F1F1" height="50" rx="12.5" ry="12.5" style="stroke:#181818;stroke-width:0.5;" width="170" x="1341" y="196"/><line style="stroke:#181818;stroke-width:0.5;" x1="1341" x2="1511" y1="223.6094" y2="223.6094"/><text fill="#000000" font-family="sans-serif" font-size="14" lengthAdjust="spacing" textLength="150" x="1351" y="215.5332">CLOSE_SOURCE_FILE</text></g><g id="WAIT_UNTIL_CLOSE_NOT_BUSY"><rect fill="#F1F1F1" height="50" rx="12.5" ry="12.5" style="stroke:#181818;stroke-width:0.5;" width="236" x="1308" y="306"/><line style="stroke:#181818;stroke-width:0.5;" x1="1308" x2="1544" y1="333.6094" y2="333.6094"/><text fill="#000000" font-family="sans-serif" font-size="14" lengthAdjust="spacing" textLength="216" x="1318" y="325.5332">WAIT_UNTIL_CLOSE_NOT_BUSY</text></g><g id="ERROR_OR_READY_STEP"><rect fill="#F1F1F1" height="50" rx="12.5" ry="12.5" style="stroke:#181818;stroke-width:0.5;" width="198" x="1327" y="416"/><line style="stroke:#181818;stroke-width:0.5;" x1="1327" x2="1525" y1="443.6094" y2="443.6094"/><text fill="#000000" font-family="sans-serif" font-size="14" lengthAdjust="spacing" textLength="178" x="1337" y="435.5332">ERROR_OR_READY_STEP</text></g><ellipse cx="1426" cy="536" fill="none" rx="10" ry="10" style="stroke:#222222;stroke-width:1.0;"/><ellipse cx="1426.5" cy="536.5" fill="#222222" rx="6" ry="6" style="stroke:none;stroke-width:1.0;"/><!--MD5=[4461f3518d560c02e6ac40a3ea7a4ced]
link *start to WAIT_RISING_EDGE--><g id="link_*start_WAIT_RISING_EDGE"><path d="M84,26.26 C84,38.86 84,61.98 84,80.74 " fill="none" id="*start-to-WAIT_RISING_EDGE" style="stroke:#181818;stroke-width:1.0;"/><polygon fill="#181818" points="84,85.91,88,76.91,84,80.91,80,76.91,84,85.91" style="stroke:#181818;stroke-width:1.0;"/></g><!--MD5=[0aef81aada943a203b8ebd678a5eda98]
link WAIT_RISING_EDGE to GENERATE_FILENAME--><g id="link_WAIT_RISING_EDGE_GENERATE_FILENAME"><path d="M161.34,111 C171.16,111 180.97,111 190.79,111 " fill="none" id="WAIT_RISING_EDGE-to-GENERATE_FILENAME" style="stroke:#181818;stroke-width:1.0;"/><polygon fill="#181818" points="195.93,111,186.93,107,190.93,111,186.93,115,195.93,111" style="stroke:#181818;stroke-width:1.0;"/></g><!--MD5=[7c4132fd8e3f0bd3e1506ffff4729c4b]
link GENERATE_FILENAME to OPEN_SOURCE_FILE--><g id="link_GENERATE_FILENAME_OPEN_SOURCE_FILE"><path d="M366.19,111 C376.21,111 386.22,111 396.24,111 " fill="none" id="GENERATE_FILENAME-to-OPEN_SOURCE_FILE" style="stroke:#181818;stroke-width:1.0;"/><polygon fill="#181818" points="401.48,111,392.48,107,396.48,111,392.48,115,401.48,111" style="stroke:#181818;stroke-width:1.0;"/></g><!--MD5=[94dbf2c56381b46a98ab755894d1b680]
link OPEN_SOURCE_FILE to WAIT_OPEN_NOT_BUSY--><g id="link_OPEN_SOURCE_FILE_WAIT_OPEN_NOT_BUSY"><path d="M562.87,111 C572.58,111 582.3,111 592.01,111 " fill="none" id="OPEN_SOURCE_FILE-to-WAIT_OPEN_NOT_BUSY" style="stroke:#181818;stroke-width:1.0;"/><polygon fill="#181818" points="597.09,111,588.09,107,592.09,111,588.09,115,597.09,111" style="stroke:#181818;stroke-width:1.0;"/></g><!--MD5=[b6b2a16534935936e34fc25430d11cae]
link WAIT_OPEN_NOT_BUSY to CONVERT_ONE_CSV_RECORD--><g id="link_WAIT_OPEN_NOT_BUSY_CONVERT_ONE_CSV_RECORD"><path d="M778.94,111 C788.85,111 798.77,111 808.69,111 " fill="none" id="WAIT_OPEN_NOT_BUSY-to-CONVERT_ONE_CSV_RECORD" style="stroke:#181818;stroke-width:1.0;"/><polygon fill="#181818" points="813.87,111,804.87,107,808.87,111,804.87,115,813.87,111" style="stroke:#181818;stroke-width:1.0;"/></g><!--MD5=[0e0a645f05bce5a5811dea3a4902eeac]
link CONVERT_ONE_CSV_RECORD to WRITE_RECORD_TO_FILE--><g id="link_CONVERT_ONE_CSV_RECORD_WRITE_RECORD_TO_FILE"><path d="M1042.31,111 C1052.24,111 1062.18,111 1072.11,111 " fill="none" id="CONVERT_ONE_CSV_RECORD-to-WRITE_RECORD_TO_FILE" style="stroke:#181818;stroke-width:1.0;"/><polygon fill="#181818" points="1077.3,111,1068.3,107,1072.3,111,1068.3,115,1077.3,111" style="stroke:#181818;stroke-width:1.0;"/></g><!--MD5=[4e71338e6bd1e89a0b7622d94e4db980]
link WRITE_RECORD_TO_FILE to WAIT_UNTIL_WRITE_NOT_BUSY--><g id="link_WRITE_RECORD_TO_FILE_WAIT_UNTIL_WRITE_NOT_BUSY"><path d="M1274.63,111 C1284.45,111 1294.27,111 1304.09,111 " fill="none" id="WRITE_RECORD_TO_FILE-to-WAIT_UNTIL_WRITE_NOT_BUSY" style="stroke:#181818;stroke-width:1.0;"/><polygon fill="#181818" points="1309.22,111,1300.22,107,1304.22,111,1300.22,115,1309.22,111" style="stroke:#181818;stroke-width:1.0;"/></g><!--MD5=[ac1d47f48350a34ba93617ada10154eb]
link WAIT_UNTIL_WRITE_NOT_BUSY to CLOSE_SOURCE_FILE--><g id="link_WAIT_UNTIL_WRITE_NOT_BUSY_CLOSE_SOURCE_FILE"><path d="M1426,136.24 C1426,152.36 1426,173.62 1426,190.69 " fill="none" id="WAIT_UNTIL_WRITE_NOT_BUSY-to-CLOSE_SOURCE_FILE" style="stroke:#181818;stroke-width:1.0;"/><polygon fill="#181818" points="1426,195.84,1430,186.84,1426,190.84,1422,186.84,1426,195.84" style="stroke:#181818;stroke-width:1.0;"/></g><!--MD5=[954823b2782b1d9ebfc2926eec18d81c]
link CLOSE_SOURCE_FILE to WAIT_UNTIL_CLOSE_NOT_BUSY--><g id="link_CLOSE_SOURCE_FILE_WAIT_UNTIL_CLOSE_NOT_BUSY"><path d="M1426,246.24 C1426,262.36 1426,283.62 1426,300.69 " fill="none" id="CLOSE_SOURCE_FILE-to-WAIT_UNTIL_CLOSE_NOT_BUSY" style="stroke:#181818;stroke-width:1.0;"/><polygon fill="#181818" points="1426,305.84,1430,296.84,1426,300.84,1422,296.84,1426,305.84" style="stroke:#181818;stroke-width:1.0;"/></g><!--MD5=[4ac33e153e86c7875deb87dffe638bfe]
link WAIT_UNTIL_CLOSE_NOT_BUSY to ERROR_OR_READY_STEP--><g id="link_WAIT_UNTIL_CLOSE_NOT_BUSY_ERROR_OR_READY_STEP"><path d="M1426,356.24 C1426,372.36 1426,393.62 1426,410.69 " fill="none" id="WAIT_UNTIL_CLOSE_NOT_BUSY-to-ERROR_OR_READY_STEP" style="stroke:#181818;stroke-width:1.0;"/><polygon fill="#181818" points="1426,415.84,1430,406.84,1426,410.84,1422,406.84,1426,415.84" style="stroke:#181818;stroke-width:1.0;"/></g><!--MD5=[2ae3ce70eaf9f24613aa2940a52ed59e]
link ERROR_OR_READY_STEP to *end--><g id="link_ERROR_OR_READY_STEP_*end"><path d="M1426,466.43 C1426,483.54 1426,505.83 1426,520.27 " fill="none" id="ERROR_OR_READY_STEP-to-*end" style="stroke:#181818;stroke-width:1.0;"/><polygon fill="#181818" points="1426,525.58,1430,516.58,1426,520.58,1422,516.58,1426,525.58" style="stroke:#181818;stroke-width:1.0;"/></g><!--MD5=[69a5e57437f9814304d081a3a780fd4a]
@startuml

[*] - -> WAIT_RISING_EDGE
WAIT_RISING_EDGE -> GENERATE_FILENAME
GENERATE_FILENAME -> OPEN_SOURCE_FILE
OPEN_SOURCE_FILE -> WAIT_OPEN_NOT_BUSY
WAIT_OPEN_NOT_BUSY -> CONVERT_ONE_CSV_RECORD
CONVERT_ONE_CSV_RECORD -> WRITE_RECORD_TO_FILE
WRITE_RECORD_TO_FILE -> WAIT_UNTIL_WRITE_NOT_BUSY
WAIT_UNTIL_WRITE_NOT_BUSY - -> CLOSE_SOURCE_FILE
CLOSE_SOURCE_FILE - -> WAIT_UNTIL_CLOSE_NOT_BUSY
WAIT_UNTIL_CLOSE_NOT_BUSY - -> ERROR_OR_READY_STEP
ERROR_OR_READY_STEP - -> [*]

@enduml

PlantUML version 1.2022.7(Mon Aug 22 19:01:30 CEST 2022)
(GPL source distribution)
Java Runtime: Java(TM) SE Runtime Environment
JVM: Java HotSpot(TM) 64-Bit Server VM
Default Encoding: Cp1252
Language: en
Country: US
--></g></svg>