<?xml version="1.0" encoding="UTF-8" standalone="no"?><svg xmlns="http://www.w3.org/2000/svg" xmlns:xlink="http://www.w3.org/1999/xlink" contentStyleType="text/css" height="342px" preserveAspectRatio="none" style="width:289px;height:342px;background:#FFFFFF;" version="1.1" viewBox="0 0 289 342" width="289px" zoomAndPan="magnify"><defs/><g><ellipse cx="122" cy="16" fill="#222222" rx="10" ry="10" style="stroke:none;stroke-width:1.0;"/><g id="Clearing"><rect fill="#F1F1F1" height="55.2188" rx="12.5" ry="12.5" style="stroke:#181818;stroke-width:0.5;" width="157" x="43.5" y="86"/><line style="stroke:#181818;stroke-width:0.5;" x1="43.5" x2="200.5" y1="113.6094" y2="113.6094"/><text fill="#000000" font-family="sans-serif" font-size="14" lengthAdjust="spacing" textLength="53" x="95.5" y="105.5332">Clearing</text><text fill="#000000" font-family="sans-serif" font-size="14" lengthAdjust="spacing" textLength="137" x="48.5" y="133.1426">Clearing_SC := TRUE</text></g><g id="Resetting"><rect fill="#F1F1F1" height="55.2188" rx="12.5" ry="12.5" style="stroke:#181818;stroke-width:0.5;" width="164" x="118" y="201"/><line style="stroke:#181818;stroke-width:0.5;" x1="118" x2="282" y1="228.6094" y2="228.6094"/><text fill="#000000" font-family="sans-serif" font-size="14" lengthAdjust="spacing" textLength="60" x="170" y="220.5332">Resetting</text><text fill="#000000" font-family="sans-serif" font-size="14" lengthAdjust="spacing" textLength="144" x="123" y="248.1426">Resetting_SC := TRUE</text></g><ellipse cx="122" cy="326" fill="none" rx="10" ry="10" style="stroke:#222222;stroke-width:1.0;"/><ellipse cx="122.5" cy="326.5" fill="#222222" rx="6" ry="6" style="stroke:none;stroke-width:1.0;"/><g id="Stopping"><rect fill="#F1F1F1" height="50" rx="12.5" ry="12.5" style="stroke:#181818;stroke-width:0.5;" width="76" x="7" y="203.5"/><line style="stroke:#181818;stroke-width:0.5;" x1="7" x2="83" y1="231.1094" y2="231.1094"/><text fill="#000000" font-family="sans-serif" font-size="14" lengthAdjust="spacing" textLength="56" x="17" y="223.0332">Stopping</text></g><!--MD5=[6bc60c211c923b3792841feb890c0779]
link *start to Clearing--><g id="link_*start_Clearing"><path d="M122,26.16 C122,38.62 122,61.55 122,80.65 " fill="none" id="*start-to-Clearing" style="stroke:#181818;stroke-width:1.0;"/><polygon fill="#181818" points="122,85.93,126,76.93,122,80.93,118,76.93,122,85.93" style="stroke:#181818;stroke-width:1.0;"/></g><!--MD5=[c856d27d1cdf0a51e459c28af974ecbd]
link Clearing to Resetting--><g id="link_Clearing_Resetting"><path d="M140.48,141.28 C151.95,157.89 166.72,179.28 178.67,196.6 " fill="none" id="Clearing-to-Resetting" style="stroke:#181818;stroke-width:1.0;"/><polygon fill="#181818" points="181.65,200.91,179.8246,191.2318,178.8077,196.7965,173.243,195.7795,181.65,200.91" style="stroke:#181818;stroke-width:1.0;"/></g><!--MD5=[c9439bb0403f14f0cc8a8f7f53db0b59]
link Resetting to *end--><g id="link_Resetting_*end"><path d="M178.27,256.1 C162.75,275.11 142.65,299.72 131.15,313.79 " fill="none" id="Resetting-to-*end" style="stroke:#181818;stroke-width:1.0;"/><polygon fill="#181818" points="127.88,317.8,136.6678,313.3532,131.04,313.9251,130.468,308.2973,127.88,317.8" style="stroke:#181818;stroke-width:1.0;"/></g><!--MD5=[52ede6d034198047f3a1f8b2a70842a7]
link Clearing to Stopping--><g id="link_Clearing_Stopping"><path d="M103.75,141.28 C91.94,158.61 76.58,181.15 64.53,198.84 " fill="none" id="Clearing-to-Stopping" style="stroke:#181818;stroke-width:1.0;"/><polygon fill="#181818" points="61.54,203.22,69.9144,198.0364,64.3562,199.0886,63.3041,193.5304,61.54,203.22" style="stroke:#181818;stroke-width:1.0;"/></g><!--MD5=[f616548105b8383e8f8ad68672f9c6fa]
link Stopping to *end--><g id="link_Stopping_*end"><path d="M64.43,253.6 C79.93,272.83 100.96,298.9 112.84,313.63 " fill="none" id="Stopping-to-*end" style="stroke:#181818;stroke-width:1.0;"/><polygon fill="#181818" points="116.21,317.82,113.6773,308.3024,113.0726,313.9268,107.4482,313.3222,116.21,317.82" style="stroke:#181818;stroke-width:1.0;"/></g><!--MD5=[2adf6e7f5591409203489fc5c6b46eae]
@startuml
[*] - -> Clearing
Clearing - -> Resetting
Clearing : Clearing_SC := TRUE

Resetting - -> [*]
Resetting : Resetting_SC := TRUE

Clearing -> Stopping
Stopping - -> [*]
@enduml

PlantUML version 1.2022.7(Mon Aug 22 19:01:30 CEST 2022)
(GPL source distribution)
Java Runtime: Java(TM) SE Runtime Environment
JVM: Java HotSpot(TM) 64-Bit Server VM
Default Encoding: Cp1252
Language: en
Country: US
--></g></svg>