<?xml version="1.0" encoding="UTF-8" standalone="no"?><svg xmlns="http://www.w3.org/2000/svg" xmlns:xlink="http://www.w3.org/1999/xlink" contentStyleType="text/css" height="638px" preserveAspectRatio="none" style="width:662px;height:638px;background:#FFFFFF;" version="1.1" viewBox="0 0 662 638" width="662px" zoomAndPan="magnify"><defs/><g><ellipse cx="71.5" cy="16" fill="#222222" rx="10" ry="10" style="stroke:none;stroke-width:1.0;"/><g id="Disabled"><rect fill="#F1F1F1" height="50" rx="12.5" ry="12.5" style="stroke:#181818;stroke-width:0.5;" width="75" x="133" y="215"/><line style="stroke:#181818;stroke-width:0.5;" x1="133" x2="208" y1="242.6094" y2="242.6094"/><text fill="#000000" font-family="sans-serif" font-size="14" lengthAdjust="spacing" textLength="55" x="143" y="234.5332">Disabled</text></g><g id="ErrorStop"><rect fill="#F1F1F1" height="50" rx="12.5" ry="12.5" style="stroke:#181818;stroke-width:0.5;" width="81" x="238" y="104"/><line style="stroke:#181818;stroke-width:0.5;" x1="238" x2="319" y1="131.6094" y2="131.6094"/><text fill="#000000" font-family="sans-serif" font-size="14" lengthAdjust="spacing" textLength="61" x="248" y="123.5332">ErrorStop</text></g><g id="Standstill"><rect fill="#F1F1F1" height="50" rx="12.5" ry="12.5" style="stroke:#181818;stroke-width:0.5;" width="77" x="186" y="343"/><line style="stroke:#181818;stroke-width:0.5;" x1="186" x2="263" y1="370.6094" y2="370.6094"/><text fill="#000000" font-family="sans-serif" font-size="14" lengthAdjust="spacing" textLength="57" x="196" y="362.5332">Standstill</text></g><g id="Homing"><rect fill="#F1F1F1" height="50" rx="12.5" ry="12.5" style="stroke:#181818;stroke-width:0.5;" width="67" x="7" y="471"/><line style="stroke:#181818;stroke-width:0.5;" x1="7" x2="74" y1="498.6094" y2="498.6094"/><text fill="#000000" font-family="sans-serif" font-size="14" lengthAdjust="spacing" textLength="47" x="17" y="490.5332">Homing</text></g><g id="Stopping"><rect fill="#F1F1F1" height="50" rx="12.5" ry="12.5" style="stroke:#181818;stroke-width:0.5;" width="76" x="294.5" y="582"/><line style="stroke:#181818;stroke-width:0.5;" x1="294.5" x2="370.5" y1="609.6094" y2="609.6094"/><text fill="#000000" font-family="sans-serif" font-size="14" lengthAdjust="spacing" textLength="56" x="304.5" y="601.5332">Stopping</text></g><g id="DiscreteMotion"><rect fill="#F1F1F1" height="50" rx="12.5" ry="12.5" style="stroke:#181818;stroke-width:0.5;" width="114" x="109.5" y="471"/><line style="stroke:#181818;stroke-width:0.5;" x1="109.5" x2="223.5" y1="498.6094" y2="498.6094"/><text fill="#000000" font-family="sans-serif" font-size="14" lengthAdjust="spacing" textLength="94" x="119.5" y="490.5332">DiscreteMotion</text></g><g id="SynchronizedMotion"><rect fill="#F1F1F1" height="50" rx="12.5" ry="12.5" style="stroke:#181818;stroke-width:0.5;" width="147" x="259" y="471"/><line style="stroke:#181818;stroke-width:0.5;" x1="259" x2="406" y1="498.6094" y2="498.6094"/><text fill="#000000" font-family="sans-serif" font-size="14" lengthAdjust="spacing" textLength="127" x="269" y="490.5332">SynchronizedMotion</text></g><g id="ContinuousMotion"><rect fill="#F1F1F1" height="50" rx="12.5" ry="12.5" style="stroke:#181818;stroke-width:0.5;" width="134" x="441.5" y="471"/><line style="stroke:#181818;stroke-width:0.5;" x1="441.5" x2="575.5" y1="498.6094" y2="498.6094"/><text fill="#000000" font-family="sans-serif" font-size="14" lengthAdjust="spacing" textLength="114" x="451.5" y="490.5332">ContinuousMotion</text></g><!--MD5=[8279e1948461305fde6853b7be583d27]
link *start to Disabled--><g id="link_*start_Disabled"><path d="M67.93,25.59 C59.16,48.05 38.83,109.88 60.5,154 C74.62,182.76 103.67,204.54 128.37,218.86 " fill="none" id="*start-to-Disabled" style="stroke:#181818;stroke-width:1.0;"/><polygon fill="#181818" points="132.93,221.44,127.0751,213.5204,128.5809,218.9731,123.1281,220.4789,132.93,221.44" style="stroke:#181818;stroke-width:1.0;"/><text fill="#000000" font-family="sans-serif" font-size="13" lengthAdjust="spacing" textLength="158" x="61.5" y="134.4951">No Error and no MC_Power</text></g><!--MD5=[78fa6a1a22fea84cc5c6d016a34c8c97]
link *start to ErrorStop--><g id="link_*start_ErrorStop"><path d="M79.87,21.49 C105.27,35.11 182.82,76.69 233.17,103.69 " fill="none" id="*start-to-ErrorStop" style="stroke:#181818;stroke-width:1.0;"/><polygon fill="#181818" points="237.65,106.1,231.5951,98.3322,233.2394,103.7448,227.8268,105.3892,237.65,106.1" style="stroke:#181818;stroke-width:1.0;"/><text fill="#000000" font-family="sans-serif" font-size="13" lengthAdjust="spacing" textLength="28" x="175.5" y="70.4951">Error</text></g><!--MD5=[245c9ae29571d1c2f759b517e8f40561]
link ErrorStop to Standstill--><g id="link_ErrorStop_Standstill"><path d="M278.73,154.09 C278.39,189.76 275.07,258.31 256.5,313 C253.54,321.71 249.06,330.54 244.38,338.47 " fill="none" id="ErrorStop-to-Standstill" style="stroke:#181818;stroke-width:1.0;"/><polygon fill="#181818" points="241.76,342.78,249.8426,337.1522,244.3493,338.5027,242.9989,333.0094,241.76,342.78" style="stroke:#181818;stroke-width:1.0;"/><text fill="#000000" font-family="sans-serif" font-size="13" lengthAdjust="spacing" textLength="138" x="276.5" y="245.4951">MC_Reset and No Error</text></g><!--MD5=[247d4f0633844f286b3b128511f9d81a]
link ErrorStop to Disabled--><g id="link_ErrorStop_Disabled"><path d="M254.53,154.19 C237.89,170.98 215.68,193.41 198.26,210.98 " fill="none" id="ErrorStop-to-Disabled" style="stroke:#181818;stroke-width:1.0;"/><polygon fill="#181818" points="194.4,214.88,203.5852,211.3259,197.9284,211.3373,197.917,205.6805,194.4,214.88" style="stroke:#181818;stroke-width:1.0;"/></g><!--MD5=[0e16d935a1a28383d577480e530fc51c]
link Disabled to Standstill--><g id="link_Disabled_Standstill"><path d="M173.89,265.06 C176.47,279.4 180.75,297.73 187.5,313 C191.38,321.77 196.72,330.62 202.14,338.56 " fill="none" id="Disabled-to-Standstill" style="stroke:#181818;stroke-width:1.0;"/><polygon fill="#181818" points="205.15,342.86,203.2635,333.1935,202.2817,338.7645,196.7107,337.7827,205.15,342.86" style="stroke:#181818;stroke-width:1.0;"/><text fill="#000000" font-family="sans-serif" font-size="13" lengthAdjust="spacing" textLength="63" x="188.5" y="309.4951">MC_Power</text></g><!--MD5=[45175f784bbde18e9907333ac2cdc172]
link Standstill to Homing--><g id="link_Standstill_Homing"><path d="M185.77,372.77 C150.37,378.18 98.75,391.3 66.5,423 C55.02,434.28 48.58,451.01 44.99,465.5 " fill="none" id="Standstill-to-Homing" style="stroke:#181818;stroke-width:1.0;"/><polygon fill="#181818" points="43.79,470.72,49.6961,462.8385,44.9049,465.8459,41.8975,461.0547,43.79,470.72" style="stroke:#181818;stroke-width:1.0;"/></g><!--MD5=[cbece27e28f8c39d2a786553771c9785]
link Homing to Standstill--><g id="link_Homing_Standstill"><path d="M73.07,470.89 C92.47,456.69 117.69,438.53 140.5,423 C153.76,413.97 168.41,404.41 181.71,395.89 " fill="none" id="Homing-to-Standstill" style="stroke:#181818;stroke-width:1.0;stroke-dasharray:7.0,7.0;"/><polygon fill="#181818" points="186.17,393.04,176.4341,394.5271,181.9599,395.7373,180.7497,401.2632,186.17,393.04" style="stroke:#181818;stroke-width:1.0;"/><text fill="#000000" font-family="sans-serif" font-size="13" lengthAdjust="spacing" textLength="30" x="141.5" y="437.4951">Done</text></g><!--MD5=[00fffec30a7d4876d6c38261dc6c4716]
link Stopping to Standstill--><g id="link_Stopping_Standstill"><path d="M370.77,601.46 C457.33,589.65 655.91,553 593.5,471 C553.93,419.01 357.54,386.72 268.51,374.53 " fill="none" id="Stopping-to-Standstill" style="stroke:#181818;stroke-width:1.0;"/><polygon fill="#181818" points="263.32,373.83,271.6997,379.005,268.2745,374.503,272.7765,371.0778,263.32,373.83" style="stroke:#181818;stroke-width:1.0;"/></g><!--MD5=[6995e5ffd0f3b720d5de9871eaa0633f]
link Standstill to DiscreteMotion--><g id="link_Standstill_DiscreteMotion"><path d="M206.25,393.11 C200,402.14 193.37,412.71 188.5,423 C182.13,436.45 177.07,452.19 173.42,465.51 " fill="none" id="Standstill-to-DiscreteMotion" style="stroke:#181818;stroke-width:1.0;"/><polygon fill="#181818" points="172.04,470.67,178.2211,463.0023,173.3265,465.8384,170.4904,460.9438,172.04,470.67" style="stroke:#181818;stroke-width:1.0;"/></g><!--MD5=[1ca6431efe77e6110d9f45375eb5c899]
link DiscreteMotion to Standstill--><g id="link_DiscreteMotion_Standstill"><path d="M177.65,470.78 C187.23,449.97 201.06,419.93 211.21,397.87 " fill="none" id="DiscreteMotion-to-Standstill" style="stroke:#181818;stroke-width:1.0;stroke-dasharray:7.0,7.0;"/><polygon fill="#181818" points="213.32,393.29,205.9128,399.781,211.222,397.8285,213.1744,403.1378,213.32,393.29" style="stroke:#181818;stroke-width:1.0;"/><text fill="#000000" font-family="sans-serif" font-size="13" lengthAdjust="spacing" textLength="30" x="199.5" y="437.4951">Done</text></g><!--MD5=[6423c947042da44a66e833fd153a7caa]
link Standstill to SynchronizedMotion--><g id="link_Standstill_SynchronizedMotion"><path d="M245.32,393.29 C263.33,414.3 289.36,444.67 308.29,466.76 " fill="none" id="Standstill-to-SynchronizedMotion" style="stroke:#181818;stroke-width:1.0;"/><polygon fill="#181818" points="311.74,470.78,308.9404,461.3374,308.4943,466.9767,302.8551,466.5306,311.74,470.78" style="stroke:#181818;stroke-width:1.0;"/></g><!--MD5=[2bc2876747c53e11c180e120592976d4]
link Standstill to ContinuousMotion--><g id="link_Standstill_ContinuousMotion"><path d="M263.1,386.12 C311.11,407.43 393.58,444.01 449.53,468.84 " fill="none" id="Standstill-to-ContinuousMotion" style="stroke:#181818;stroke-width:1.0;"/><polygon fill="#181818" points="454.19,470.9,447.586,463.5933,449.6198,468.872,444.3411,470.9057,454.19,470.9" style="stroke:#181818;stroke-width:1.0;"/></g><!--MD5=[328713c5249c0d5117bf0a5bae3ad454]
link Homing to Stopping--><g id="link_Homing_Stopping"><path d="M74.03,513.36 C79.81,516.02 85.8,518.66 91.5,521 C159.75,549.01 241.02,576.5 289.6,592.32 " fill="none" id="Homing-to-Stopping" style="stroke:#181818;stroke-width:1.0;"/><polygon fill="#181818" points="294.49,593.91,287.163,587.3286,289.7339,592.3675,284.695,594.9383,294.49,593.91" style="stroke:#181818;stroke-width:1.0;"/></g><!--MD5=[5c348b05f3cf1f5f83f9294a4a32d555]
link DiscreteMotion to Stopping--><g id="link_DiscreteMotion_Stopping"><path d="M203.34,521.19 C229.45,538.34 264.5,561.35 291.5,579.08 " fill="none" id="DiscreteMotion-to-Stopping" style="stroke:#181818;stroke-width:1.0;"/><polygon fill="#181818" points="295.76,581.88,290.4246,573.6015,291.5779,579.1395,286.0399,580.2928,295.76,581.88" style="stroke:#181818;stroke-width:1.0;"/></g><!--MD5=[19ba314538e9754e010ba9e7ac0bd02b]
link SynchronizedMotion to Stopping--><g id="link_SynchronizedMotion_Stopping"><path d="M332.5,521.19 C332.5,537.56 332.5,559.28 332.5,576.64 " fill="none" id="SynchronizedMotion-to-Stopping" style="stroke:#181818;stroke-width:1.0;"/><polygon fill="#181818" points="332.5,581.88,336.5,572.88,332.5,576.88,328.5,572.88,332.5,581.88" style="stroke:#181818;stroke-width:1.0;"/></g><!--MD5=[b222d5cf2de30fef9d699717a53e97ca]
link ContinuousMotion to Stopping--><g id="link_ContinuousMotion_Stopping"><path d="M469.44,521.19 C441.47,538.52 403.82,561.83 375.08,579.63 " fill="none" id="ContinuousMotion-to-Stopping" style="stroke:#181818;stroke-width:1.0;"/><polygon fill="#181818" points="370.54,582.44,380.2941,581.0768,374.784,579.7964,376.0643,574.2864,370.54,582.44" style="stroke:#181818;stroke-width:1.0;"/></g><!--MD5=[b499a5ee635a5b8ee2baad807e7c5cfd]
@startuml

[*] - -> Disabled : No Error and no MC_Power
[*] - -> ErrorStop : Error
ErrorStop - -> Standstill : MC_Reset and No Error
ErrorStop - -> Disabled
Disabled - -> Standstill : MC_Power
Standstill - -> Homing
Stopping - -> Standstill
Standstill - -> DiscreteMotion
Standstill - -> SynchronizedMotion
Standstill - -> ContinuousMotion

Homing -[dashed]-> Standstill : Done
Homing - -> Stopping

DiscreteMotion - -> Stopping
DiscreteMotion -[dashed]-> Standstill : Done
SynchronizedMotion - -> Stopping
ContinuousMotion - -> Stopping

@enduml

PlantUML version 1.2022.7(Mon Aug 22 19:01:30 CEST 2022)
(GPL source distribution)
Java Runtime: Java(TM) SE Runtime Environment
JVM: Java HotSpot(TM) 64-Bit Server VM
Default Encoding: Cp1252
Language: en
Country: US
--></g></svg>