<?xml version="1.0" encoding="UTF-8" standalone="no"?><svg xmlns="http://www.w3.org/2000/svg" xmlns:xlink="http://www.w3.org/1999/xlink" contentStyleType="text/css" height="274px" preserveAspectRatio="none" style="width:935px;height:274px;background:#FFFFFF;" version="1.1" viewBox="0 0 935 274" width="935px" zoomAndPan="magnify"><defs/><g><ellipse cx="462.5" cy="20" fill="#222222" rx="10" ry="10" style="stroke:#222222;stroke-width:1.0;"/><polygon fill="#F1F1F1" points="60.5,50,137.5,50,149.5,62,137.5,74,60.5,74,48.5,62,60.5,50" style="stroke:#181818;stroke-width:0.5;"/><text fill="#000000" font-family="sans-serif" font-size="11" lengthAdjust="spacing" textLength="18" x="103" y="85.4189">yes</text><text fill="#000000" font-family="sans-serif" font-size="11" lengthAdjust="spacing" textLength="77" x="60.5" y="66.501">(diCounter = 1,5</text><rect fill="#F1F1F1" height="35.0938" rx="12.5" ry="12.5" style="stroke:#181818;stroke-width:0.5;" width="144" x="27" y="107.8359"/><text fill="#000000" font-family="sans-serif" font-size="12" lengthAdjust="spacing" textLength="121" x="40" y="130.293">xMyCondition := TRUE</text><rect fill="#F1F1F1" height="35.0938" rx="12.5" ry="12.5" style="stroke:#181818;stroke-width:0.5;" width="176" x="11" y="166.8477"/><text fill="#000000" font-family="sans-serif" font-size="12" lengthAdjust="spacing" textLength="153" x="24" y="189.3047">xMyThirdCondition := FALSE</text><polygon fill="#F1F1F1" points="251,50,315,50,327,62,315,74,251,74,239,62,251,50" style="stroke:#181818;stroke-width:0.5;"/><text fill="#000000" font-family="sans-serif" font-size="11" lengthAdjust="spacing" textLength="18" x="287" y="85.4189">yes</text><text fill="#000000" font-family="sans-serif" font-size="11" lengthAdjust="spacing" textLength="64" x="251" y="66.501">diCounter = 2</text><rect fill="#F1F1F1" height="35.0938" rx="12.5" ry="12.5" style="stroke:#181818;stroke-width:0.5;" width="148" x="209" y="107.8359"/><text fill="#000000" font-family="sans-serif" font-size="12" lengthAdjust="spacing" textLength="125" x="222" y="130.293">xMyCondition := FALSE</text><rect fill="#F1F1F1" height="35.0938" rx="12.5" ry="12.5" style="stroke:#181818;stroke-width:0.5;" width="172" x="197" y="166.8477"/><text fill="#000000" font-family="sans-serif" font-size="12" lengthAdjust="spacing" textLength="149" x="210" y="189.3047">xMyThirdCondition := TRUE</text><polygon fill="#F1F1F1" points="421,50,509,50,521,62,509,74,421,74,409,62,421,50" style="stroke:#181818;stroke-width:0.5;"/><text fill="#000000" font-family="sans-serif" font-size="11" lengthAdjust="spacing" textLength="18" x="469" y="85.4189">yes</text><text fill="#000000" font-family="sans-serif" font-size="11" lengthAdjust="spacing" textLength="88" x="421" y="66.501">diCounter = 10..20</text><text fill="#000000" font-family="sans-serif" font-size="11" lengthAdjust="spacing" textLength="20" x="524" y="59.583">else</text><rect fill="#F1F1F1" height="35.0938" rx="12.5" ry="12.5" style="stroke:#181818;stroke-width:0.5;" width="144" x="393" y="107.8359"/><text fill="#000000" font-family="sans-serif" font-size="12" lengthAdjust="spacing" textLength="121" x="406" y="130.293">xMyCondition := TRUE</text><rect fill="#F1F1F1" height="35.0938" rx="12.5" ry="12.5" style="stroke:#181818;stroke-width:0.5;" width="172" x="379" y="166.8477"/><text fill="#000000" font-family="sans-serif" font-size="12" lengthAdjust="spacing" textLength="149" x="392" y="189.3047">xMyThirdCondition := TRUE</text><rect fill="#F1F1F1" height="35.0938" rx="12.5" ry="12.5" style="stroke:#181818;stroke-width:0.5;" width="211" x="637" y="103.918"/><text fill="#000000" font-family="sans-serif" font-size="12" lengthAdjust="spacing" textLength="188" x="650" y="126.375">xMyCondition := NOT xMyCondition</text><rect fill="#F1F1F1" height="35.0938" rx="12.5" ry="12.5" style="stroke:#181818;stroke-width:0.5;" width="363" x="561" y="162.9297"/><text fill="#000000" font-family="sans-serif" font-size="12" lengthAdjust="spacing" textLength="340" x="574" y="185.3867">xMySecondCondition := xMyCondition OR xMySecondCondition</text><ellipse cx="462.5" cy="252.9414" fill="none" rx="11" ry="11" style="stroke:#222222;stroke-width:1.0;"/><ellipse cx="462.5" cy="252.9414" fill="#222222" rx="6" ry="6" style="stroke:#111111;stroke-width:1.0;"/><line style="stroke:#181818;stroke-width:1.0;" x1="99" x2="99" y1="142.9297" y2="166.8477"/><polygon fill="#181818" points="95,156.8477,99,166.8477,103,156.8477,99,160.8477" style="stroke:#181818;stroke-width:1.0;"/><line style="stroke:#181818;stroke-width:1.0;" x1="283" x2="283" y1="142.9297" y2="166.8477"/><polygon fill="#181818" points="279,156.8477,283,166.8477,287,156.8477,283,160.8477" style="stroke:#181818;stroke-width:1.0;"/><line style="stroke:#181818;stroke-width:1.0;" x1="465" x2="465" y1="142.9297" y2="166.8477"/><polygon fill="#181818" points="461,156.8477,465,166.8477,469,156.8477,465,160.8477" style="stroke:#181818;stroke-width:1.0;"/><line style="stroke:#181818;stroke-width:1.0;" x1="742.5" x2="742.5" y1="139.0117" y2="162.9297"/><polygon fill="#181818" points="738.5,152.9297,742.5,162.9297,746.5,152.9297,742.5,156.9297" style="stroke:#181818;stroke-width:1.0;"/><line style="stroke:#181818;stroke-width:1.0;" x1="99" x2="99" y1="74" y2="107.8359"/><polygon fill="#181818" points="95,97.8359,99,107.8359,103,97.8359,99,101.8359" style="stroke:#181818;stroke-width:1.0;"/><line style="stroke:#181818;stroke-width:1.0;" x1="99" x2="99" y1="201.9414" y2="221.9414"/><polygon fill="#181818" points="95,211.9414,99,221.9414,103,211.9414,99,215.9414" style="stroke:#181818;stroke-width:1.0;"/><line style="stroke:#181818;stroke-width:1.0;" x1="283" x2="283" y1="74" y2="107.8359"/><polygon fill="#181818" points="279,97.8359,283,107.8359,287,97.8359,283,101.8359" style="stroke:#181818;stroke-width:1.0;"/><line style="stroke:#181818;stroke-width:1.0;" x1="283" x2="283" y1="201.9414" y2="221.9414"/><polygon fill="#181818" points="279,211.9414,283,221.9414,287,211.9414,283,215.9414" style="stroke:#181818;stroke-width:1.0;"/><line style="stroke:#181818;stroke-width:1.0;" x1="465" x2="465" y1="74" y2="107.8359"/><polygon fill="#181818" points="461,97.8359,465,107.8359,469,97.8359,465,101.8359" style="stroke:#181818;stroke-width:1.0;"/><line style="stroke:#181818;stroke-width:1.0;" x1="465" x2="465" y1="201.9414" y2="221.9414"/><polygon fill="#181818" points="461,211.9414,465,221.9414,469,211.9414,465,215.9414" style="stroke:#181818;stroke-width:1.0;"/><line style="stroke:#181818;stroke-width:1.0;" x1="149.5" x2="239" y1="62" y2="62"/><polygon fill="#181818" points="229,58,239,62,229,66,233,62" style="stroke:#181818;stroke-width:1.0;"/><line style="stroke:#181818;stroke-width:1.0;" x1="327" x2="409" y1="62" y2="62"/><polygon fill="#181818" points="399,58,409,62,399,66,403,62" style="stroke:#181818;stroke-width:1.0;"/><line style="stroke:#181818;stroke-width:1.0;" x1="462.5" x2="462.5" y1="30" y2="35"/><line style="stroke:#181818;stroke-width:1.0;" x1="462.5" x2="99" y1="35" y2="35"/><line style="stroke:#181818;stroke-width:1.0;" x1="99" x2="99" y1="35" y2="50"/><polygon fill="#181818" points="95,40,99,50,103,40,99,44" style="stroke:#181818;stroke-width:1.0;"/><line style="stroke:#181818;stroke-width:1.0;" x1="521" x2="742.5" y1="62" y2="62"/><line style="stroke:#181818;stroke-width:1.0;" x1="742.5" x2="742.5" y1="62" y2="103.918"/><polygon fill="#181818" points="738.5,93.918,742.5,103.918,746.5,93.918,742.5,97.918" style="stroke:#181818;stroke-width:1.0;"/><line style="stroke:#181818;stroke-width:1.0;" x1="742.5" x2="742.5" y1="198.0234" y2="221.9414"/><polygon fill="#181818" points="738.5,211.9414,742.5,221.9414,746.5,211.9414,742.5,215.9414" style="stroke:#181818;stroke-width:1.0;"/><line style="stroke:#181818;stroke-width:1.0;" x1="99" x2="742.5" y1="221.9414" y2="221.9414"/><line style="stroke:#181818;stroke-width:1.0;" x1="462.5" x2="462.5" y1="221.9414" y2="241.9414"/><polygon fill="#181818" points="458.5,231.9414,462.5,241.9414,466.5,231.9414,462.5,235.9414" style="stroke:#181818;stroke-width:1.0;"/><!--MD5=[74bb30290ac975c15ce50bea22c938dd]
@startuml
start
if ((diCounter = 1,5) then (yes)
  : xMyCondition := TRUE; 
  : xMyThirdCondition := FALSE;
elseif (diCounter = 2) then (yes)
  : xMyCondition := FALSE; 
  : xMyThirdCondition := TRUE;
elseif (diCounter = 10..20) then (yes)
  : xMyCondition := TRUE; 
  : xMyThirdCondition := TRUE;
else ( else)
  : xMyCondition := NOT xMyCondition; 
  : xMySecondCondition := xMyCondition OR xMySecondCondition;
endif
stop
@enduml

PlantUML version 1.2022.7(Mon Aug 22 19:01:30 CEST 2022)
(GPL source distribution)
Java Runtime: Java(TM) SE Runtime Environment
JVM: Java HotSpot(TM) 64-Bit Server VM
Default Encoding: Cp1252
Language: en
Country: US
--></g></svg>