<?xml version="1.0" encoding="UTF-8" standalone="no"?><svg xmlns="http://www.w3.org/2000/svg" xmlns:xlink="http://www.w3.org/1999/xlink" contentStyleType="text/css" height="493px" preserveAspectRatio="none" style="width:441px;height:493px;background:#FFFFFF;" version="1.1" viewBox="0 0 441 493" width="441px" zoomAndPan="magnify"><defs/><g><ellipse cx="261.25" cy="16" fill="#222222" rx="10" ry="10" style="stroke:none;stroke-width:1.0;"/><g id="Aborted"><rect fill="#F1F1F1" height="50" rx="12.5" ry="12.5" style="stroke:#181818;stroke-width:0.5;" width="76" x="223.25" y="87"/><line style="stroke:#181818;stroke-width:0.5;" x1="223.25" x2="299.25" y1="113.4883" y2="113.4883"/><text fill="#000000" font-family="sans-serif" font-size="14" lengthAdjust="spacing" textLength="56" x="233.25" y="105.5352">Aborted</text></g><path d="M245.75,389.49 L318.75,389.49 A12.5,12.5 0 0 1 331.25,401.99 L331.25,415.9783 L233.25,415.9783 L233.25,401.99 A12.5,12.5 0 0 1 245.75,389.49 " fill="#F1F1F1" style="stroke:#F1F1F1;stroke-width:1.0;"/><rect fill="none" height="98.4883" rx="12.5" ry="12.5" style="stroke:#181818;stroke-width:0.5;" width="98" x="233.25" y="389.49"/><line style="stroke:#181818;stroke-width:0.5;" x1="233.25" x2="331.25" y1="415.9783" y2="415.9783"/><text fill="#000000" font-family="sans-serif" font-size="14" lengthAdjust="spacing" textLength="76" x="244.25" y="408.0252">Suspended</text><g id="Suspended.Warning"><rect fill="#F1F1F1" height="50" rx="12.5" ry="12.5" style="stroke:#181818;stroke-width:0.5;" width="77" x="245.25" y="427.9783"/><line style="stroke:#181818;stroke-width:0.5;" x1="245.25" x2="322.25" y1="454.4666" y2="454.4666"/><text fill="#000000" font-family="sans-serif" font-size="14" lengthAdjust="spacing" textLength="57" x="255.25" y="446.5134">Warning</text></g><path d="M19.5,214 L355,214 A12.5,12.5 0 0 1 367.5,226.5 L367.5,240.4883 L7,240.4883 L7,226.5 A12.5,12.5 0 0 1 19.5,214 " fill="#F1F1F1" style="stroke:#F1F1F1;stroke-width:1.0;"/><rect fill="none" height="98.4883" rx="12.5" ry="12.5" style="stroke:#181818;stroke-width:0.5;" width="360.5" x="7" y="214"/><line style="stroke:#181818;stroke-width:0.5;" x1="7" x2="367.5" y1="240.4883" y2="240.4883"/><text fill="#000000" font-family="sans-serif" font-size="14" lengthAdjust="spacing" textLength="54" x="160.25" y="232.5352">Execute</text><g id="Execute.Red"><rect fill="#F1F1F1" height="50" rx="12.5" ry="12.5" style="stroke:#181818;stroke-width:0.5;" width="50" x="19" y="252.4883"/><line style="stroke:#181818;stroke-width:0.5;" x1="19" x2="69" y1="278.9766" y2="278.9766"/><text fill="#000000" font-family="sans-serif" font-size="14" lengthAdjust="spacing" textLength="26" x="31" y="271.0234">Red</text></g><g id="Execute.Red_Orange"><rect fill="#F1F1F1" height="50" rx="12.5" ry="12.5" style="stroke:#181818;stroke-width:0.5;" width="104" x="87" y="252.4883"/><line style="stroke:#181818;stroke-width:0.5;" x1="87" x2="191" y1="278.9766" y2="278.9766"/><text fill="#000000" font-family="sans-serif" font-size="14" lengthAdjust="spacing" textLength="84" x="97" y="271.0234">Red_Orange</text></g><g id="Execute.Green"><rect fill="#F1F1F1" height="50" rx="12.5" ry="12.5" style="stroke:#181818;stroke-width:0.5;" width="61" x="208.5" y="252.4883"/><line style="stroke:#181818;stroke-width:0.5;" x1="208.5" x2="269.5" y1="278.9766" y2="278.9766"/><text fill="#000000" font-family="sans-serif" font-size="14" lengthAdjust="spacing" textLength="41" x="218.5" y="271.0234">Green</text></g><g id="Execute.Orange"><rect fill="#F1F1F1" height="50" rx="12.5" ry="12.5" style="stroke:#181818;stroke-width:0.5;" width="71" x="287.5" y="252.4883"/><line style="stroke:#181818;stroke-width:0.5;" x1="287.5" x2="358.5" y1="278.9766" y2="278.9766"/><text fill="#000000" font-family="sans-serif" font-size="14" lengthAdjust="spacing" textLength="51" x="297.5" y="271.0234">Orange</text></g><!--MD5=[b79cf11c990b8f95ff7ac0ba7f0effeb]
link *start to Aborted--><g id="link_*start_Aborted"><path d="M261.25,26.36 C261.25,38.88 261.25,61.67 261.25,80.46 " fill="none" id="*start-to-Aborted" style="stroke:#181818;stroke-width:1.0;"/><polygon fill="#181818" points="261.25,85.14,265.25,76.14,261.25,80.14,257.25,76.14,261.25,85.14" style="stroke:#181818;stroke-width:1.0;"/></g><!--MD5=[b6b89d11748e491bbff04d2f71066967]
link Aborted to Execute--><g id="link_Aborted_Execute"><path d="M222.77,130.11 C207.92,138.86 192.54,151.07 184.25,167 C177.89,179.22 175.99,193.57 176.31,207.36 " fill="none" id="Aborted-to-Execute" style="stroke:#181818;stroke-width:1.0;"/><polygon fill="#181818" points="176.54,212.14,180.0974,202.956,176.2967,207.1459,172.1069,203.3453,176.54,212.14" style="stroke:#181818;stroke-width:1.0;"/><text fill="#000000" font-family="sans-serif" font-size="13" lengthAdjust="spacing" textLength="32" x="185.25" y="180.5684">Clear</text></g><!--MD5=[efc0c82cf2395f55a55a2a86a839ad5b]
link Execute to Aborted--><g id="link_Execute_Aborted"><path d="M211.27,213.81 C222.81,190.53 236.28,163.36 246.33,143.1 " fill="none" id="Execute-to-Aborted" style="stroke:#181818;stroke-width:1.0;"/><polygon fill="#181818" points="248.52,138.67,240.9334,144.9504,246.2953,143.1478,248.0979,148.5098,248.52,138.67" style="stroke:#181818;stroke-width:1.0;"/><text fill="#000000" font-family="sans-serif" font-size="13" lengthAdjust="spacing" textLength="35" x="233.25" y="180.5684">Abort</text></g><!--MD5=[0ce8bad6107a1682df63a53124b68125]
link Execute to Suspended--><g id="link_Execute_Suspended"><path d="M177.13,312.59 C176.06,328.21 177.36,345.18 184.25,359.49 C193.62,378.96 210.45,395.09 227.55,407.55 " fill="none" id="Execute-to-Suspended" style="stroke:#181818;stroke-width:1.0;"/><polygon fill="#181818" points="231.62,410.42,226.5763,401.9606,227.536,407.5355,221.9611,408.4951,231.62,410.42" style="stroke:#181818;stroke-width:1.0;"/><text fill="#000000" font-family="sans-serif" font-size="13" lengthAdjust="spacing" textLength="53" x="185.25" y="356.0584">Suspend</text></g><!--MD5=[531443ecb9e0236b02fd46fc7932f7ef]
link Suspended to Execute--><g id="link_Suspended_Execute"><path d="M264.92,389.25 C258.79,373.94 251.37,357.19 243.25,342.49 C238.7,334.26 233.44,325.86 228.01,317.77 " fill="none" id="Suspended-to-Execute" style="stroke:#181818;stroke-width:1.0;"/><polygon fill="#181818" points="225.46,314.03,227.2241,323.7196,228.2762,318.1614,233.8344,319.2136,225.46,314.03" style="stroke:#181818;stroke-width:1.0;"/><text fill="#000000" font-family="sans-serif" font-size="13" lengthAdjust="spacing" textLength="70" x="251.25" y="356.0584">Unsuspend</text></g><!--MD5=[f71b85a346dd7ffa1fa9a599690747aa]
link Suspended to Aborted--><g id="link_Suspended_Aborted"><path d="M331.63,393.34 C352.43,371.34 374.33,342.97 385.25,312.49 C400.02,271.29 404.04,253.54 385.25,214 C368.7,179.18 333.62,152.42 304.99,135.22 " fill="none" id="Suspended-to-Aborted" style="stroke:#181818;stroke-width:1.0;"/><polygon fill="#181818" points="301.02,132.89,306.7307,140.9142,305.3238,135.4351,310.8029,134.0281,301.02,132.89" style="stroke:#181818;stroke-width:1.0;"/><text fill="#000000" font-family="sans-serif" font-size="13" lengthAdjust="spacing" textLength="35" x="398.25" y="268.3184">Abort</text></g><!--MD5=[2909ee31f36b1b1862dcb5e9601eef8b]
@startuml

[*] - -> Aborted

State Aborted
State Suspended{
    State Warning
}
State Execute{
    state Red
    state Red_Orange
    state Green
    state Orange
}

Aborted - -> Execute : Clear
Execute - -> Suspended : Suspend
Suspended - -> Aborted : Abort
Execute - -> Aborted : Abort
Suspended - -> Execute : Unsuspend

@enduml

PlantUML version 1.2022.7(Mon Aug 22 19:01:30 CEST 2022)
(GPL source distribution)
Java Runtime: OpenJDK Runtime Environment
JVM: OpenJDK 64-Bit Server VM
Default Encoding: UTF-8
Language: fr
Country: CH
--></g></svg>