<?xml version="1.0" encoding="UTF-8" standalone="no"?><svg xmlns="http://www.w3.org/2000/svg" xmlns:xlink="http://www.w3.org/1999/xlink" contentStyleType="text/css" height="564px" preserveAspectRatio="none" style="width:653px;height:564px;background:#FFFFFF;" version="1.1" viewBox="0 0 653 564" width="653px" zoomAndPan="magnify"><defs/><g><ellipse cx="324" cy="16" fill="#222222" rx="10" ry="10" style="stroke:none;stroke-width:1.0;"/><g id="Idle"><rect fill="#F1F1F1" height="50" rx="12.5" ry="12.5" style="stroke:#181818;stroke-width:0.5;" width="50" x="299" y="91.5"/><line style="stroke:#181818;stroke-width:0.5;" x1="299" x2="349" y1="119.1094" y2="119.1094"/><text fill="#000000" font-family="sans-serif" font-size="14" lengthAdjust="spacing" textLength="22" x="313" y="111.0332">Idle</text></g><g id="Init"><rect fill="#F1F1F1" height="50" rx="12.5" ry="12.5" style="stroke:#181818;stroke-width:0.5;" width="50" x="299" y="228.5"/><line style="stroke:#181818;stroke-width:0.5;" x1="299" x2="349" y1="256.1094" y2="256.1094"/><text fill="#000000" font-family="sans-serif" font-size="14" lengthAdjust="spacing" textLength="18" x="315" y="248.0332">Init</text></g><g id="elem_GMN7"><path d="M146,87 L146,146.0547 A0,0 0 0 0 146,146.0547 L264,146.0547 A0,0 0 0 0 264,146.0547 L264,120.5 L298.7,116.5 L264,112.5 L264,97 L254,87 L146,87 A0,0 0 0 0 146,87 " fill="#FEFFDD" style="stroke:#181818;stroke-width:0.5;"/><path d="M254,87 L254,97 L264,97 L254,87 " fill="#FEFFDD" style="stroke:#181818;stroke-width:0.5;"/><text fill="#000000" font-family="sans-serif" font-size="13" lengthAdjust="spacing" textLength="92" x="152" y="105.4951">Done := FALSE</text><text fill="#000000" font-family="sans-serif" font-size="13" lengthAdjust="spacing" textLength="97" x="152" y="121.8467">Active := FALSE</text><text fill="#000000" font-family="sans-serif" font-size="13" lengthAdjust="spacing" textLength="90" x="152" y="138.1982">Error := FALSE</text></g><g id="Error"><rect fill="#F1F1F1" height="50" rx="12.5" ry="12.5" style="stroke:#181818;stroke-width:0.5;" width="52" x="159" y="502.5"/><line style="stroke:#181818;stroke-width:0.5;" x1="159" x2="211" y1="530.1094" y2="530.1094"/><text fill="#000000" font-family="sans-serif" font-size="14" lengthAdjust="spacing" textLength="32" x="169" y="522.0332">Error</text></g><g id="InOp"><rect fill="#F1F1F1" height="50" rx="12.5" ry="12.5" style="stroke:#181818;stroke-width:0.5;" width="50" x="270" y="365.5"/><line style="stroke:#181818;stroke-width:0.5;" x1="270" x2="320" y1="393.1094" y2="393.1094"/><text fill="#000000" font-family="sans-serif" font-size="14" lengthAdjust="spacing" textLength="30" x="280" y="385.0332">InOp</text></g><g id="elem_GMN15"><path d="M150.5,224 L150.5,283.0547 A0,0 0 0 0 150.5,283.0547 L263.5,283.0547 A0,0 0 0 0 263.5,283.0547 L263.5,257.5 L298.55,253.5 L263.5,249.5 L263.5,234 L253.5,224 L150.5,224 A0,0 0 0 0 150.5,224 " fill="#FEFFDD" style="stroke:#181818;stroke-width:0.5;"/><path d="M253.5,224 L253.5,234 L263.5,234 L253.5,224 " fill="#FEFFDD" style="stroke:#181818;stroke-width:0.5;"/><text fill="#000000" font-family="sans-serif" font-size="13" lengthAdjust="spacing" textLength="92" x="156.5" y="242.4951">Done := FALSE</text><text fill="#000000" font-family="sans-serif" font-size="13" lengthAdjust="spacing" textLength="89" x="156.5" y="258.8467">Active := TRUE</text><text fill="#000000" font-family="sans-serif" font-size="13" lengthAdjust="spacing" textLength="90" x="156.5" y="275.1982">Error := FALSE</text></g><g id="Done"><rect fill="#F1F1F1" height="50" rx="12.5" ry="12.5" style="stroke:#181818;stroke-width:0.5;" width="54" x="439" y="502.5"/><line style="stroke:#181818;stroke-width:0.5;" x1="439" x2="493" y1="530.1094" y2="530.1094"/><text fill="#000000" font-family="sans-serif" font-size="14" lengthAdjust="spacing" textLength="34" x="449" y="522.0332">Done</text></g><g id="elem_GMN22"><path d="M355.5,361 L355.5,386.5 L320.14,390.5 L355.5,394.5 L355.5,420.0547 A0,0 0 0 0 355.5,420.0547 L468.5,420.0547 A0,0 0 0 0 468.5,420.0547 L468.5,371 L458.5,361 L355.5,361 A0,0 0 0 0 355.5,361 " fill="#FEFFDD" style="stroke:#181818;stroke-width:0.5;"/><path d="M458.5,361 L458.5,371 L468.5,371 L458.5,361 " fill="#FEFFDD" style="stroke:#181818;stroke-width:0.5;"/><text fill="#000000" font-family="sans-serif" font-size="13" lengthAdjust="spacing" textLength="92" x="361.5" y="379.4951">Done := FALSE</text><text fill="#000000" font-family="sans-serif" font-size="13" lengthAdjust="spacing" textLength="89" x="361.5" y="395.8467">Active := TRUE</text><text fill="#000000" font-family="sans-serif" font-size="13" lengthAdjust="spacing" textLength="90" x="361.5" y="412.1982">Error := FALSE</text></g><g id="elem_GMN26"><path d="M6,498 L6,557.0547 A0,0 0 0 0 6,557.0547 L124,557.0547 A0,0 0 0 0 124,557.0547 L124,531.5 L158.82,527.5 L124,523.5 L124,508 L114,498 L6,498 A0,0 0 0 0 6,498 " fill="#FEFFDD" style="stroke:#181818;stroke-width:0.5;"/><path d="M114,498 L114,508 L124,508 L114,498 " fill="#FEFFDD" style="stroke:#181818;stroke-width:0.5;"/><text fill="#000000" font-family="sans-serif" font-size="13" lengthAdjust="spacing" textLength="92" x="12" y="516.4951">Done := FALSE</text><text fill="#000000" font-family="sans-serif" font-size="13" lengthAdjust="spacing" textLength="97" x="12" y="532.8467">Active := FALSE</text><text fill="#000000" font-family="sans-serif" font-size="13" lengthAdjust="spacing" textLength="82" x="12" y="549.1982">Error := TRUE</text></g><g id="elem_GMN30"><path d="M528,498 L528,523.5 L493.41,527.5 L528,531.5 L528,557.0547 A0,0 0 0 0 528,557.0547 L646,557.0547 A0,0 0 0 0 646,557.0547 L646,508 L636,498 L528,498 A0,0 0 0 0 528,498 " fill="#FEFFDD" style="stroke:#181818;stroke-width:0.5;"/><path d="M636,498 L636,508 L646,508 L636,498 " fill="#FEFFDD" style="stroke:#181818;stroke-width:0.5;"/><text fill="#000000" font-family="sans-serif" font-size="13" lengthAdjust="spacing" textLength="84" x="534" y="516.4951">Done := TRUE</text><text fill="#000000" font-family="sans-serif" font-size="13" lengthAdjust="spacing" textLength="97" x="534" y="532.8467">Active := FALSE</text><text fill="#000000" font-family="sans-serif" font-size="13" lengthAdjust="spacing" textLength="90" x="534" y="549.1982">Error := FALSE</text></g><!--MD5=[38f1f8b7f214ff6bc6d4b705f682283d]
link *start to Idle--><g id="link_*start_Idle"><path d="M324,26.09 C324,39.61 324,65.63 324,86.13 " fill="none" id="*start-to-Idle" style="stroke:#181818;stroke-width:1.0;"/><polygon fill="#181818" points="324,91.21,328,82.21,324,86.21,320,82.21,324,91.21" style="stroke:#181818;stroke-width:1.0;"/></g><!--MD5=[c483c4ae74fec926d59f0822b1f495e5]
link Idle to Init--><g id="link_Idle_Init"><path d="M324,141.64 C324,164.43 324,198.68 324,223.07 " fill="none" id="Idle-to-Init" style="stroke:#181818;stroke-width:1.0;"/><polygon fill="#181818" points="324,228.12,328,219.12,324,223.12,320,219.12,324,228.12" style="stroke:#181818;stroke-width:1.0;"/><text fill="#000000" font-family="sans-serif" font-size="13" lengthAdjust="spacing" textLength="56" x="325" y="190.4951">Execute↑</text></g><!--MD5=[bd12965add74b7222f32f77a96cf6dc4]
link Init to Init--><g id="link_Init_Init"><path d="M349.28,242 C366.77,238.51 384,242.34 384,253.5 C384,263.52 370.09,267.64 354.58,265.84 " fill="none" id="Init-to-Init" style="stroke:#181818;stroke-width:1.0;"/><polygon fill="#181818" points="349.28,265,357.5404,270.3633,354.218,265.7849,358.7964,262.4625,349.28,265" style="stroke:#181818;stroke-width:1.0;"/><text fill="#000000" font-family="sans-serif" font-size="13" lengthAdjust="spacing" textLength="56" x="390" y="258.9951">Execute↑</text></g><!--MD5=[9b2089483e046c7da07ed58cc10578b5]
link Init to Error--><g id="link_Init_Error"><path d="M298.88,272.69 C266.45,296.77 212.85,338.77 202,361 C180.65,404.73 180.04,462.59 182.12,497.03 " fill="none" id="Init-to-Error" style="stroke:#181818;stroke-width:1.0;"/><polygon fill="#181818" points="182.47,502.36,185.8712,493.1171,182.1421,497.3708,177.8885,493.6417,182.47,502.36" style="stroke:#181818;stroke-width:1.0;"/><text fill="#000000" font-family="sans-serif" font-size="13" lengthAdjust="spacing" textLength="48" x="203" y="395.9951">SetError</text></g><!--MD5=[f440e933f9adc1f3fb1d6aa11db3ea69]
link Init to InOp--><g id="link_Init_InOp"><path d="M328.99,278.66 C331.24,293.91 332.49,313.89 328,331 C325.28,341.37 320.25,351.84 314.93,361 " fill="none" id="Init-to-InOp" style="stroke:#181818;stroke-width:1.0;"/><polygon fill="#181818" points="312.3,365.38,320.3604,359.7205,314.8725,361.0925,313.5005,355.6046,312.3,365.38" style="stroke:#181818;stroke-width:1.0;"/></g><!--MD5=[2030fd0d69df6d564598fdb912bef869]
link InOp to Init--><g id="link_InOp_Init"><path d="M273.95,365.38 C263.45,350.32 254.44,330.53 262,313 C268.79,297.25 282.14,283.77 294.72,273.73 " fill="none" id="InOp-to-Init" style="stroke:#181818;stroke-width:1.0;"/><polygon fill="#181818" points="298.95,270.46,289.3824,272.7969,294.9933,273.5168,294.2733,279.1277,298.95,270.46" style="stroke:#181818;stroke-width:1.0;"/><text fill="#000000" font-family="sans-serif" font-size="13" lengthAdjust="spacing" textLength="56" x="263" y="327.4951">Execute↑</text></g><!--MD5=[38a26ef7e800c480e9040d68c41cbbf2]
link InOp to Done--><g id="link_InOp_Done"><path d="M320.23,411.42 C350.64,435.43 401.74,475.77 434.65,501.75 " fill="none" id="InOp-to-Done" style="stroke:#181818;stroke-width:1.0;"/><polygon fill="#181818" points="438.97,505.16,434.3826,496.4448,435.0449,502.0627,429.4269,502.725,438.97,505.16" style="stroke:#181818;stroke-width:1.0;"/></g><!--MD5=[5d13da41f4a119d5370f98a57bc14637]
link InOp to Error--><g id="link_InOp_Error"><path d="M275.33,415.64 C256.52,438.72 228.15,473.54 208.23,497.98 " fill="none" id="InOp-to-Error" style="stroke:#181818;stroke-width:1.0;"/><polygon fill="#181818" points="204.87,502.12,213.6578,497.6732,208.03,498.2451,207.458,492.6173,204.87,502.12" style="stroke:#181818;stroke-width:1.0;"/><text fill="#000000" font-family="sans-serif" font-size="13" lengthAdjust="spacing" textLength="48" x="248" y="464.4951">SetError</text></g><!--MD5=[7d364e43dace9a2f8df92504d800134c]
link Error to Idle--><g id="link_Error_Idle"><path d="M170.49,502.1 C140.34,447.89 78.08,315.02 133,224 C171.41,160.34 217.04,183.92 281,146 C285.39,143.4 289.96,140.54 294.41,137.67 " fill="none" id="Error-to-Idle" style="stroke:#181818;stroke-width:1.0;"/><polygon fill="#181818" points="298.8,134.81,289.0761,136.3739,294.6114,137.5405,293.4449,143.0757,298.8,134.81" style="stroke:#181818;stroke-width:1.0;"/><text fill="#000000" font-family="sans-serif" font-size="13" lengthAdjust="spacing" textLength="59" x="113" y="327.4951">Execute⓪</text></g><!--MD5=[a0216a370c53a1cd60a36707ce61fa83]
link Done to Idle--><g id="link_Done_Idle"><path d="M471.91,502.15 C476.8,480.68 483.35,448.47 486,420 C494.19,331.97 498.97,298.91 452,224 C427.29,184.59 383.08,152.65 353.64,134.36 " fill="none" id="Done-to-Idle" style="stroke:#181818;stroke-width:1.0;"/><polygon fill="#181818" points="349.05,131.54,354.6383,139.65,353.3146,134.1501,358.8145,132.8265,349.05,131.54" style="stroke:#181818;stroke-width:1.0;"/><text fill="#000000" font-family="sans-serif" font-size="13" lengthAdjust="spacing" textLength="59" x="491" y="327.4951">Execute⓪</text></g><!--MD5=[5f6320e54f0ce7d8b12fb697c5e0e9e4]
@startuml

[*] - -> Idle
Idle - -> Init : Execute↑
note left of Idle
    Done := FALSE
    Active := FALSE
    Error := FALSE
end note

Init - -> Init : Execute↑
Init - -> Error : SetError
Init - -> InOp
note left of Init
    Done := FALSE
    Active := TRUE
    Error := FALSE
end note


InOp - -> Init : Execute↑
InOp - -> Done 
InOp - -> Error : SetError
note right of InOp
    Done := FALSE
    Active := TRUE
    Error := FALSE
end note

Error - -> Idle : Execute⓪
note left of Error
    Done := FALSE
    Active := FALSE
    Error := TRUE
end note

Done - -> Idle : Execute⓪
note right of Done
    Done := TRUE
    Active := FALSE
    Error := FALSE
end note
@enduml

PlantUML version 1.2022.7(Mon Aug 22 19:01:30 CEST 2022)
(GPL source distribution)
Java Runtime: Java(TM) SE Runtime Environment
JVM: Java HotSpot(TM) 64-Bit Server VM
Default Encoding: Cp1252
Language: en
Country: US
--></g></svg>