<?xml version="1.0" encoding="UTF-8" standalone="no"?><svg xmlns="http://www.w3.org/2000/svg" xmlns:xlink="http://www.w3.org/1999/xlink" contentStyleType="text/css" height="1083px" preserveAspectRatio="none" style="width:939px;height:1083px;background:#FFFFFF;" version="1.1" viewBox="0 0 939 1083" width="939px" zoomAndPan="magnify"><defs/><g><!--MD5=[9b35b1996bdcdedb9ca576914bae3eb6]
cluster PackML--><g id="cluster_PackML"><path d="M19.5,7 L913.5,7 A12.5,12.5 0 0 1 926,19.5 L926,34.6094 L7,34.6094 L7,19.5 A12.5,12.5 0 0 1 19.5,7 " fill="#F1F1F1" style="stroke:#F1F1F1;stroke-width:1.0;"/><rect fill="none" height="1070" rx="12.5" ry="12.5" style="stroke:#181818;stroke-width:0.5;" width="919" x="7" y="7"/><line style="stroke:#181818;stroke-width:0.5;" x1="7" x2="926" y1="34.6094" y2="34.6094"/><text fill="#000000" font-family="sans-serif" font-size="14" lengthAdjust="spacing" textLength="50" x="441.5" y="25.5332">PackML</text></g><!--MD5=[0bb4394d1c6f8231a4846519290236e6]
cluster Not_Abort--><g id="cluster_Not_Abort"><path d="M51.5,59 L799.5,59 A12.5,12.5 0 0 1 812,71.5 L812,86.6094 L39,86.6094 L39,71.5 A12.5,12.5 0 0 1 51.5,59 " fill="#F1F1F1" style="stroke:#F1F1F1;stroke-width:1.0;"/><rect fill="none" height="986" rx="12.5" ry="12.5" style="stroke:#181818;stroke-width:0.5;" width="773" x="39" y="59"/><line style="stroke:#181818;stroke-width:0.5;" x1="39" x2="812" y1="86.6094" y2="86.6094"/><text fill="#000000" font-family="sans-serif" font-size="14" lengthAdjust="spacing" textLength="63" x="394" y="77.5332">Not_Abort</text></g><!--MD5=[db3d2372d2f5570d97edfc4d4b04df9e]
cluster Not_Stop--><g id="cluster_Not_Stop"><path d="M91.5,119 L558.5,119 A12.5,12.5 0 0 1 571,131.5 L571,146.6094 L79,146.6094 L79,131.5 A12.5,12.5 0 0 1 91.5,119 " fill="#F1F1F1" style="stroke:#F1F1F1;stroke-width:1.0;"/><rect fill="none" height="886" rx="12.5" ry="12.5" style="stroke:#181818;stroke-width:0.5;" width="492" x="79" y="119"/><line style="stroke:#181818;stroke-width:0.5;" x1="79" x2="571" y1="146.6094" y2="146.6094"/><text fill="#000000" font-family="sans-serif" font-size="14" lengthAdjust="spacing" textLength="58" x="296" y="137.5332">Not_Stop</text></g><g id="PackML.Aborted"><rect fill="#90EE90" height="50" rx="12.5" ry="12.5" style="stroke:#181818;stroke-width:0.5;" width="70" x="837" y="419"/><line style="stroke:#181818;stroke-width:0.5;" x1="837" x2="907" y1="446.6094" y2="446.6094"/><text fill="#000000" font-family="sans-serif" font-size="14" lengthAdjust="spacing" textLength="50" x="847" y="438.5332">Aborted</text></g><g id="PackML.Aborting"><rect fill="#FFFFE0" height="50" rx="12.5" ry="12.5" style="stroke:#181818;stroke-width:0.5;" width="73" x="836.5" y="291"/><line style="stroke:#181818;stroke-width:0.5;" x1="836.5" x2="909.5" y1="318.6094" y2="318.6094"/><text fill="#000000" font-family="sans-serif" font-size="14" lengthAdjust="spacing" textLength="53" x="846.5" y="310.5332">Aborting</text></g><g id="PackML.Not_Abort.Clearing"><rect fill="#90EE90" height="50" rx="12.5" ry="12.5" style="stroke:#181818;stroke-width:0.5;" width="73" x="706.5" y="291"/><line style="stroke:#181818;stroke-width:0.5;" x1="706.5" x2="779.5" y1="318.6094" y2="318.6094"/><text fill="#000000" font-family="sans-serif" font-size="14" lengthAdjust="spacing" textLength="53" x="716.5" y="310.5332">Clearing</text></g><g id="PackML.Not_Abort.Stopping"><rect fill="#90EE90" height="50" rx="12.5" ry="12.5" style="stroke:#181818;stroke-width:0.5;" width="76" x="595" y="291"/><line style="stroke:#181818;stroke-width:0.5;" x1="595" x2="671" y1="318.6094" y2="318.6094"/><text fill="#000000" font-family="sans-serif" font-size="14" lengthAdjust="spacing" textLength="56" x="605" y="310.5332">Stopping</text></g><g id="PackML.Not_Abort.Stopped"><rect fill="#FFFFE0" height="50" rx="12.5" ry="12.5" style="stroke:#181818;stroke-width:0.5;" width="73" x="596.5" y="419"/><line style="stroke:#181818;stroke-width:0.5;" x1="596.5" x2="669.5" y1="446.6094" y2="446.6094"/><text fill="#000000" font-family="sans-serif" font-size="14" lengthAdjust="spacing" textLength="53" x="606.5" y="438.5332">Stopped</text></g><g id="PackML.Not_Abort.Not_Stop.Resetting"><rect fill="#90EE90" height="50" rx="12.5" ry="12.5" style="stroke:#181818;stroke-width:0.5;" width="80" x="413" y="163"/><line style="stroke:#181818;stroke-width:0.5;" x1="413" x2="493" y1="190.6094" y2="190.6094"/><text fill="#000000" font-family="sans-serif" font-size="14" lengthAdjust="spacing" textLength="60" x="423" y="182.5332">Resetting</text></g><g id="PackML.Not_Abort.Not_Stop.Idle"><rect fill="#FFFFE0" height="50" rx="12.5" ry="12.5" style="stroke:#181818;stroke-width:0.5;" width="50" x="356" y="291"/><line style="stroke:#181818;stroke-width:0.5;" x1="356" x2="406" y1="318.6094" y2="318.6094"/><text fill="#000000" font-family="sans-serif" font-size="14" lengthAdjust="spacing" textLength="22" x="370" y="310.5332">Idle</text></g><g id="PackML.Not_Abort.Not_Stop.Starting"><rect fill="#90EE90" height="50" rx="12.5" ry="12.5" style="stroke:#181818;stroke-width:0.5;" width="69" x="327.5" y="419"/><line style="stroke:#181818;stroke-width:0.5;" x1="327.5" x2="396.5" y1="446.6094" y2="446.6094"/><text fill="#000000" font-family="sans-serif" font-size="14" lengthAdjust="spacing" textLength="49" x="337.5" y="438.5332">Starting</text></g><g id="PackML.Not_Abort.Not_Stop.Execute"><rect fill="#87CEEB" height="50" rx="12.5" ry="12.5" style="stroke:#181818;stroke-width:0.5;" width="70" x="314" y="547"/><line style="stroke:#181818;stroke-width:0.5;" x1="314" x2="384" y1="574.6094" y2="574.6094"/><text fill="#000000" font-family="sans-serif" font-size="14" lengthAdjust="spacing" textLength="50" x="324" y="566.5332">Execute</text></g><g id="PackML.Not_Abort.Not_Stop.Completing"><rect fill="#90EE90" height="50" rx="12.5" ry="12.5" style="stroke:#181818;stroke-width:0.5;" width="91" x="410.5" y="675"/><line style="stroke:#181818;stroke-width:0.5;" x1="410.5" x2="501.5" y1="702.6094" y2="702.6094"/><text fill="#000000" font-family="sans-serif" font-size="14" lengthAdjust="spacing" textLength="71" x="420.5" y="694.5332">Completing</text></g><g id="PackML.Not_Abort.Not_Stop.Complete"><rect fill="#FFFFE0" height="50" rx="12.5" ry="12.5" style="stroke:#181818;stroke-width:0.5;" width="80" x="438" y="803"/><line style="stroke:#181818;stroke-width:0.5;" x1="438" x2="518" y1="830.6094" y2="830.6094"/><text fill="#000000" font-family="sans-serif" font-size="14" lengthAdjust="spacing" textLength="60" x="448" y="822.5332">Complete</text></g><g id="PackML.Not_Abort.Not_Stop.Suspending"><rect fill="#90EE90" height="50" rx="12.5" ry="12.5" style="stroke:#181818;stroke-width:0.5;" width="95" x="140.5" y="675"/><line style="stroke:#181818;stroke-width:0.5;" x1="140.5" x2="235.5" y1="702.6094" y2="702.6094"/><text fill="#000000" font-family="sans-serif" font-size="14" lengthAdjust="spacing" textLength="75" x="150.5" y="694.5332">Suspending</text></g><g id="PackML.Not_Abort.Not_Stop.Suspended"><rect fill="#FFFFE0" height="50" rx="12.5" ry="12.5" style="stroke:#181818;stroke-width:0.5;" width="92" x="161" y="803"/><line style="stroke:#181818;stroke-width:0.5;" x1="161" x2="253" y1="830.6094" y2="830.6094"/><text fill="#000000" font-family="sans-serif" font-size="14" lengthAdjust="spacing" textLength="72" x="171" y="822.5332">Suspended</text></g><g id="PackML.Not_Abort.Not_Stop.Unsuspending"><rect fill="#90EE90" height="50" rx="12.5" ry="12.5" style="stroke:#181818;stroke-width:0.5;" width="110" x="123" y="931"/><line style="stroke:#181818;stroke-width:0.5;" x1="123" x2="233" y1="958.6094" y2="958.6094"/><text fill="#000000" font-family="sans-serif" font-size="14" lengthAdjust="spacing" textLength="90" x="133" y="950.5332">Unsuspending</text></g><g id="PackML.Not_Abort.Not_Stop.Holding"><rect fill="#90EE90" height="50" rx="12.5" ry="12.5" style="stroke:#181818;stroke-width:0.5;" width="67" x="270.5" y="675"/><line style="stroke:#181818;stroke-width:0.5;" x1="270.5" x2="337.5" y1="702.6094" y2="702.6094"/><text fill="#000000" font-family="sans-serif" font-size="14" lengthAdjust="spacing" textLength="47" x="280.5" y="694.5332">Holding</text></g><g id="PackML.Not_Abort.Not_Stop.Held"><rect fill="#FFFFE0" height="50" rx="12.5" ry="12.5" style="stroke:#181818;stroke-width:0.5;" width="50" x="288" y="803"/><line style="stroke:#181818;stroke-width:0.5;" x1="288" x2="338" y1="830.6094" y2="830.6094"/><text fill="#000000" font-family="sans-serif" font-size="14" lengthAdjust="spacing" textLength="28" x="299" y="822.5332">Held</text></g><g id="PackML.Not_Abort.Not_Stop.Unholding"><rect fill="#90EE90" height="50" rx="12.5" ry="12.5" style="stroke:#181818;stroke-width:0.5;" width="83" x="293.5" y="931"/><line style="stroke:#181818;stroke-width:0.5;" x1="293.5" x2="376.5" y1="958.6094" y2="958.6094"/><text fill="#000000" font-family="sans-serif" font-size="14" lengthAdjust="spacing" textLength="63" x="303.5" y="950.5332">Unholding</text></g><!--MD5=[358d33d5be2bfe50f9e2a9d946886632]
link Aborting to Aborted--><g id="link_Aborting_Aborted"><path d="M872.81,341.29 C872.64,361.95 872.41,391.67 872.23,413.65 " fill="none" id="Aborting-to-Aborted" style="stroke:#181818;stroke-width:1.0;"/><polygon fill="#181818" points="872.19,418.78,876.2414,409.803,872.2186,413.7801,868.2415,409.7573,872.19,418.78" style="stroke:#181818;stroke-width:1.0;"/><text fill="#000000" font-family="sans-serif" font-size="13" lengthAdjust="spacing" textLength="18" x="873" y="385.4951">SC</text></g><!--MD5=[fbcf515a0d01444ffb09577cc6dcf6c1]
link Aborted to Clearing--><g id="link_Aborted_Clearing"><path d="M847.2,418.78 C825.63,397.71 794.37,367.17 771.71,345.05 " fill="none" id="Aborted-to-Clearing" style="stroke:#181818;stroke-width:1.0;"/><polygon fill="#181818" points="767.87,341.29,771.5169,350.4388,771.4482,344.7823,777.1046,344.7136,767.87,341.29" style="stroke:#181818;stroke-width:1.0;"/><text fill="#000000" font-family="sans-serif" font-size="13" lengthAdjust="spacing" textLength="30" x="817" y="385.4951">Clear</text></g><!--MD5=[bb5ed7178f616c45d501f66adadfbcd7]
link Not_Abort to Aborting--><g id="link_Not_Abort_Aborting"><path d="M812.052,203.7032 C812.1129,203.8143 812.174,203.9259 812.2354,204.038 C812.4809,204.4864 812.7307,204.9427 812.9848,205.4067 C814.001,207.2625 815.0842,209.2407 816.2241,211.3223 C818.5038,215.4855 821.0103,220.0628 823.6613,224.9038 C834.265,244.2675 847.18,267.85 857.14,286.03 " fill="none" id="Not_Abort-to-Aborting" style="stroke:#181818;stroke-width:1.0;"/><polygon fill="#181818" points="859.74,290.79,858.9285,280.9746,857.3397,286.4038,851.9106,284.8151,859.74,290.79" style="stroke:#181818;stroke-width:1.0;"/><text fill="#000000" font-family="sans-serif" font-size="13" lengthAdjust="spacing" textLength="31" x="843" y="257.4951">Abort</text></g><!--MD5=[263b4c614a9008070684fdd3dc5de50b]
link Not_Stop to Stopping--><g id="link_Not_Stop_Stopping"><path d="M571.078,223.063 C572.5481,226.4103 574.1216,229.7456 575.7762,233.0538 C579.0856,239.67 582.72,246.1775 586.5025,252.455 C594.0675,265.01 602.225,276.645 609.56,286.39 " fill="none" id="Not_Stop-to-Stopping" style="stroke:#181818;stroke-width:1.0;"/><polygon fill="#181818" points="612.83,290.68,610.5532,281.0979,609.7981,286.7042,604.1918,285.949,612.83,290.68" style="stroke:#181818;stroke-width:1.0;"/><text fill="#000000" font-family="sans-serif" font-size="13" lengthAdjust="spacing" textLength="27" x="593" y="257.4951">Stop</text></g><!--MD5=[314b05feb8b2ab7712ce77abebbbf0ca]
link Clearing to Stopped--><g id="link_Clearing_Stopped"><path d="M721.79,341.29 C703.45,362.3 676.93,392.67 657.66,414.76 " fill="none" id="Clearing-to-Stopped" style="stroke:#181818;stroke-width:1.0;"/><polygon fill="#181818" points="654.14,418.78,663.0679,414.6216,657.4244,415.01,657.036,409.3665,654.14,418.78" style="stroke:#181818;stroke-width:1.0;"/><text fill="#000000" font-family="sans-serif" font-size="13" lengthAdjust="spacing" textLength="18" x="696" y="385.4951">SC</text></g><!--MD5=[6ebd39b14f61ad847253a4f08a842b2a]
link Stopping to Stopped--><g id="link_Stopping_Stopped"><path d="M633,341.29 C633,361.95 633,391.67 633,413.65 " fill="none" id="Stopping-to-Stopped" style="stroke:#181818;stroke-width:1.0;"/><polygon fill="#181818" points="633,418.78,637,409.78,633,413.78,629,409.78,633,418.78" style="stroke:#181818;stroke-width:1.0;"/><text fill="#000000" font-family="sans-serif" font-size="13" lengthAdjust="spacing" textLength="18" x="634" y="385.4951">SC</text></g><!--MD5=[dced50cef0b6a9e0732a7b327080f4d2]
link Stopped to Resetting--><g id="link_Stopped_Resetting"><path d="M608.39,418.68 C588.91,398.76 561.63,369.34 541,341 C511.4,300.35 483.43,249.01 467.26,217.61 " fill="none" id="Stopped-to-Resetting" style="stroke:#181818;stroke-width:1.0;"/><polygon fill="#181818" points="464.96,213.12,465.4826,222.955,467.2303,217.5749,472.6104,219.3226,464.96,213.12" style="stroke:#181818;stroke-width:1.0;"/><text fill="#000000" font-family="sans-serif" font-size="13" lengthAdjust="spacing" textLength="34" x="542" y="321.4951">Reset</text></g><!--MD5=[eb530dfad7a32e183e9788e6474c61f7]
link Resetting to Idle--><g id="link_Resetting_Idle"><path d="M439.12,213.29 C427.21,234.12 410.04,264.17 397.45,286.21 " fill="none" id="Resetting-to-Idle" style="stroke:#181818;stroke-width:1.0;"/><polygon fill="#181818" points="394.84,290.78,402.7823,284.956,397.3238,286.4405,395.8392,280.982,394.84,290.78" style="stroke:#181818;stroke-width:1.0;"/><text fill="#000000" font-family="sans-serif" font-size="13" lengthAdjust="spacing" textLength="18" x="423" y="257.4951">SC</text></g><!--MD5=[5038e0717032de67f19838e91765af9d]
link Idle to Starting--><g id="link_Idle_Starting"><path d="M377.34,341.29 C374.22,361.95 369.74,391.67 366.43,413.65 " fill="none" id="Idle-to-Starting" style="stroke:#181818;stroke-width:1.0;"/><polygon fill="#181818" points="365.65,418.78,370.9432,410.4744,366.3931,413.8355,363.032,409.2855,365.65,418.78" style="stroke:#181818;stroke-width:1.0;"/><text fill="#000000" font-family="sans-serif" font-size="13" lengthAdjust="spacing" textLength="28" x="374" y="385.4951">Start</text></g><!--MD5=[ee9dfe91c61498c6dc6ce567e849f9a1]
link Starting to Execute--><g id="link_Starting_Execute"><path d="M359.49,469.29 C357.36,489.95 354.3,519.67 352.03,541.65 " fill="none" id="Starting-to-Execute" style="stroke:#181818;stroke-width:1.0;"/><polygon fill="#181818" points="351.5,546.78,356.4049,538.2394,352.0145,541.8065,348.4473,537.4162,351.5,546.78" style="stroke:#181818;stroke-width:1.0;"/><text fill="#000000" font-family="sans-serif" font-size="13" lengthAdjust="spacing" textLength="18" x="358" y="513.4951">SC</text></g><!--MD5=[5d108c04d5308aa07d315ce4383d9409]
link Execute to Completing--><g id="link_Execute_Completing"><path d="M369.63,597.29 C387.47,618.3 413.26,648.67 432.02,670.76 " fill="none" id="Execute-to-Completing" style="stroke:#181818;stroke-width:1.0;"/><polygon fill="#181818" points="435.43,674.78,432.6685,665.3262,432.1996,670.9636,426.5623,670.4948,435.43,674.78" style="stroke:#181818;stroke-width:1.0;"/><text fill="#000000" font-family="sans-serif" font-size="13" lengthAdjust="spacing" textLength="18" x="410" y="641.4951">SC</text></g><!--MD5=[8ed3465459568614e79e179f7cec5a24]
link Completing to Complete--><g id="link_Completing_Complete"><path d="M460.24,725.29 C463.85,745.95 469.04,775.67 472.88,797.65 " fill="none" id="Completing-to-Complete" style="stroke:#181818;stroke-width:1.0;"/><polygon fill="#181818" points="473.77,802.78,476.1419,793.221,472.8994,797.8564,468.2641,794.6139,473.77,802.78" style="stroke:#181818;stroke-width:1.0;"/><text fill="#000000" font-family="sans-serif" font-size="13" lengthAdjust="spacing" textLength="18" x="470" y="769.4951">SC</text></g><!--MD5=[956e78ede7f5659d8916f25895f25758]
link Complete to Resetting--><g id="link_Complete_Resetting"><path d="M490.87,802.66 C500.77,782.49 513.63,752.73 519,725 C523.22,703.18 521.23,697.11 519,675 C503.85,524.86 468.3,491.55 458,341 C455.09,298.42 453.86,249.01 453.35,218.37 " fill="none" id="Complete-to-Resetting" style="stroke:#181818;stroke-width:1.0;"/><polygon fill="#181818" points="453.27,213.25,449.399,222.3062,453.3414,218.2495,457.3982,222.1919,453.27,213.25" style="stroke:#181818;stroke-width:1.0;"/><text fill="#000000" font-family="sans-serif" font-size="13" lengthAdjust="spacing" textLength="34" x="490" y="513.4951">Reset</text></g><!--MD5=[4485ecc75ff44620cd730f1317712c6e]
link Execute to Suspending--><g id="link_Execute_Suspending"><path d="M313.6,593 C297.63,602.57 278.84,614.63 263,627 C245.96,640.3 228.46,656.91 214.64,670.82 " fill="none" id="Execute-to-Suspending" style="stroke:#181818;stroke-width:1.0;"/><polygon fill="#181818" points="210.85,674.67,220.0208,671.0788,214.364,671.1131,214.3298,665.4564,210.85,674.67" style="stroke:#181818;stroke-width:1.0;"/><text fill="#000000" font-family="sans-serif" font-size="13" lengthAdjust="spacing" textLength="51" x="264" y="641.4951">Suspend</text></g><!--MD5=[b26ffef586bf79efda77bbb3d9d6360e]
link Suspending to Suspended--><g id="link_Suspending_Suspended"><path d="M191.66,725.29 C194.78,745.95 199.26,775.67 202.57,797.65 " fill="none" id="Suspending-to-Suspended" style="stroke:#181818;stroke-width:1.0;"/><polygon fill="#181818" points="203.35,802.78,205.968,793.2855,202.6069,797.8355,198.0568,794.4744,203.35,802.78" style="stroke:#181818;stroke-width:1.0;"/><text fill="#000000" font-family="sans-serif" font-size="13" lengthAdjust="spacing" textLength="18" x="200" y="769.4951">SC</text></g><!--MD5=[67c4ca6aaad7313bcc3a54eb78099aa1]
link Suspended to Unsuspending--><g id="link_Suspended_Unsuspending"><path d="M201.41,853.29 C196.65,873.95 189.81,903.67 184.75,925.65 " fill="none" id="Suspended-to-Unsuspending" style="stroke:#181818;stroke-width:1.0;"/><polygon fill="#181818" points="183.57,930.78,189.4761,922.8985,184.6849,925.9059,181.6775,921.1147,183.57,930.78" style="stroke:#181818;stroke-width:1.0;"/><text fill="#000000" font-family="sans-serif" font-size="13" lengthAdjust="spacing" textLength="71" x="196" y="897.4951">Un-Suspend</text></g><!--MD5=[42f6713f96820c0f6e70aea185888412]
link Unsuspending to Execute--><g id="link_Unsuspending_Execute"><path d="M162.38,930.69 C131.48,879.22 69.92,757.19 123,675 C164.17,611.24 255.83,586.92 308.91,577.96 " fill="none" id="Unsuspending-to-Execute" style="stroke:#181818;stroke-width:1.0;"/><polygon fill="#181818" points="313.92,577.14,304.3895,574.6561,308.9865,577.9527,305.6899,582.5497,313.92,577.14" style="stroke:#181818;stroke-width:1.0;"/><text fill="#000000" font-family="sans-serif" font-size="13" lengthAdjust="spacing" textLength="18" x="105" y="769.4951">SC</text></g><!--MD5=[cb4b195c04c28784d2a1fc7a870d6391]
link Execute to Holding--><g id="link_Execute_Holding"><path d="M340.32,597.29 C332.92,618.04 322.24,647.92 314.38,669.93 " fill="none" id="Execute-to-Holding" style="stroke:#181818;stroke-width:1.0;"/><polygon fill="#181818" points="312.65,674.78,319.4467,667.6523,314.3335,670.0719,311.9138,664.9587,312.65,674.78" style="stroke:#181818;stroke-width:1.0;"/><text fill="#000000" font-family="sans-serif" font-size="13" lengthAdjust="spacing" textLength="26" x="331" y="641.4951">Hold</text></g><!--MD5=[20c26656f3b623840ca7444289793088]
link Holding to Held--><g id="link_Holding_Held"><path d="M305.74,725.29 C307.21,745.95 309.33,775.67 310.9,797.65 " fill="none" id="Holding-to-Held" style="stroke:#181818;stroke-width:1.0;"/><polygon fill="#181818" points="311.27,802.78,314.6167,793.5172,310.9127,797.7928,306.6372,794.0888,311.27,802.78" style="stroke:#181818;stroke-width:1.0;"/><text fill="#000000" font-family="sans-serif" font-size="13" lengthAdjust="spacing" textLength="18" x="311" y="769.4951">SC</text></g><!--MD5=[a6101e96897044d7bb8ccdeee0e92818]
link Held to Unholding--><g id="link_Held_Unholding"><path d="M312.75,853.19 C313,867.26 314,885.26 317,901 C318.58,909.28 321.11,918.04 323.77,926.03 " fill="none" id="Held-to-Unholding" style="stroke:#181818;stroke-width:1.0;"/><polygon fill="#181818" points="325.44,930.9,326.3268,921.0911,323.829,926.1667,318.7534,923.6688,325.44,930.9" style="stroke:#181818;stroke-width:1.0;"/><text fill="#000000" font-family="sans-serif" font-size="13" lengthAdjust="spacing" textLength="46" x="318" y="897.4951">Un-Hold</text></g><!--MD5=[83a4dbf56a46b9bd7b1cd0e15dd17a5f]
link Unholding to Execute--><g id="link_Unholding_Execute"><path d="M354.25,930.87 C360.19,922 365.96,911.54 369,901 C371.22,893.31 369.05,891 369,883 C368.33,769.22 383.94,739.36 366,627 C364.68,618.72 362.35,609.96 359.83,601.97 " fill="none" id="Unholding-to-Execute" style="stroke:#181818;stroke-width:1.0;"/><polygon fill="#181818" points="358.25,597.1,357.2217,606.895,359.7925,601.8561,364.8314,604.427,358.25,597.1" style="stroke:#181818;stroke-width:1.0;"/><text fill="#000000" font-family="sans-serif" font-size="13" lengthAdjust="spacing" textLength="18" x="375" y="769.4951">SC</text></g><!--MD5=[84eb390b224470ca59a9a6a6f45f133d]
@startuml


State PackML{
    State Aborted #LightGreen
    State Aborting #LightYellow

    state Not_Abort {
        state Clearing #LightGreen
        state Stopping #LightGreen
        state Stopped #LightYellow

            state Not_Stop {
            state Resetting #LightGreen
            state Idle #LightYellow
            State Starting #LightGreen
            State Execute #SkyBlue
            State Completing #LightGreen
            State Complete #LightYellow

            State Suspending #LightGreen
            State Suspended #LightYellow
            State Unsuspending #LightGreen

            State Holding #LightGreen
            State Held #LightYellow
            State Unholding #LightGreen
        }
    }
}

Aborting - -> Aborted : SC
Aborted - -> Clearing : Clear
Not_Abort - -> Aborting : Abort

Not_Stop - -> Stopping : Stop

Clearing - -> Stopped : SC

Stopping - -> Stopped : SC

Stopped - -> Resetting : Reset
Resetting - -> Idle : SC
Idle - -> Starting : Start
Starting - -> Execute : SC
Execute - -> Completing : SC
Completing - -> Complete : SC
Complete - -> Resetting : Reset

Execute - -> Suspending : Suspend
Suspending - -> Suspended : SC
Suspended - -> Unsuspending : Un-Suspend
Unsuspending - -> Execute : SC

Execute - -> Holding : Hold
Holding - -> Held : SC
Held - -> Unholding : Un-Hold
Unholding - -> Execute : SC

@enduml

PlantUML version 1.2022.7(Mon Aug 22 19:01:30 CEST 2022)
(GPL source distribution)
Java Runtime: Java(TM) SE Runtime Environment
JVM: Java HotSpot(TM) 64-Bit Server VM
Default Encoding: Cp1252
Language: en
Country: US
--></g></svg>