<?xml version="1.0" encoding="UTF-8" standalone="no"?><svg xmlns="http://www.w3.org/2000/svg" xmlns:xlink="http://www.w3.org/1999/xlink" contentStyleType="text/css" height="299px" preserveAspectRatio="none" style="width:264px;height:299px;background:#FFFFFF;" version="1.1" viewBox="0 0 264 299" width="264px" zoomAndPan="magnify"><defs/><g><ellipse cx="135.5" cy="20" fill="#222222" rx="10" ry="10" style="stroke:#222222;stroke-width:1.0;"/><rect fill="#F1F1F1" height="35.0938" rx="12.5" ry="12.5" style="stroke:#181818;stroke-width:0.5;" width="107" x="82" y="50"/><text fill="#000000" font-family="sans-serif" font-size="12" lengthAdjust="spacing" textLength="84" x="95" y="72.457">diCounter := 33</text><rect fill="#F1F1F1" height="35.0938" rx="12.5" ry="12.5" style="stroke:#181818;stroke-width:0.5;" width="181" x="45" y="166.9297"/><text fill="#000000" font-family="sans-serif" font-size="12" lengthAdjust="spacing" textLength="158" x="58" y="189.3867">diNumber1 := diNumber1 * 2</text><rect fill="#F1F1F1" height="35.0938" rx="12.5" ry="12.5" style="stroke:#181818;stroke-width:0.5;" width="164" x="53.5" y="230.6055"/><text fill="#000000" font-family="sans-serif" font-size="12" lengthAdjust="spacing" textLength="141" x="66.5" y="253.0625">diCounter := diCounter - 1</text><polygon fill="#F1F1F1" points="100.5,105.0938,170.5,105.0938,182.5,117.0938,170.5,129.0938,100.5,129.0938,88.5,117.0938,100.5,105.0938" style="stroke:#181818;stroke-width:0.5;"/><text fill="#000000" font-family="sans-serif" font-size="11" lengthAdjust="spacing" textLength="18" x="139.5" y="140.5127">yes</text><text fill="#000000" font-family="sans-serif" font-size="11" lengthAdjust="spacing" textLength="70" x="100.5" y="121.5947">diCounter &lt;&gt; 0</text><text fill="#000000" font-family="sans-serif" font-size="11" lengthAdjust="spacing" textLength="12" x="76.5" y="114.6768">no</text><ellipse cx="24" cy="164.0938" fill="none" rx="11" ry="11" style="stroke:#222222;stroke-width:1.0;"/><ellipse cx="24" cy="164.0938" fill="#222222" rx="6" ry="6" style="stroke:#111111;stroke-width:1.0;"/><line style="stroke:#181818;stroke-width:1.0;" x1="135.5" x2="135.5" y1="30" y2="50"/><polygon fill="#181818" points="131.5,40,135.5,50,139.5,40,135.5,44" style="stroke:#181818;stroke-width:1.0;"/><line style="stroke:#181818;stroke-width:1.0;" x1="135.5" x2="135.5" y1="202.0234" y2="230.6055"/><polygon fill="#181818" points="131.5,220.6055,135.5,230.6055,139.5,220.6055,135.5,224.6055" style="stroke:#181818;stroke-width:1.0;"/><line style="stroke:#181818;stroke-width:1.0;" x1="135.5" x2="135.5" y1="129.0938" y2="166.9297"/><polygon fill="#181818" points="131.5,156.9297,135.5,166.9297,139.5,156.9297,135.5,160.9297" style="stroke:#181818;stroke-width:1.0;"/><line style="stroke:#181818;stroke-width:1.0;" x1="135.5" x2="135.5" y1="265.6992" y2="275.6992"/><line style="stroke:#181818;stroke-width:1.0;" x1="135.5" x2="238" y1="275.6992" y2="275.6992"/><polygon fill="#181818" points="234,210.6055,238,200.6055,242,210.6055,238,206.6055" style="stroke:#181818;stroke-width:1.0;"/><line style="stroke:#181818;stroke-width:1.0;" x1="238" x2="238" y1="117.0938" y2="275.6992"/><line style="stroke:#181818;stroke-width:1.0;" x1="238" x2="182.5" y1="117.0938" y2="117.0938"/><polygon fill="#181818" points="192.5,113.0938,182.5,117.0938,192.5,121.0938,188.5,117.0938" style="stroke:#181818;stroke-width:1.0;"/><line style="stroke:#181818;stroke-width:1.0;" x1="88.5" x2="24" y1="117.0938" y2="117.0938"/><line style="stroke:#181818;stroke-width:1.0;" x1="24" x2="24" y1="117.0938" y2="153.0938"/><polygon fill="#181818" points="20,143.0938,24,153.0938,28,143.0938,24,147.0938" style="stroke:#181818;stroke-width:1.0;"/><line style="stroke:#181818;stroke-width:1.0;" x1="135.5" x2="135.5" y1="85.0938" y2="105.0938"/><polygon fill="#181818" points="131.5,95.0938,135.5,105.0938,139.5,95.0938,135.5,99.0938" style="stroke:#181818;stroke-width:1.0;"/><!--MD5=[a1d45288173666c3809de5cb9781647b]
@startuml

start
: diCounter := 33;

while (diCounter <> 0) is (yes)
    : diNumber1 := diNumber1 * 2;
    : diCounter := diCounter - 1;
endwhile (no)

stop

@enduml

PlantUML version 1.2022.7(Mon Aug 22 19:01:30 CEST 2022)
(GPL source distribution)
Java Runtime: Java(TM) SE Runtime Environment
JVM: Java HotSpot(TM) 64-Bit Server VM
Default Encoding: Cp1252
Language: en
Country: US
--></g></svg>