<?xml version="1.0" encoding="UTF-8" standalone="no"?><svg xmlns="http://www.w3.org/2000/svg" xmlns:xlink="http://www.w3.org/1999/xlink" contentStyleType="text/css" height="540px" preserveAspectRatio="none" style="width:333px;height:540px;background:#FFFFFF;" version="1.1" viewBox="0 0 333 540" width="333px" zoomAndPan="magnify"><defs/><g><ellipse cx="136" cy="16" fill="#222222" rx="10" ry="10" style="stroke:none;stroke-width:1.0;"/><g id="Red"><rect fill="#F1F1F1" height="50" rx="12.5" ry="12.5" style="stroke:#181818;stroke-width:0.5;" width="50" x="111" y="103"/><line style="stroke:#181818;stroke-width:0.5;" x1="111" x2="161" y1="129.4883" y2="129.4883"/><text fill="#000000" font-family="sans-serif" font-size="14" lengthAdjust="spacing" textLength="26" x="123" y="121.5352">Red</text></g><g id="Red_Orange"><rect fill="#F1F1F1" height="50" rx="12.5" ry="12.5" style="stroke:#181818;stroke-width:0.5;" width="104" x="7" y="230"/><line style="stroke:#181818;stroke-width:0.5;" x1="7" x2="111" y1="256.4883" y2="256.4883"/><text fill="#000000" font-family="sans-serif" font-size="14" lengthAdjust="spacing" textLength="84" x="17" y="248.5352">Red_Orange</text></g><g id="Green"><rect fill="#F1F1F1" height="50" rx="12.5" ry="12.5" style="stroke:#181818;stroke-width:0.5;" width="61" x="37.5" y="357"/><line style="stroke:#181818;stroke-width:0.5;" x1="37.5" x2="98.5" y1="383.4883" y2="383.4883"/><text fill="#000000" font-family="sans-serif" font-size="14" lengthAdjust="spacing" textLength="41" x="47.5" y="375.5352">Green</text></g><g id="Orange"><rect fill="#F1F1F1" height="50" rx="12.5" ry="12.5" style="stroke:#181818;stroke-width:0.5;" width="71" x="107.5" y="484"/><line style="stroke:#181818;stroke-width:0.5;" x1="107.5" x2="178.5" y1="510.4883" y2="510.4883"/><text fill="#000000" font-family="sans-serif" font-size="14" lengthAdjust="spacing" textLength="51" x="117.5" y="502.5352">Orange</text></g><!--MD5=[e35b66e0063287e085b5001d30eee575]
link *start to Red--><g id="link_*start_Red"><path d="M136,26.38 C136,41.67 136,72.63 136,96.2 " fill="none" id="*start-to-Red" style="stroke:#181818;stroke-width:1.0;"/><polygon fill="#181818" points="136,101.11,140,92.11,136,96.11,132,92.11,136,101.11" style="stroke:#181818;stroke-width:1.0;"/><text fill="#000000" font-family="sans-serif" font-size="13" lengthAdjust="spacing" textLength="111" x="137" y="69.5684">bConditionEnable</text></g><!--MD5=[96023adb00c566295a75dc77d61aee5c]
link Red to Red_Orange--><g id="link_Red_Red_Orange"><path d="M110.73,137.53 C90.8,145.75 64.38,160.33 52,183 C45.37,195.15 45.86,210.21 48.52,223.34 " fill="none" id="Red-to-Red_Orange" style="stroke:#181818;stroke-width:1.0;"/><polygon fill="#181818" points="49.63,228.13,51.4686,218.4543,48.488,223.2622,43.6801,220.2815,49.63,228.13" style="stroke:#181818;stroke-width:1.0;"/><text fill="#000000" font-family="sans-serif" font-size="13" lengthAdjust="spacing" textLength="138" x="53" y="196.5684">bConditionRedOrange</text></g><!--MD5=[5ec0c675c82efd6699afb3df43f00f91]
link Red_Orange to Green--><g id="link_Red_Orange_Green"><path d="M58.54,280.35 C58.49,294.08 58.75,311.52 60,327 C60.61,334.6 61.63,342.76 62.74,350.37 " fill="none" id="Red_Orange-to-Green" style="stroke:#181818;stroke-width:1.0;"/><polygon fill="#181818" points="63.46,355.12,66.0512,345.6181,62.7029,350.1776,58.1434,346.8294,63.46,355.12" style="stroke:#181818;stroke-width:1.0;"/><text fill="#000000" font-family="sans-serif" font-size="13" lengthAdjust="spacing" textLength="113" x="61" y="323.5684">bConditionGreeen</text></g><!--MD5=[b63fb22d2da254250bf9875ba424ca74]
link Green to Orange--><g id="link_Green_Orange"><path d="M65.82,407.39 C65.61,421.77 67.29,439.86 75,454 C81.39,465.72 91.48,475.79 101.97,483.95 " fill="none" id="Green-to-Orange" style="stroke:#181818;stroke-width:1.0;"/><polygon fill="#181818" points="105.91,486.9,101.0757,478.3193,101.898,483.916,96.3013,484.7384,105.91,486.9" style="stroke:#181818;stroke-width:1.0;"/><text fill="#000000" font-family="sans-serif" font-size="13" lengthAdjust="spacing" textLength="115" x="76" y="450.5684">bConditionOrange</text></g><!--MD5=[ab5540a5f9db0eec30a41b250d3ade33]
link Orange to Red--><g id="link_Orange_Red"><path d="M174.76,483.68 C183.3,475.31 191.43,465.19 196,454 C241.57,342.51 245,293.03 196,183 C189.76,169 177.9,157.1 166.36,148.07 " fill="none" id="Orange-to-Red" style="stroke:#181818;stroke-width:1.0;"/><polygon fill="#181818" points="162.67,145.29,167.4552,153.8982,166.6648,148.2969,172.2662,147.5065,162.67,145.29" style="stroke:#181818;stroke-width:1.0;"/><text fill="#000000" font-family="sans-serif" font-size="13" lengthAdjust="spacing" textLength="93" x="232" y="323.5684">bConditionRed</text></g><!--MD5=[6f7f021f9d441069264cf096e86803f4]
@startuml

[*] - -> Red : bConditionEnable
Red - -> Red_Orange : bConditionRedOrange
Red_Orange - -> Green : bConditionGreeen
Green - -> Orange : bConditionOrange
Orange - ->  Red : bConditionRed

@enduml

PlantUML version 1.2022.7(Mon Aug 22 19:01:30 CEST 2022)
(GPL source distribution)
Java Runtime: OpenJDK Runtime Environment
JVM: OpenJDK 64-Bit Server VM
Default Encoding: UTF-8
Language: fr
Country: CH
--></g></svg>