<?xml version="1.0" encoding="UTF-8" standalone="no"?><svg xmlns="http://www.w3.org/2000/svg" xmlns:xlink="http://www.w3.org/1999/xlink" contentStyleType="text/css" height="148px" preserveAspectRatio="none" style="width:697px;height:148px;background:#FFFFFF;" version="1.1" viewBox="0 0 697 148" width="697px" zoomAndPan="magnify"><defs/><g><line style="stroke:#333333;stroke-width:0.5;" x1="10" x2="10" y1="10" y2="117.6094"/><line style="stroke:#333333;stroke-width:0.5;" x1="685" x2="685" y1="10" y2="117.6094"/><line style="stroke:#333333;stroke-width:0.5;stroke-dasharray:3.0,5.0;" x1="130" x2="130" y1="10" y2="117.6094"/><line style="stroke:#333333;stroke-width:0.5;stroke-dasharray:3.0,5.0;" x1="180" x2="180" y1="10" y2="117.6094"/><line style="stroke:#333333;stroke-width:0.5;stroke-dasharray:3.0,5.0;" x1="230" x2="230" y1="10" y2="117.6094"/><line style="stroke:#333333;stroke-width:0.5;stroke-dasharray:3.0,5.0;" x1="280" x2="280" y1="10" y2="117.6094"/><line style="stroke:#333333;stroke-width:0.5;stroke-dasharray:3.0,5.0;" x1="330" x2="330" y1="10" y2="117.6094"/><line style="stroke:#333333;stroke-width:0.5;stroke-dasharray:3.0,5.0;" x1="380" x2="380" y1="10" y2="117.6094"/><line style="stroke:#333333;stroke-width:0.5;stroke-dasharray:3.0,5.0;" x1="430" x2="430" y1="10" y2="117.6094"/><line style="stroke:#333333;stroke-width:0.5;stroke-dasharray:3.0,5.0;" x1="480" x2="480" y1="10" y2="117.6094"/><line style="stroke:#333333;stroke-width:0.5;stroke-dasharray:3.0,5.0;" x1="530" x2="530" y1="10" y2="117.6094"/><line style="stroke:#333333;stroke-width:0.5;stroke-dasharray:3.0,5.0;" x1="580" x2="580" y1="10" y2="117.6094"/><line style="stroke:#333333;stroke-width:0.5;stroke-dasharray:3.0,5.0;" x1="630" x2="630" y1="10" y2="117.6094"/><line style="stroke:#333333;stroke-width:0.5;stroke-dasharray:3.0,5.0;" x1="680" x2="680" y1="10" y2="117.6094"/><line style="stroke:#333333;stroke-width:0.5;" x1="10" x2="685" y1="10" y2="10"/><text fill="#333333" font-family="sans-serif" font-size="14" font-weight="bold" lengthAdjust="spacing" textLength="115" x="15" y="24.5332">CycleTime_10ms</text><line style="stroke:#333333;stroke-width:0.5;" x1="10" x2="131" y1="28.6094" y2="28.6094"/><line style="stroke:#333333;stroke-width:0.5;" x1="131" x2="141" y1="28.6094" y2="10"/><line style="stroke:#006400;stroke-width:1.5;" x1="130" x2="130" y1="35.6094" y2="49.6094"/><line style="stroke:#006400;stroke-width:1.5;" x1="130" x2="155" y1="35.6094" y2="35.6094"/><line style="stroke:#006400;stroke-width:1.5;" x1="155" x2="155" y1="35.6094" y2="49.6094"/><line style="stroke:#006400;stroke-width:1.5;" x1="155" x2="180" y1="49.6094" y2="49.6094"/><line style="stroke:#006400;stroke-width:1.5;" x1="180" x2="180" y1="35.6094" y2="49.6094"/><line style="stroke:#006400;stroke-width:1.5;" x1="180" x2="205" y1="35.6094" y2="35.6094"/><line style="stroke:#006400;stroke-width:1.5;" x1="205" x2="205" y1="35.6094" y2="49.6094"/><line style="stroke:#006400;stroke-width:1.5;" x1="205" x2="230" y1="49.6094" y2="49.6094"/><line style="stroke:#006400;stroke-width:1.5;" x1="230" x2="230" y1="35.6094" y2="49.6094"/><line style="stroke:#006400;stroke-width:1.5;" x1="230" x2="255" y1="35.6094" y2="35.6094"/><line style="stroke:#006400;stroke-width:1.5;" x1="255" x2="255" y1="35.6094" y2="49.6094"/><line style="stroke:#006400;stroke-width:1.5;" x1="255" x2="280" y1="49.6094" y2="49.6094"/><line style="stroke:#006400;stroke-width:1.5;" x1="280" x2="280" y1="35.6094" y2="49.6094"/><line style="stroke:#006400;stroke-width:1.5;" x1="280" x2="305" y1="35.6094" y2="35.6094"/><line style="stroke:#006400;stroke-width:1.5;" x1="305" x2="305" y1="35.6094" y2="49.6094"/><line style="stroke:#006400;stroke-width:1.5;" x1="305" x2="330" y1="49.6094" y2="49.6094"/><line style="stroke:#006400;stroke-width:1.5;" x1="330" x2="330" y1="35.6094" y2="49.6094"/><line style="stroke:#006400;stroke-width:1.5;" x1="330" x2="355" y1="35.6094" y2="35.6094"/><line style="stroke:#006400;stroke-width:1.5;" x1="355" x2="355" y1="35.6094" y2="49.6094"/><line style="stroke:#006400;stroke-width:1.5;" x1="355" x2="380" y1="49.6094" y2="49.6094"/><line style="stroke:#006400;stroke-width:1.5;" x1="380" x2="380" y1="35.6094" y2="49.6094"/><line style="stroke:#006400;stroke-width:1.5;" x1="380" x2="405" y1="35.6094" y2="35.6094"/><line style="stroke:#006400;stroke-width:1.5;" x1="405" x2="405" y1="35.6094" y2="49.6094"/><line style="stroke:#006400;stroke-width:1.5;" x1="405" x2="430" y1="49.6094" y2="49.6094"/><line style="stroke:#006400;stroke-width:1.5;" x1="430" x2="430" y1="35.6094" y2="49.6094"/><line style="stroke:#006400;stroke-width:1.5;" x1="430" x2="455" y1="35.6094" y2="35.6094"/><line style="stroke:#006400;stroke-width:1.5;" x1="455" x2="455" y1="35.6094" y2="49.6094"/><line style="stroke:#006400;stroke-width:1.5;" x1="455" x2="480" y1="49.6094" y2="49.6094"/><line style="stroke:#006400;stroke-width:1.5;" x1="480" x2="480" y1="35.6094" y2="49.6094"/><line style="stroke:#006400;stroke-width:1.5;" x1="480" x2="505" y1="35.6094" y2="35.6094"/><line style="stroke:#006400;stroke-width:1.5;" x1="505" x2="505" y1="35.6094" y2="49.6094"/><line style="stroke:#006400;stroke-width:1.5;" x1="505" x2="530" y1="49.6094" y2="49.6094"/><line style="stroke:#006400;stroke-width:1.5;" x1="530" x2="530" y1="35.6094" y2="49.6094"/><line style="stroke:#006400;stroke-width:1.5;" x1="530" x2="555" y1="35.6094" y2="35.6094"/><line style="stroke:#006400;stroke-width:1.5;" x1="555" x2="555" y1="35.6094" y2="49.6094"/><line style="stroke:#006400;stroke-width:1.5;" x1="555" x2="580" y1="49.6094" y2="49.6094"/><line style="stroke:#006400;stroke-width:1.5;" x1="580" x2="580" y1="35.6094" y2="49.6094"/><line style="stroke:#006400;stroke-width:1.5;" x1="580" x2="605" y1="35.6094" y2="35.6094"/><line style="stroke:#006400;stroke-width:1.5;" x1="605" x2="605" y1="35.6094" y2="49.6094"/><line style="stroke:#006400;stroke-width:1.5;" x1="605" x2="630" y1="49.6094" y2="49.6094"/><line style="stroke:#006400;stroke-width:1.5;" x1="630" x2="630" y1="35.6094" y2="49.6094"/><line style="stroke:#006400;stroke-width:1.5;" x1="630" x2="655" y1="35.6094" y2="35.6094"/><line style="stroke:#006400;stroke-width:1.5;" x1="655" x2="655" y1="35.6094" y2="49.6094"/><line style="stroke:#006400;stroke-width:1.5;" x1="655" x2="680" y1="49.6094" y2="49.6094"/><line style="stroke:#006400;stroke-width:1.5;" x1="680" x2="680" y1="35.6094" y2="49.6094"/><line style="stroke:#006400;stroke-width:1.5;" x1="680" x2="680" y1="35.6094" y2="35.6094"/><line style="stroke:#333333;stroke-width:0.5;" x1="10" x2="685" y1="57.6094" y2="57.6094"/><text fill="#333333" font-family="sans-serif" font-size="14" font-weight="bold" lengthAdjust="spacing" textLength="36" x="15" y="78.3379">Input</text><line style="stroke:#006400;stroke-width:2.0;" x1="130" x2="130" y1="79.6094" y2="79.6094"/><line style="stroke:#006400;stroke-width:2.0;" x1="130" x2="280" y1="79.6094" y2="79.6094"/><line style="stroke:#006400;stroke-width:2.0;" x1="280" x2="280" y1="65.6094" y2="79.6094"/><line style="stroke:#006400;stroke-width:2.0;" x1="280" x2="330" y1="65.6094" y2="65.6094"/><line style="stroke:#006400;stroke-width:2.0;" x1="330" x2="630" y1="65.6094" y2="65.6094"/><line style="stroke:#006400;stroke-width:2.0;" x1="630" x2="630" y1="65.6094" y2="79.6094"/><line style="stroke:#006400;stroke-width:2.0;" x1="630" x2="680" y1="79.6094" y2="79.6094"/><line style="stroke:#333333;stroke-width:0.5;" x1="10" x2="685" y1="87.6094" y2="87.6094"/><text fill="#333333" font-family="sans-serif" font-size="14" font-weight="bold" lengthAdjust="spacing" textLength="48" x="15" y="108.3379">Output</text><line style="stroke:#006400;stroke-width:2.0;" x1="130" x2="130" y1="109.6094" y2="109.6094"/><line style="stroke:#006400;stroke-width:2.0;" x1="130" x2="280" y1="109.6094" y2="109.6094"/><line style="stroke:#006400;stroke-width:2.0;" x1="280" x2="280" y1="95.6094" y2="109.6094"/><line style="stroke:#006400;stroke-width:2.0;" x1="280" x2="330" y1="95.6094" y2="95.6094"/><line style="stroke:#006400;stroke-width:2.0;" x1="330" x2="330" y1="95.6094" y2="109.6094"/><line style="stroke:#006400;stroke-width:2.0;" x1="330" x2="630" y1="109.6094" y2="109.6094"/><line style="stroke:#006400;stroke-width:2.0;" x1="630" x2="680" y1="109.6094" y2="109.6094"/><line style="stroke:#333333;stroke-width:2.0;" x1="130" x2="130" y1="117.6094" y2="122.6094"/><line style="stroke:#333333;stroke-width:2.0;" x1="180" x2="180" y1="117.6094" y2="122.6094"/><line style="stroke:#333333;stroke-width:2.0;" x1="230" x2="230" y1="117.6094" y2="122.6094"/><line style="stroke:#333333;stroke-width:2.0;" x1="280" x2="280" y1="117.6094" y2="122.6094"/><line style="stroke:#333333;stroke-width:2.0;" x1="330" x2="330" y1="117.6094" y2="122.6094"/><line style="stroke:#333333;stroke-width:2.0;" x1="380" x2="380" y1="117.6094" y2="122.6094"/><line style="stroke:#333333;stroke-width:2.0;" x1="430" x2="430" y1="117.6094" y2="122.6094"/><line style="stroke:#333333;stroke-width:2.0;" x1="480" x2="480" y1="117.6094" y2="122.6094"/><line style="stroke:#333333;stroke-width:2.0;" x1="530" x2="530" y1="117.6094" y2="122.6094"/><line style="stroke:#333333;stroke-width:2.0;" x1="580" x2="580" y1="117.6094" y2="122.6094"/><line style="stroke:#333333;stroke-width:2.0;" x1="630" x2="630" y1="117.6094" y2="122.6094"/><line style="stroke:#333333;stroke-width:2.0;" x1="680" x2="680" y1="117.6094" y2="122.6094"/><line style="stroke:#333333;stroke-width:2.0;" x1="130" x2="680" y1="117.6094" y2="117.6094"/><text fill="#333333" font-family="sans-serif" font-size="11" lengthAdjust="spacing" textLength="6" x="127" y="135.0283">0</text><text fill="#333333" font-family="sans-serif" font-size="11" lengthAdjust="spacing" textLength="12" x="174" y="135.0283">10</text><text fill="#333333" font-family="sans-serif" font-size="11" lengthAdjust="spacing" textLength="12" x="274" y="135.0283">30</text><text fill="#333333" font-family="sans-serif" font-size="11" lengthAdjust="spacing" textLength="12" x="324" y="135.0283">40</text><text fill="#333333" font-family="sans-serif" font-size="11" lengthAdjust="spacing" textLength="18" x="621" y="135.0283">100</text><!--MD5=[242562d578aa4e999873dd3e76a1f5aa]
@startuml
clock   "CycleTime_10ms" as C0 with period 10
binary  "Input"  as B
binary  "Output"  as C


@0
B is Idle
C is Idle


@30
B is high
C is high

@40
B is high
C is Idle

@100
B is Idle
C is Idle
@enduml

PlantUML version 1.2022.7(Mon Aug 22 19:01:30 CEST 2022)
(GPL source distribution)
Java Runtime: Java(TM) SE Runtime Environment
JVM: Java HotSpot(TM) 64-Bit Server VM
Default Encoding: Cp1252
Language: en
Country: US
--></g></svg>