<?xml version="1.0" encoding="UTF-8" standalone="no"?><svg xmlns="http://www.w3.org/2000/svg" xmlns:xlink="http://www.w3.org/1999/xlink" contentStyleType="text/css" height="222px" preserveAspectRatio="none" style="width:899px;height:222px;background:#FFFFFF;" version="1.1" viewBox="0 0 899 222" width="899px" zoomAndPan="magnify"><defs/><g><ellipse cx="32" cy="16" fill="#222222" rx="10" ry="10" style="stroke:none;stroke-width:1.0;"/><g id="Idle"><rect fill="#F1F1F1" height="50" rx="12.5" ry="12.5" style="stroke:#181818;stroke-width:0.5;" width="50" x="7" y="86"/><line style="stroke:#181818;stroke-width:0.5;" x1="7" x2="57" y1="113.6094" y2="113.6094"/><text fill="#000000" font-family="sans-serif" font-size="14" lengthAdjust="spacing" textLength="22" x="21" y="105.5332">Idle</text></g><g id="MoveOne"><rect fill="#F1F1F1" height="50" rx="12.5" ry="12.5" style="stroke:#181818;stroke-width:0.5;" width="81" x="92.5" y="86"/><line style="stroke:#181818;stroke-width:0.5;" x1="92.5" x2="173.5" y1="113.6094" y2="113.6094"/><text fill="#000000" font-family="sans-serif" font-size="14" lengthAdjust="spacing" textLength="61" x="102.5" y="105.5332">MoveOne</text></g><g id="MoveOneCheckDone"><rect fill="#F1F1F1" height="50" rx="12.5" ry="12.5" style="stroke:#181818;stroke-width:0.5;" width="155" x="208.5" y="86"/><line style="stroke:#181818;stroke-width:0.5;" x1="208.5" x2="363.5" y1="113.6094" y2="113.6094"/><text fill="#000000" font-family="sans-serif" font-size="14" lengthAdjust="spacing" textLength="135" x="218.5" y="105.5332">MoveOneCheckDone</text></g><g id="MoveTwo"><rect fill="#F1F1F1" height="50" rx="12.5" ry="12.5" style="stroke:#181818;stroke-width:0.5;" width="80" x="399" y="86"/><line style="stroke:#181818;stroke-width:0.5;" x1="399" x2="479" y1="113.6094" y2="113.6094"/><text fill="#000000" font-family="sans-serif" font-size="14" lengthAdjust="spacing" textLength="60" x="409" y="105.5332">MoveTwo</text></g><g id="MoveTwoCheckDone"><rect fill="#F1F1F1" height="50" rx="12.5" ry="12.5" style="stroke:#181818;stroke-width:0.5;" width="154" x="514" y="86"/><line style="stroke:#181818;stroke-width:0.5;" x1="514" x2="668" y1="113.6094" y2="113.6094"/><text fill="#000000" font-family="sans-serif" font-size="14" lengthAdjust="spacing" textLength="134" x="524" y="105.5332">MoveTwoCheckDone</text></g><g id="ErrorStop"><rect fill="#F1F1F1" height="50" rx="12.5" ry="12.5" style="stroke:#181818;stroke-width:0.5;" width="81" x="703.5" y="86"/><line style="stroke:#181818;stroke-width:0.5;" x1="703.5" x2="784.5" y1="113.6094" y2="113.6094"/><text fill="#000000" font-family="sans-serif" font-size="14" lengthAdjust="spacing" textLength="61" x="713.5" y="105.5332">ErrorStop</text></g><g id="Stopped"><rect fill="#F1F1F1" height="50" rx="12.5" ry="12.5" style="stroke:#181818;stroke-width:0.5;" width="73" x="819.5" y="86"/><line style="stroke:#181818;stroke-width:0.5;" x1="819.5" x2="892.5" y1="113.6094" y2="113.6094"/><text fill="#000000" font-family="sans-serif" font-size="14" lengthAdjust="spacing" textLength="53" x="829.5" y="105.5332">Stopped</text></g><ellipse cx="856" cy="206" fill="none" rx="10" ry="10" style="stroke:#222222;stroke-width:1.0;"/><ellipse cx="856.5" cy="206.5" fill="#222222" rx="6" ry="6" style="stroke:none;stroke-width:1.0;"/><!--MD5=[38f1f8b7f214ff6bc6d4b705f682283d]
link *start to Idle--><g id="link_*start_Idle"><path d="M32,26.26 C32,38.86 32,61.98 32,80.74 " fill="none" id="*start-to-Idle" style="stroke:#181818;stroke-width:1.0;"/><polygon fill="#181818" points="32,85.91,36,76.91,32,80.91,28,76.91,32,85.91" style="stroke:#181818;stroke-width:1.0;"/></g><!--MD5=[46959b6fe3b119d8b333b6296a9cd1e2]
link Idle to MoveOne--><g id="link_Idle_MoveOne"><path d="M57.25,111 C67.25,111 77.24,111 87.24,111 " fill="none" id="Idle-to-MoveOne" style="stroke:#181818;stroke-width:1.0;"/><polygon fill="#181818" points="92.46,111,83.46,107,87.46,111,83.46,115,92.46,111" style="stroke:#181818;stroke-width:1.0;"/></g><!--MD5=[ba04e1ccba7713b8cc6532138b1b3771]
link MoveOne to MoveOneCheckDone--><g id="link_MoveOne_MoveOneCheckDone"><path d="M173.64,111 C183.48,111 193.33,111 203.17,111 " fill="none" id="MoveOne-to-MoveOneCheckDone" style="stroke:#181818;stroke-width:1.0;"/><polygon fill="#181818" points="208.31,111,199.31,107,203.31,111,199.31,115,208.31,111" style="stroke:#181818;stroke-width:1.0;"/></g><!--MD5=[f2578c244c54c1b570ea2e636a95bcd2]
link MoveOneCheckDone to MoveTwo--><g id="link_MoveOneCheckDone_MoveTwo"><path d="M363.7,111 C373.72,111 383.73,111 393.75,111 " fill="none" id="MoveOneCheckDone-to-MoveTwo" style="stroke:#181818;stroke-width:1.0;"/><polygon fill="#181818" points="398.99,111,389.99,107,393.99,111,389.99,115,398.99,111" style="stroke:#181818;stroke-width:1.0;"/></g><!--MD5=[1cfe003fbc9653bee56aa9b294bb74d7]
link MoveTwo to MoveTwoCheckDone--><g id="link_MoveTwo_MoveTwoCheckDone"><path d="M479.08,111 C488.88,111 498.69,111 508.49,111 " fill="none" id="MoveTwo-to-MoveTwoCheckDone" style="stroke:#181818;stroke-width:1.0;"/><polygon fill="#181818" points="513.62,111,504.62,107,508.62,111,504.62,115,513.62,111" style="stroke:#181818;stroke-width:1.0;"/></g><!--MD5=[d9596a7691362289f624540e2f61dfcb]
link MoveTwoCheckDone to ErrorStop--><g id="link_MoveTwoCheckDone_ErrorStop"><path d="M668.1,111 C678.11,111 688.13,111 698.14,111 " fill="none" id="MoveTwoCheckDone-to-ErrorStop" style="stroke:#181818;stroke-width:1.0;"/><polygon fill="#181818" points="703.38,111,694.38,107,698.38,111,694.38,115,703.38,111" style="stroke:#181818;stroke-width:1.0;"/></g><!--MD5=[78206ff04ef9e85d105810c46a8562cf]
link ErrorStop to Stopped--><g id="link_ErrorStop_Stopped"><path d="M784.69,111 C794.49,111 804.3,111 814.1,111 " fill="none" id="ErrorStop-to-Stopped" style="stroke:#181818;stroke-width:1.0;"/><polygon fill="#181818" points="819.23,111,810.23,107,814.23,111,810.23,115,819.23,111" style="stroke:#181818;stroke-width:1.0;"/></g><!--MD5=[fa4bf149a40dcd4cb096fb2651590497]
link Stopped to *end--><g id="link_Stopped_*end"><path d="M856,136.43 C856,153.54 856,175.83 856,190.27 " fill="none" id="Stopped-to-*end" style="stroke:#181818;stroke-width:1.0;"/><polygon fill="#181818" points="856,195.58,860,186.58,856,190.58,852,186.58,856,195.58" style="stroke:#181818;stroke-width:1.0;"/></g><!--MD5=[3ddbe62c563c821deb53b6c1a340d43b]
@startuml

[*] - -> Idle
Idle -> MoveOne
MoveOne -> MoveOneCheckDone
MoveOneCheckDone -> MoveTwo
MoveTwo -> MoveTwoCheckDone
MoveTwoCheckDone -> ErrorStop
ErrorStop -> Stopped
Stopped - -> [*]

@enduml

PlantUML version 1.2022.7(Mon Aug 22 19:01:30 CEST 2022)
(GPL source distribution)
Java Runtime: Java(TM) SE Runtime Environment
JVM: Java HotSpot(TM) 64-Bit Server VM
Default Encoding: Cp1252
Language: en
Country: US
--></g></svg>