<?xml version="1.0" encoding="UTF-8" standalone="no"?><svg xmlns="http://www.w3.org/2000/svg" xmlns:xlink="http://www.w3.org/1999/xlink" contentStyleType="text/css" height="413px" preserveAspectRatio="none" style="width:173px;height:413px;background:#FFFFFF;" version="1.1" viewBox="0 0 173 413" width="173px" zoomAndPan="magnify"><defs/><g><ellipse cx="77.5" cy="20" fill="#222222" rx="10" ry="10" style="stroke:#222222;stroke-width:1.0;"/><rect fill="#F1F1F1" height="35.0938" rx="12.5" ry="12.5" style="stroke:#181818;stroke-width:0.5;" width="61" x="47" y="50"/><text fill="#000000" font-family="sans-serif" font-size="12" lengthAdjust="spacing" textLength="41" x="57" y="72.457">Init Axis</text><rect fill="#F1F1F1" height="35.0938" rx="12.5" ry="12.5" style="stroke:#181818;stroke-width:0.5;" width="91" x="32" y="105.0938"/><text fill="#000000" font-family="sans-serif" font-size="12" lengthAdjust="spacing" textLength="53" x="42" y="127.5508">Move Axis</text><text fill="#000000" font-family="sans-serif" font-size="12" font-weight="bold" lengthAdjust="spacing" textLength="15" x="98" y="127.5508">Up</text><rect fill="#F1F1F1" height="35.0938" rx="12.5" ry="12.5" style="stroke:#181818;stroke-width:0.5;" width="111" x="22" y="204.1875"/><text fill="#000000" font-family="sans-serif" font-size="12" lengthAdjust="spacing" textLength="91" x="32" y="226.6445">Axis Sychronized</text><polygon fill="#F1F1F1" points="77.5,160.1875,89.5,172.1875,77.5,184.1875,65.5,172.1875,77.5,160.1875" style="stroke:#181818;stroke-width:0.5;"/><polygon fill="#F1F1F1" points="32,259.2813,123,259.2813,135,271.2813,123,283.2813,32,283.2813,20,271.2813,32,259.2813" style="stroke:#181818;stroke-width:0.5;"/><text fill="#000000" font-family="sans-serif" font-size="11" lengthAdjust="spacing" textLength="91" x="32" y="275.7822">Still synchronized?</text><text fill="#000000" font-family="sans-serif" font-size="11" lengthAdjust="spacing" textLength="18" x="135" y="268.8643">yes</text><rect fill="#F1F1F1" height="35.0938" rx="12.5" ry="12.5" style="stroke:#181818;stroke-width:0.5;" width="113" x="21" y="325.5342"/><text fill="#000000" font-family="sans-serif" font-size="12" lengthAdjust="spacing" textLength="90" x="34" y="347.9912">Emergency Stop</text><ellipse cx="77.5" cy="391.6279" fill="none" rx="11" ry="11" style="stroke:#222222;stroke-width:1.0;"/><ellipse cx="77.5" cy="391.6279" fill="#222222" rx="6" ry="6" style="stroke:#111111;stroke-width:1.0;"/><line style="stroke:#181818;stroke-width:1.0;" x1="77.5" x2="77.5" y1="30" y2="50"/><polygon fill="#181818" points="73.5,40,77.5,50,81.5,40,77.5,44" style="stroke:#181818;stroke-width:1.0;"/><line style="stroke:#181818;stroke-width:1.0;" x1="77.5" x2="77.5" y1="85.0938" y2="105.0938"/><polygon fill="#181818" points="73.5,95.0938,77.5,105.0938,81.5,95.0938,77.5,99.0938" style="stroke:#181818;stroke-width:1.0;"/><line style="stroke:#181818;stroke-width:1.0;" x1="77.5" x2="77.5" y1="184.1875" y2="204.1875"/><polygon fill="#181818" points="73.5,194.1875,77.5,204.1875,81.5,194.1875,77.5,198.1875" style="stroke:#181818;stroke-width:1.0;"/><line style="stroke:#181818;stroke-width:1.0;" x1="135" x2="147" y1="271.2813" y2="271.2813"/><polygon fill="#181818" points="143,231.7344,147,221.7344,151,231.7344,147,227.7344" style="stroke:#181818;stroke-width:1.0;"/><line style="stroke:#181818;stroke-width:1.0;" x1="147" x2="147" y1="172.1875" y2="271.2813"/><line style="stroke:#181818;stroke-width:1.0;" x1="147" x2="89.5" y1="172.1875" y2="172.1875"/><polygon fill="#181818" points="99.5,168.1875,89.5,172.1875,99.5,176.1875,95.5,172.1875" style="stroke:#181818;stroke-width:1.0;"/><line style="stroke:#181818;stroke-width:1.0;" x1="77.5" x2="77.5" y1="239.2813" y2="259.2813"/><polygon fill="#181818" points="73.5,249.2813,77.5,259.2813,81.5,249.2813,77.5,253.2813" style="stroke:#181818;stroke-width:1.0;"/><line style="stroke:#181818;stroke-width:1.0;" x1="77.5" x2="77.5" y1="140.1875" y2="160.1875"/><polygon fill="#181818" points="73.5,150.1875,77.5,160.1875,81.5,150.1875,77.5,154.1875" style="stroke:#181818;stroke-width:1.0;"/><line style="stroke:#181818;stroke-width:1.0;" x1="77.5" x2="77.5" y1="283.2813" y2="325.5342"/><polygon fill="#181818" points="73.5,315.5342,77.5,325.5342,81.5,315.5342,77.5,319.5342" style="stroke:#181818;stroke-width:1.0;"/><text fill="#000000" font-family="sans-serif" font-size="11" lengthAdjust="spacing" textLength="12" x="81.5" y="305.6172">no</text><line style="stroke:#181818;stroke-width:1.0;" x1="77.5" x2="77.5" y1="360.6279" y2="380.6279"/><polygon fill="#181818" points="73.5,370.6279,77.5,380.6279,81.5,370.6279,77.5,374.6279" style="stroke:#181818;stroke-width:1.0;"/><!--MD5=[c9f4f53a930fad277aea5e9a6f7d27bd]
@startuml
start
:Init Axis;
:Move Axis **Up**;
repeat
    :Axis Sychronized;
repeat while (Still synchronized?) is (yes)
->no;
: Emergency Stop;
stop
@enduml

PlantUML version 1.2022.7(Mon Aug 22 19:01:30 CEST 2022)
(GPL source distribution)
Java Runtime: Java(TM) SE Runtime Environment
JVM: Java HotSpot(TM) 64-Bit Server VM
Default Encoding: Cp1252
Language: en
Country: US
--></g></svg>