<?xml version="1.0" encoding="UTF-8" standalone="no"?><svg xmlns="http://www.w3.org/2000/svg" xmlns:xlink="http://www.w3.org/1999/xlink" contentStyleType="text/css" height="778px" preserveAspectRatio="none" style="width:503px;height:778px;background:#FFFFFF;" version="1.1" viewBox="0 0 503 778" width="503px" zoomAndPan="magnify"><defs/><g><ellipse cx="284" cy="16" fill="#222222" rx="10" ry="10" style="stroke:none;stroke-width:1.0;"/><g id="Idle"><rect fill="#F1F1F1" height="50" rx="12.5" ry="12.5" style="stroke:#181818;stroke-width:0.5;" width="50" x="259" y="87"/><line style="stroke:#181818;stroke-width:0.5;" x1="259" x2="309" y1="113.4883" y2="113.4883"/><text fill="#000000" font-family="sans-serif" font-size="14" lengthAdjust="spacing" textLength="25" x="271.5" y="105.5352">Idle</text></g><g id="Red"><rect fill="#F1F1F1" height="50" rx="12.5" ry="12.5" style="stroke:#181818;stroke-width:0.5;" width="50" x="126" y="214"/><line style="stroke:#181818;stroke-width:0.5;" x1="126" x2="176" y1="240.4883" y2="240.4883"/><text fill="#000000" font-family="sans-serif" font-size="14" lengthAdjust="spacing" textLength="26" x="138" y="232.5352">Red</text></g><g id="Red_Orange"><rect fill="#F1F1F1" height="50" rx="12.5" ry="12.5" style="stroke:#181818;stroke-width:0.5;" width="104" x="191" y="341"/><line style="stroke:#181818;stroke-width:0.5;" x1="191" x2="295" y1="367.4883" y2="367.4883"/><text fill="#000000" font-family="sans-serif" font-size="14" lengthAdjust="spacing" textLength="84" x="201" y="359.5352">Red_Orange</text></g><g id="Green"><rect fill="#F1F1F1" height="50" rx="12.5" ry="12.5" style="stroke:#181818;stroke-width:0.5;" width="61" x="212.5" y="468"/><line style="stroke:#181818;stroke-width:0.5;" x1="212.5" x2="273.5" y1="494.4883" y2="494.4883"/><text fill="#000000" font-family="sans-serif" font-size="14" lengthAdjust="spacing" textLength="41" x="222.5" y="486.5352">Green</text></g><g id="Orange"><rect fill="#F1F1F1" height="50" rx="12.5" ry="12.5" style="stroke:#181818;stroke-width:0.5;" width="71" x="121.5" y="595"/><line style="stroke:#181818;stroke-width:0.5;" x1="121.5" x2="192.5" y1="621.4883" y2="621.4883"/><text fill="#000000" font-family="sans-serif" font-size="14" lengthAdjust="spacing" textLength="51" x="131.5" y="613.5352">Orange</text></g><g id="Warning"><rect fill="#F1F1F1" height="50" rx="12.5" ry="12.5" style="stroke:#181818;stroke-width:0.5;" width="77" x="253.5" y="722"/><line style="stroke:#181818;stroke-width:0.5;" x1="253.5" x2="330.5" y1="748.4883" y2="748.4883"/><text fill="#000000" font-family="sans-serif" font-size="14" lengthAdjust="spacing" textLength="57" x="263.5" y="740.5352">Warning</text></g><!--MD5=[38f1f8b7f214ff6bc6d4b705f682283d]
link *start to Idle--><g id="link_*start_Idle"><path d="M284,26.36 C284,38.87 284,61.67 284,80.45 " fill="none" id="*start-to-Idle" style="stroke:#181818;stroke-width:1.0;"/><polygon fill="#181818" points="284,85.13,288,76.13,284,80.13,280,76.13,284,85.13" style="stroke:#181818;stroke-width:1.0;"/></g><!--MD5=[a7f0bc972e330f3e5d04cae512e71f1c]
link Idle to Red--><g id="link_Idle_Red"><path d="M258.67,136.81 C236.48,157.66 204.22,187.98 180.8,210 " fill="none" id="Idle-to-Red" style="stroke:#181818;stroke-width:1.0;"/><polygon fill="#181818" points="177.34,213.25,186.6353,209.9945,180.981,209.8232,181.1523,204.1689,177.34,213.25" style="stroke:#181818;stroke-width:1.0;"/><text fill="#000000" font-family="sans-serif" font-size="13" lengthAdjust="spacing" textLength="111" x="226" y="180.5684">bConditionEnable</text></g><!--MD5=[96023adb00c566295a75dc77d61aee5c]
link Red to Red_Orange--><g id="link_Red_Red_Orange"><path d="M168.96,264.4 C183.96,284.79 205.41,313.93 221.36,335.6 " fill="none" id="Red-to-Red_Orange" style="stroke:#181818;stroke-width:1.0;"/><polygon fill="#181818" points="224.19,339.44,222.0668,329.8227,221.2221,335.4162,215.6286,334.5714,224.19,339.44" style="stroke:#181818;stroke-width:1.0;"/><text fill="#000000" font-family="sans-serif" font-size="13" lengthAdjust="spacing" textLength="138" x="203" y="307.5684">bConditionRedOrange</text></g><!--MD5=[5ec0c675c82efd6699afb3df43f00f91]
link Red_Orange to Green--><g id="link_Red_Orange_Green"><path d="M243,391.4 C243,411.36 243,439.7 243,461.22 " fill="none" id="Red_Orange-to-Green" style="stroke:#181818;stroke-width:1.0;"/><polygon fill="#181818" points="243,466.15,247,457.15,243,461.15,239,457.15,243,466.15" style="stroke:#181818;stroke-width:1.0;"/><text fill="#000000" font-family="sans-serif" font-size="13" lengthAdjust="spacing" textLength="113" x="244" y="434.5684">bConditionGreeen</text></g><!--MD5=[b63fb22d2da254250bf9875ba424ca74]
link Green to Orange--><g id="link_Green_Orange"><path d="M212.38,503.63 C191.87,511.87 166.41,525.95 154,548 C147.19,560.1 146.95,575.29 148.81,588.51 " fill="none" id="Green-to-Orange" style="stroke:#181818;stroke-width:1.0;"/><polygon fill="#181818" points="149.63,593.33,152.0825,583.7914,148.8011,588.3992,144.1933,585.1177,149.63,593.33" style="stroke:#181818;stroke-width:1.0;"/><text fill="#000000" font-family="sans-serif" font-size="13" lengthAdjust="spacing" textLength="115" x="155" y="561.5684">bConditionOrange</text></g><!--MD5=[ab5540a5f9db0eec30a41b250d3ade33]
link Orange to Red--><g id="link_Orange_Red"><path d="M147.6,594.64 C144.53,585.49 141.52,574.91 140,565 C123.53,457.81 137.97,328.49 146.21,270.61 " fill="none" id="Orange-to-Red" style="stroke:#181818;stroke-width:1.0;"/><polygon fill="#181818" points="146.91,265.73,141.6673,274.0675,146.1969,270.6789,149.5855,275.2085,146.91,265.73" style="stroke:#181818;stroke-width:1.0;"/><text fill="#000000" font-family="sans-serif" font-size="13" lengthAdjust="spacing" textLength="93" x="133" y="434.5684">bConditionRed</text></g><!--MD5=[87832ffd3326bb69b0a76ed642ffa472]
link Idle to Warning--><g id="link_Idle_Warning"><path d="M309.38,118.84 C357.22,131.53 456,166.39 456,238 C456,238 456,238 456,621 C456,681.08 385.52,716.11 336.97,733.11 " fill="none" id="Idle-to-Warning" style="stroke:#181818;stroke-width:1.0;"/><polygon fill="#181818" points="332.3,734.7,342.112,735.5512,337.0275,733.0718,339.5069,727.9873,332.3,734.7" style="stroke:#181818;stroke-width:1.0;"/><text fill="#000000" font-family="sans-serif" font-size="13" lengthAdjust="spacing" textLength="38" x="457" y="434.5684">bError</text></g><!--MD5=[f348f7ce49a8037921c5d1ee00f30174]
link Red to Warning--><g id="link_Red_Warning"><path d="M125.74,248.55 C84.2,264.39 6,302.52 6,365 C6,365 6,365 6,621 C6,724.91 166.46,743.29 247,745.97 " fill="none" id="Red-to-Warning" style="stroke:#181818;stroke-width:1.0;"/><polygon fill="#181818" points="251.62,746.1,242.7383,741.8439,246.6221,745.9568,242.5091,749.8406,251.62,746.1" style="stroke:#181818;stroke-width:1.0;"/><text fill="#000000" font-family="sans-serif" font-size="13" lengthAdjust="spacing" textLength="38" x="7" y="498.0684">bError</text></g><!--MD5=[8964170d3b2c427d2b5fd7a54aae3c9c]
link Red_Orange to Warning--><g id="link_Red_Orange_Warning"><path d="M295.4,376.85 C320.36,384.45 347.99,397.79 363,421 C424.49,516.1 350.13,656.18 311.95,716.55 " fill="none" id="Red_Orange-to-Warning" style="stroke:#181818;stroke-width:1.0;"/><polygon fill="#181818" points="309.42,720.52,317.6301,715.0799,312.1072,716.3035,310.8836,710.7805,309.42,720.52" style="stroke:#181818;stroke-width:1.0;"/><text fill="#000000" font-family="sans-serif" font-size="13" lengthAdjust="spacing" textLength="38" x="383" y="561.5684">bError</text></g><!--MD5=[114f8c92cdd7570a49414b19f77e1f47]
link Green to Warning--><g id="link_Green_Warning"><path d="M260.63,518.43 C266.17,527.32 271.71,537.73 275,548 C293.3,605.07 294.59,675.85 293.53,715.47 " fill="none" id="Green-to-Warning" style="stroke:#181818;stroke-width:1.0;"/><polygon fill="#181818" points="293.39,720.04,297.6715,711.1705,293.5475,715.0425,289.6755,710.9185,293.39,720.04" style="stroke:#181818;stroke-width:1.0;"/><text fill="#000000" font-family="sans-serif" font-size="13" lengthAdjust="spacing" textLength="38" x="292" y="625.0684">bError</text></g><!--MD5=[4b6b64020efb2c389a61c7788f27fe71]
link Orange to Warning--><g id="link_Orange_Warning"><path d="M179.34,645.34 C192.54,659.37 209.79,677.12 226,692 C235.47,700.69 246.1,709.7 256.02,717.8 " fill="none" id="Orange-to-Warning" style="stroke:#181818;stroke-width:1.0;"/><polygon fill="#181818" points="259.65,720.75,255.1679,711.9801,255.7624,717.6057,250.1369,718.2002,259.65,720.75" style="stroke:#181818;stroke-width:1.0;"/><text fill="#000000" font-family="sans-serif" font-size="13" lengthAdjust="spacing" textLength="38" x="227" y="688.5684">bError</text></g><!--MD5=[e28fd479c20574b153dc49b4fe57e557]
@startuml

[*] - -> Idle
Idle - -> Red : bConditionEnable
Red - -> Red_Orange : bConditionRedOrange
Red_Orange - -> Green : bConditionGreeen
Green - -> Orange : bConditionOrange
Orange - ->  Red : bConditionRed

Idle - -> Warning : bError
Red - -> Warning : bError
Red_Orange - -> Warning : bError
Green - -> Warning : bError
Orange - ->  Warning : bError

@enduml

PlantUML version 1.2022.7(Mon Aug 22 19:01:30 CEST 2022)
(GPL source distribution)
Java Runtime: OpenJDK Runtime Environment
JVM: OpenJDK 64-Bit Server VM
Default Encoding: UTF-8
Language: fr
Country: CH
--></g></svg>