<?xml version="1.0" encoding="UTF-8" standalone="no"?><svg xmlns="http://www.w3.org/2000/svg" xmlns:xlink="http://www.w3.org/1999/xlink" contentStyleType="text/css" height="651px" preserveAspectRatio="none" style="width:897px;height:651px;background:#FFFFFF;" version="1.1" viewBox="0 0 897 651" width="897px" zoomAndPan="magnify"><defs/><g><ellipse cx="391.01" cy="16" fill="#222222" rx="10" ry="10" style="stroke:none;stroke-width:1.0;"/><g id="Idle"><rect fill="#F1F1F1" height="50" rx="12.5" ry="12.5" style="stroke:#181818;stroke-width:0.5;" width="50" x="366.01" y="87"/><line style="stroke:#181818;stroke-width:0.5;" x1="366.01" x2="416.01" y1="113.4883" y2="113.4883"/><text fill="#000000" font-family="sans-serif" font-size="14" lengthAdjust="spacing" textLength="25" x="378.51" y="105.5352">Idle</text></g><g id="Red"><rect fill="#F1F1F1" height="50" rx="12.5" ry="12.5" style="stroke:#181818;stroke-width:0.5;" width="50" x="158.01" y="214"/><line style="stroke:#181818;stroke-width:0.5;" x1="158.01" x2="208.01" y1="240.4883" y2="240.4883"/><text fill="#000000" font-family="sans-serif" font-size="14" lengthAdjust="spacing" textLength="26" x="170.01" y="232.5352">Red</text></g><g id="Red_Orange"><rect fill="#F1F1F1" height="50" rx="12.5" ry="12.5" style="stroke:#181818;stroke-width:0.5;" width="104" x="339.01" y="341"/><line style="stroke:#181818;stroke-width:0.5;" x1="339.01" x2="443.01" y1="367.4883" y2="367.4883"/><text fill="#000000" font-family="sans-serif" font-size="14" lengthAdjust="spacing" textLength="84" x="349.01" y="359.5352">Red_Orange</text></g><g id="Green"><rect fill="#F1F1F1" height="50" rx="12.5" ry="12.5" style="stroke:#181818;stroke-width:0.5;" width="61" x="475.51" y="468"/><line style="stroke:#181818;stroke-width:0.5;" x1="475.51" x2="536.51" y1="494.4883" y2="494.4883"/><text fill="#000000" font-family="sans-serif" font-size="14" lengthAdjust="spacing" textLength="41" x="485.51" y="486.5352">Green</text></g><g id="Orange"><rect fill="#F1F1F1" height="50" rx="12.5" ry="12.5" style="stroke:#181818;stroke-width:0.5;" width="71" x="470.51" y="595"/><line style="stroke:#181818;stroke-width:0.5;" x1="470.51" x2="541.51" y1="621.4883" y2="621.4883"/><text fill="#000000" font-family="sans-serif" font-size="14" lengthAdjust="spacing" textLength="51" x="480.51" y="613.5352">Orange</text></g><!--MD5=[38f1f8b7f214ff6bc6d4b705f682283d]
link *start to Idle--><g id="link_*start_Idle"><path d="M391.01,26.36 C391.01,38.87 391.01,61.67 391.01,80.45 " fill="none" id="*start-to-Idle" style="stroke:#181818;stroke-width:1.0;"/><polygon fill="#181818" points="391.01,85.13,395.01,76.13,391.01,80.13,387.01,76.13,391.01,85.13" style="stroke:#181818;stroke-width:1.0;"/></g><!--MD5=[a7f0bc972e330f3e5d04cae512e71f1c]
link Idle to Red--><g id="link_Idle_Red"><path d="M365.69,112.84 C292.35,112.98 82.26,117.75 40.01,167 C6,206.64 99.54,226.39 151.28,234.06 " fill="none" id="Idle-to-Red" style="stroke:#181818;stroke-width:1.0;"/><polygon fill="#181818" points="156.18,234.76,147.8446,229.5139,151.2314,234.0449,146.7004,237.4317,156.18,234.76" style="stroke:#181818;stroke-width:1.0;"/><text fill="#000000" font-family="sans-serif" font-size="13" lengthAdjust="spacing" textLength="111" x="41.01" y="180.5684">bConditionEnable</text></g><!--MD5=[9931ef995610784eb906457e841c5cb2]
link Red to Idle--><g id="link_Red_Idle"><path d="M180.15,213.52 C179.76,198.38 181.98,179.52 193.01,167 C214.92,142.13 309.56,124.89 359.64,117.32 " fill="none" id="Red-to-Idle" style="stroke:#181818;stroke-width:1.0;"/><polygon fill="#181818" points="364.32,116.63,354.8329,113.9852,359.3734,117.3591,355.9995,121.8997,364.32,116.63" style="stroke:#181818;stroke-width:1.0;"/><text fill="#000000" font-family="sans-serif" font-size="13" lengthAdjust="spacing" textLength="170" x="194.01" y="180.5684">NOT bConditionRedOrange</text></g><!--MD5=[96023adb00c566295a75dc77d61aee5c]
link Red to Red_Orange--><g id="link_Red_Red_Orange"><path d="M192.18,264.49 C199.07,279.83 209.92,298.91 225.01,311 C255.74,335.62 298.03,349.16 332.23,356.52 " fill="none" id="Red-to-Red_Orange" style="stroke:#181818;stroke-width:1.0;"/><polygon fill="#181818" points="337.04,357.52,329.0376,351.7787,332.1438,356.5065,327.416,359.6127,337.04,357.52" style="stroke:#181818;stroke-width:1.0;"/><text fill="#000000" font-family="sans-serif" font-size="13" lengthAdjust="spacing" textLength="138" x="226.01" y="307.5684">bConditionRedOrange</text></g><!--MD5=[5ec0c675c82efd6699afb3df43f00f91]
link Red_Orange to Green--><g id="link_Red_Orange_Green"><path d="M410.04,391.23 C421.3,405.22 436.05,422.97 450.01,438 C457.84,446.43 466.67,455.24 474.95,463.23 " fill="none" id="Red_Orange-to-Green" style="stroke:#181818;stroke-width:1.0;"/><polygon fill="#181818" points="478.4,466.53,474.6791,457.411,474.7936,463.0667,469.1379,463.1812,478.4,466.53" style="stroke:#181818;stroke-width:1.0;"/><text fill="#000000" font-family="sans-serif" font-size="13" lengthAdjust="spacing" textLength="113" x="451.01" y="434.5684">bConditionGreeen</text></g><!--MD5=[b63fb22d2da254250bf9875ba424ca74]
link Green to Orange--><g id="link_Green_Orange"><path d="M506.01,518.4 C506.01,538.36 506.01,566.7 506.01,588.22 " fill="none" id="Green-to-Orange" style="stroke:#181818;stroke-width:1.0;"/><polygon fill="#181818" points="506.01,593.15,510.01,584.15,506.01,588.15,502.01,584.15,506.01,593.15" style="stroke:#181818;stroke-width:1.0;"/><text fill="#000000" font-family="sans-serif" font-size="13" lengthAdjust="spacing" textLength="115" x="507.01" y="561.5684">bConditionOrange</text></g><!--MD5=[ab5540a5f9db0eec30a41b250d3ade33]
link Orange to Red--><g id="link_Orange_Red"><path d="M472.45,594.71 C409.56,547.41 273.9,436.5 202.01,311 C194.93,298.63 190.41,283.54 187.56,270.45 " fill="none" id="Orange-to-Red" style="stroke:#181818;stroke-width:1.0;"/><polygon fill="#181818" points="186.6,265.69,184.4804,275.3081,187.5998,270.589,192.3189,273.7084,186.6,265.69" style="stroke:#181818;stroke-width:1.0;"/><text fill="#000000" font-family="sans-serif" font-size="13" lengthAdjust="spacing" textLength="93" x="298.01" y="434.5684">bConditionRed</text></g><!--MD5=[973c12b1a5ade75b82287cc8b42ecba6]
link Red_Orange to Idle--><g id="link_Red_Orange_Idle"><path d="M391.01,340.54 C391.01,294.33 391.01,194.3 391.01,143.67 " fill="none" id="Red_Orange-to-Idle" style="stroke:#181818;stroke-width:1.0;"/><polygon fill="#181818" points="391.01,138.68,387.01,147.68,391.01,143.68,395.01,147.68,391.01,138.68" style="stroke:#181818;stroke-width:1.0;"/><text fill="#000000" font-family="sans-serif" font-size="13" lengthAdjust="spacing" textLength="145" x="392.01" y="244.0684">NOT bConditionGreeen</text></g><!--MD5=[903adaabd9910452256a01232f0ac41a]
link Green to Idle--><g id="link_Green_Idle"><path d="M536.99,473.88 C549.37,464.83 562.27,452.66 569.01,438 C589.92,392.54 572.25,256.61 546.01,214 C517.4,167.53 458.49,138.25 422.1,123.82 " fill="none" id="Green-to-Idle" style="stroke:#181818;stroke-width:1.0;"/><polygon fill="#181818" points="417.87,122.18,424.8041,129.1741,422.5289,123.995,427.7081,121.7198,417.87,122.18" style="stroke:#181818;stroke-width:1.0;"/><text fill="#000000" font-family="sans-serif" font-size="13" lengthAdjust="spacing" textLength="147" x="574.01" y="307.5684">NOT bConditionOrange</text></g><!--MD5=[149aa9379c87fc537e40fef42406fce3]
link Orange to Idle--><g id="link_Orange_Idle"><path d="M541.75,617.65 C612.36,612.86 763.01,591.25 763.01,494 C763.01,238 763.01,238 763.01,238 C763.01,166.46 512.7,128.18 422.73,116.73 " fill="none" id="Orange-to-Idle" style="stroke:#181818;stroke-width:1.0;"/><polygon fill="#181818" points="417.79,116.11,426.2172,121.2073,422.7505,116.7372,427.2207,113.2705,417.79,116.11" style="stroke:#181818;stroke-width:1.0;"/><text fill="#000000" font-family="sans-serif" font-size="13" lengthAdjust="spacing" textLength="125" x="764.01" y="371.0684">NOT bConditionRed</text></g><!--MD5=[edb55ca23d44a1fc29d124ea46fa0329]
@startuml

[*] - -> Idle
Idle - -> Red : bConditionEnable
Red - -> Red_Orange : bConditionRedOrange
Red_Orange - -> Green : bConditionGreeen
Green - -> Orange : bConditionOrange
Orange - ->  Red : bConditionRed

Red - -> Idle: NOT bConditionRedOrange
Red_Orange - -> Idle : NOT bConditionGreeen
Green - -> Idle : NOT bConditionOrange
Orange - ->  Idle : NOT bConditionRed

@enduml

PlantUML version 1.2022.7(Mon Aug 22 19:01:30 CEST 2022)
(GPL source distribution)
Java Runtime: OpenJDK Runtime Environment
JVM: OpenJDK 64-Bit Server VM
Default Encoding: UTF-8
Language: fr
Country: CH
--></g></svg>