<?xml version="1.0" encoding="UTF-8" standalone="no"?><svg xmlns="http://www.w3.org/2000/svg" xmlns:xlink="http://www.w3.org/1999/xlink" contentStyleType="text/css" height="118px" preserveAspectRatio="none" style="width:947px;height:118px;background:#FFFFFF;" version="1.1" viewBox="0 0 947 118" width="947px" zoomAndPan="magnify"><defs/><g><line style="stroke:#333333;stroke-width:0.5;" x1="10" x2="10" y1="10" y2="87.6094"/><line style="stroke:#333333;stroke-width:0.5;" x1="935" x2="935" y1="10" y2="87.6094"/><line style="stroke:#333333;stroke-width:0.5;stroke-dasharray:3.0,5.0;" x1="130" x2="130" y1="10" y2="87.6094"/><line style="stroke:#333333;stroke-width:0.5;stroke-dasharray:3.0,5.0;" x1="180" x2="180" y1="10" y2="87.6094"/><line style="stroke:#333333;stroke-width:0.5;stroke-dasharray:3.0,5.0;" x1="230" x2="230" y1="10" y2="87.6094"/><line style="stroke:#333333;stroke-width:0.5;stroke-dasharray:3.0,5.0;" x1="280" x2="280" y1="10" y2="87.6094"/><line style="stroke:#333333;stroke-width:0.5;stroke-dasharray:3.0,5.0;" x1="330" x2="330" y1="10" y2="87.6094"/><line style="stroke:#333333;stroke-width:0.5;stroke-dasharray:3.0,5.0;" x1="380" x2="380" y1="10" y2="87.6094"/><line style="stroke:#333333;stroke-width:0.5;stroke-dasharray:3.0,5.0;" x1="430" x2="430" y1="10" y2="87.6094"/><line style="stroke:#333333;stroke-width:0.5;stroke-dasharray:3.0,5.0;" x1="480" x2="480" y1="10" y2="87.6094"/><line style="stroke:#333333;stroke-width:0.5;stroke-dasharray:3.0,5.0;" x1="530" x2="530" y1="10" y2="87.6094"/><line style="stroke:#333333;stroke-width:0.5;stroke-dasharray:3.0,5.0;" x1="580" x2="580" y1="10" y2="87.6094"/><line style="stroke:#333333;stroke-width:0.5;stroke-dasharray:3.0,5.0;" x1="630" x2="630" y1="10" y2="87.6094"/><line style="stroke:#333333;stroke-width:0.5;stroke-dasharray:3.0,5.0;" x1="680" x2="680" y1="10" y2="87.6094"/><line style="stroke:#333333;stroke-width:0.5;stroke-dasharray:3.0,5.0;" x1="730" x2="730" y1="10" y2="87.6094"/><line style="stroke:#333333;stroke-width:0.5;stroke-dasharray:3.0,5.0;" x1="780" x2="780" y1="10" y2="87.6094"/><line style="stroke:#333333;stroke-width:0.5;stroke-dasharray:3.0,5.0;" x1="830" x2="830" y1="10" y2="87.6094"/><line style="stroke:#333333;stroke-width:0.5;stroke-dasharray:3.0,5.0;" x1="880" x2="880" y1="10" y2="87.6094"/><line style="stroke:#333333;stroke-width:0.5;stroke-dasharray:3.0,5.0;" x1="930" x2="930" y1="10" y2="87.6094"/><line style="stroke:#333333;stroke-width:0.5;" x1="10" x2="935" y1="10" y2="10"/><text fill="#333333" font-family="sans-serif" font-size="14" font-weight="bold" lengthAdjust="spacing" textLength="115" x="15" y="24.5332">CycleTime_20ms</text><line style="stroke:#333333;stroke-width:0.5;" x1="10" x2="131" y1="28.6094" y2="28.6094"/><line style="stroke:#333333;stroke-width:0.5;" x1="131" x2="141" y1="28.6094" y2="10"/><line style="stroke:#006400;stroke-width:1.5;" x1="130" x2="130" y1="35.6094" y2="49.6094"/><line style="stroke:#006400;stroke-width:1.5;" x1="130" x2="155" y1="35.6094" y2="35.6094"/><line style="stroke:#006400;stroke-width:1.5;" x1="155" x2="155" y1="35.6094" y2="49.6094"/><line style="stroke:#006400;stroke-width:1.5;" x1="155" x2="180" y1="49.6094" y2="49.6094"/><line style="stroke:#006400;stroke-width:1.5;" x1="180" x2="180" y1="35.6094" y2="49.6094"/><line style="stroke:#006400;stroke-width:1.5;" x1="180" x2="205" y1="35.6094" y2="35.6094"/><line style="stroke:#006400;stroke-width:1.5;" x1="205" x2="205" y1="35.6094" y2="49.6094"/><line style="stroke:#006400;stroke-width:1.5;" x1="205" x2="230" y1="49.6094" y2="49.6094"/><line style="stroke:#006400;stroke-width:1.5;" x1="230" x2="230" y1="35.6094" y2="49.6094"/><line style="stroke:#006400;stroke-width:1.5;" x1="230" x2="255" y1="35.6094" y2="35.6094"/><line style="stroke:#006400;stroke-width:1.5;" x1="255" x2="255" y1="35.6094" y2="49.6094"/><line style="stroke:#006400;stroke-width:1.5;" x1="255" x2="280" y1="49.6094" y2="49.6094"/><line style="stroke:#006400;stroke-width:1.5;" x1="280" x2="280" y1="35.6094" y2="49.6094"/><line style="stroke:#006400;stroke-width:1.5;" x1="280" x2="305" y1="35.6094" y2="35.6094"/><line style="stroke:#006400;stroke-width:1.5;" x1="305" x2="305" y1="35.6094" y2="49.6094"/><line style="stroke:#006400;stroke-width:1.5;" x1="305" x2="330" y1="49.6094" y2="49.6094"/><line style="stroke:#006400;stroke-width:1.5;" x1="330" x2="330" y1="35.6094" y2="49.6094"/><line style="stroke:#006400;stroke-width:1.5;" x1="330" x2="355" y1="35.6094" y2="35.6094"/><line style="stroke:#006400;stroke-width:1.5;" x1="355" x2="355" y1="35.6094" y2="49.6094"/><line style="stroke:#006400;stroke-width:1.5;" x1="355" x2="380" y1="49.6094" y2="49.6094"/><line style="stroke:#006400;stroke-width:1.5;" x1="380" x2="380" y1="35.6094" y2="49.6094"/><line style="stroke:#006400;stroke-width:1.5;" x1="380" x2="405" y1="35.6094" y2="35.6094"/><line style="stroke:#006400;stroke-width:1.5;" x1="405" x2="405" y1="35.6094" y2="49.6094"/><line style="stroke:#006400;stroke-width:1.5;" x1="405" x2="430" y1="49.6094" y2="49.6094"/><line style="stroke:#006400;stroke-width:1.5;" x1="430" x2="430" y1="35.6094" y2="49.6094"/><line style="stroke:#006400;stroke-width:1.5;" x1="430" x2="455" y1="35.6094" y2="35.6094"/><line style="stroke:#006400;stroke-width:1.5;" x1="455" x2="455" y1="35.6094" y2="49.6094"/><line style="stroke:#006400;stroke-width:1.5;" x1="455" x2="480" y1="49.6094" y2="49.6094"/><line style="stroke:#006400;stroke-width:1.5;" x1="480" x2="480" y1="35.6094" y2="49.6094"/><line style="stroke:#006400;stroke-width:1.5;" x1="480" x2="505" y1="35.6094" y2="35.6094"/><line style="stroke:#006400;stroke-width:1.5;" x1="505" x2="505" y1="35.6094" y2="49.6094"/><line style="stroke:#006400;stroke-width:1.5;" x1="505" x2="530" y1="49.6094" y2="49.6094"/><line style="stroke:#006400;stroke-width:1.5;" x1="530" x2="530" y1="35.6094" y2="49.6094"/><line style="stroke:#006400;stroke-width:1.5;" x1="530" x2="555" y1="35.6094" y2="35.6094"/><line style="stroke:#006400;stroke-width:1.5;" x1="555" x2="555" y1="35.6094" y2="49.6094"/><line style="stroke:#006400;stroke-width:1.5;" x1="555" x2="580" y1="49.6094" y2="49.6094"/><line style="stroke:#006400;stroke-width:1.5;" x1="580" x2="580" y1="35.6094" y2="49.6094"/><line style="stroke:#006400;stroke-width:1.5;" x1="580" x2="605" y1="35.6094" y2="35.6094"/><line style="stroke:#006400;stroke-width:1.5;" x1="605" x2="605" y1="35.6094" y2="49.6094"/><line style="stroke:#006400;stroke-width:1.5;" x1="605" x2="630" y1="49.6094" y2="49.6094"/><line style="stroke:#006400;stroke-width:1.5;" x1="630" x2="630" y1="35.6094" y2="49.6094"/><line style="stroke:#006400;stroke-width:1.5;" x1="630" x2="655" y1="35.6094" y2="35.6094"/><line style="stroke:#006400;stroke-width:1.5;" x1="655" x2="655" y1="35.6094" y2="49.6094"/><line style="stroke:#006400;stroke-width:1.5;" x1="655" x2="680" y1="49.6094" y2="49.6094"/><line style="stroke:#006400;stroke-width:1.5;" x1="680" x2="680" y1="35.6094" y2="49.6094"/><line style="stroke:#006400;stroke-width:1.5;" x1="680" x2="705" y1="35.6094" y2="35.6094"/><line style="stroke:#006400;stroke-width:1.5;" x1="705" x2="705" y1="35.6094" y2="49.6094"/><line style="stroke:#006400;stroke-width:1.5;" x1="705" x2="730" y1="49.6094" y2="49.6094"/><line style="stroke:#006400;stroke-width:1.5;" x1="730" x2="730" y1="35.6094" y2="49.6094"/><line style="stroke:#006400;stroke-width:1.5;" x1="730" x2="755" y1="35.6094" y2="35.6094"/><line style="stroke:#006400;stroke-width:1.5;" x1="755" x2="755" y1="35.6094" y2="49.6094"/><line style="stroke:#006400;stroke-width:1.5;" x1="755" x2="780" y1="49.6094" y2="49.6094"/><line style="stroke:#006400;stroke-width:1.5;" x1="780" x2="780" y1="35.6094" y2="49.6094"/><line style="stroke:#006400;stroke-width:1.5;" x1="780" x2="805" y1="35.6094" y2="35.6094"/><line style="stroke:#006400;stroke-width:1.5;" x1="805" x2="805" y1="35.6094" y2="49.6094"/><line style="stroke:#006400;stroke-width:1.5;" x1="805" x2="830" y1="49.6094" y2="49.6094"/><line style="stroke:#006400;stroke-width:1.5;" x1="830" x2="830" y1="35.6094" y2="49.6094"/><line style="stroke:#006400;stroke-width:1.5;" x1="830" x2="855" y1="35.6094" y2="35.6094"/><line style="stroke:#006400;stroke-width:1.5;" x1="855" x2="855" y1="35.6094" y2="49.6094"/><line style="stroke:#006400;stroke-width:1.5;" x1="855" x2="880" y1="49.6094" y2="49.6094"/><line style="stroke:#006400;stroke-width:1.5;" x1="880" x2="880" y1="35.6094" y2="49.6094"/><line style="stroke:#006400;stroke-width:1.5;" x1="880" x2="905" y1="35.6094" y2="35.6094"/><line style="stroke:#006400;stroke-width:1.5;" x1="905" x2="905" y1="35.6094" y2="49.6094"/><line style="stroke:#006400;stroke-width:1.5;" x1="905" x2="930" y1="49.6094" y2="49.6094"/><line style="stroke:#006400;stroke-width:1.5;" x1="930" x2="930" y1="35.6094" y2="49.6094"/><line style="stroke:#006400;stroke-width:1.5;" x1="930" x2="930" y1="35.6094" y2="35.6094"/><line style="stroke:#333333;stroke-width:0.5;" x1="10" x2="935" y1="57.6094" y2="57.6094"/><text fill="#333333" font-family="sans-serif" font-size="14" font-weight="bold" lengthAdjust="spacing" textLength="43" x="15" y="78.3379">Signal</text><line style="stroke:#006400;stroke-width:2.0;" x1="130" x2="130" y1="79.6094" y2="79.6094"/><line style="stroke:#006400;stroke-width:2.0;" x1="130" x2="380" y1="79.6094" y2="79.6094"/><line style="stroke:#006400;stroke-width:2.0;" x1="380" x2="380" y1="65.6094" y2="79.6094"/><line style="stroke:#006400;stroke-width:2.0;" x1="380" x2="630" y1="65.6094" y2="65.6094"/><line style="stroke:#006400;stroke-width:2.0;" x1="630" x2="630" y1="65.6094" y2="79.6094"/><line style="stroke:#006400;stroke-width:2.0;" x1="630" x2="880" y1="79.6094" y2="79.6094"/><line style="stroke:#006400;stroke-width:2.0;" x1="880" x2="880" y1="65.6094" y2="79.6094"/><line style="stroke:#006400;stroke-width:2.0;" x1="880" x2="930" y1="65.6094" y2="65.6094"/><line style="stroke:#333333;stroke-width:2.0;" x1="130" x2="130" y1="87.6094" y2="92.6094"/><line style="stroke:#333333;stroke-width:2.0;" x1="180" x2="180" y1="87.6094" y2="92.6094"/><line style="stroke:#333333;stroke-width:2.0;" x1="230" x2="230" y1="87.6094" y2="92.6094"/><line style="stroke:#333333;stroke-width:2.0;" x1="280" x2="280" y1="87.6094" y2="92.6094"/><line style="stroke:#333333;stroke-width:2.0;" x1="330" x2="330" y1="87.6094" y2="92.6094"/><line style="stroke:#333333;stroke-width:2.0;" x1="380" x2="380" y1="87.6094" y2="92.6094"/><line style="stroke:#333333;stroke-width:2.0;" x1="430" x2="430" y1="87.6094" y2="92.6094"/><line style="stroke:#333333;stroke-width:2.0;" x1="480" x2="480" y1="87.6094" y2="92.6094"/><line style="stroke:#333333;stroke-width:2.0;" x1="530" x2="530" y1="87.6094" y2="92.6094"/><line style="stroke:#333333;stroke-width:2.0;" x1="580" x2="580" y1="87.6094" y2="92.6094"/><line style="stroke:#333333;stroke-width:2.0;" x1="630" x2="630" y1="87.6094" y2="92.6094"/><line style="stroke:#333333;stroke-width:2.0;" x1="680" x2="680" y1="87.6094" y2="92.6094"/><line style="stroke:#333333;stroke-width:2.0;" x1="730" x2="730" y1="87.6094" y2="92.6094"/><line style="stroke:#333333;stroke-width:2.0;" x1="780" x2="780" y1="87.6094" y2="92.6094"/><line style="stroke:#333333;stroke-width:2.0;" x1="830" x2="830" y1="87.6094" y2="92.6094"/><line style="stroke:#333333;stroke-width:2.0;" x1="880" x2="880" y1="87.6094" y2="92.6094"/><line style="stroke:#333333;stroke-width:2.0;" x1="930" x2="930" y1="87.6094" y2="92.6094"/><line style="stroke:#333333;stroke-width:2.0;" x1="130" x2="930" y1="87.6094" y2="87.6094"/><text fill="#333333" font-family="sans-serif" font-size="11" lengthAdjust="spacing" textLength="6" x="127" y="105.0283">0</text><text fill="#333333" font-family="sans-serif" font-size="11" lengthAdjust="spacing" textLength="12" x="174" y="105.0283">20</text><text fill="#333333" font-family="sans-serif" font-size="11" lengthAdjust="spacing" textLength="18" x="371" y="105.0283">100</text><text fill="#333333" font-family="sans-serif" font-size="11" lengthAdjust="spacing" textLength="18" x="621" y="105.0283">200</text><text fill="#333333" font-family="sans-serif" font-size="11" lengthAdjust="spacing" textLength="18" x="871" y="105.0283">300</text><!--MD5=[078a49544fc454118f357f4ab51ba559]
@startuml
clock   "CycleTime_20ms" as C0 with period 20
binary  "Signal"  as C

@0
C is Idle

@100
C is high

@200
C is Idle

@300
C is High
@enduml

PlantUML version 1.2022.7(Mon Aug 22 19:01:30 CEST 2022)
(GPL source distribution)
Java Runtime: Java(TM) SE Runtime Environment
JVM: Java HotSpot(TM) 64-Bit Server VM
Default Encoding: Cp1252
Language: en
Country: US
--></g></svg>